SplineFontDB: 3.2
FontName: Sampradaya
FullName: Sampradaya
FamilyName: Sampradaya
Weight: Regular
Copyright: Copyright 2014-2025 Ambarish Sridharanarayanan.
Version: 0.9
ItalicAngle: 0
UnderlinePosition: -252
UnderlineWidth: 100
Ascent: 1638
Descent: 410
InvalidEm: 0
sfntRevision: 0x0000e666
LayerCount: 2
Layer: 0 1 "Back" 1
Layer: 1 1 "Fore" 0
XUID: [1021 268 364675272 1489025]
StyleMap: 0x0040
FSType: 0
OS2Version: 3
OS2_WeightWidthSlopeOnly: 0
OS2_UseTypoMetrics: 1
CreationTime: 1358746353
ModificationTime: 1751178980
PfmFamily: 81
TTFWeight: 400
TTFWidth: 5
LineGap: 0
VLineGap: 0
Panose: 0 0 0 0 0 0 0 0 0 0
OS2TypoAscent: 1408
OS2TypoAOffset: 0
OS2TypoDescent: -896
OS2TypoDOffset: 0
OS2TypoLinegap: 0
OS2WinAscent: 2400
OS2WinAOffset: 0
OS2WinDescent: 1600
OS2WinDOffset: 0
HheadAscent: 1408
HheadAOffset: 0
HheadDescent: -896
HheadDOffset: 0
OS2SubXSize: 204
OS2SubYSize: 204
OS2SubXOff: 0
OS2SubYOff: 286
OS2SupXSize: 204
OS2SupYSize: 204
OS2SupXOff: 0
OS2SupYOff: 286
OS2StrikeYSize: 102
OS2StrikeYPos: 512
OS2Vendor: '    '
Lookup: 4 0 0 "'akhn' Akhanda" { "'akhn' Akhanda subtable"  } ['akhn' ('DFLT' <'dflt' > 'deva' <'dflt' > 'gran' <'dflt' > 'taml' <'dflt' > ) ]
Lookup: 4 0 0 "'blwf' Below Base Forms (second stacked layer)" { "'blwf' Below Base Forms (second stacked layer) subtable"  } ['blwf' ('DFLT' <'dflt' > 'deva' <'dflt' > 'gran' <'dflt' > 'taml' <'dflt' > ) ]
Lookup: 4 0 0 "Ligature Substitution post repha rakara ya" { "Ligature Substitution post repha rakara ya subtable"  } []
Lookup: 6 0 0 "'rphf' Repha Form" { "'rphf' Repha Form (do nothing)"  "'rphf' Repha Form (post repha form)"  } ['rphf' ('DFLT' <'dflt' > 'deva' <'dflt' > 'gran' <'dflt' > 'taml' <'dflt' > ) ]
Lookup: 6 0 0 "'rkrf' Rakara Forms" { "'rkrf' Rakara Forms (do nothing)"  "'rkrf' Rakara Forms (post rakara form)"  } ['rkrf' ('DFLT' <'dflt' > 'deva' <'dflt' > 'gran' <'dflt' > 'taml' <'dflt' > ) ]

StartChar: .notdef
Encoding: 1114112 -1 0
Width: 746
Flags: MW
LayerCount: 2
Fore
SplineSet
68 0 m 1,0,-1
 68 1364 l 1,1,-1
 612 1364 l 1,2,-1
 612 0 l 1,3,-1
 68 0 l 1,0,-1
136 68 m 1,4,-1
 544 68 l 1,5,-1
 544 1296 l 1,6,-1
 136 1296 l 1,7,-1
 136 68 l 1,4,-1
EndSplineSet
EndChar

StartChar: u0951
Encoding: 2385 2385 3
Width: 0
Flags: MW
AnchorPoint: "higher" -408 598 mark 0
AnchorPoint: "high" -408 598 mark 0
LayerCount: 2
Fore
SplineSet
-454 1334 m 2,0,1
 -454 1408 -454 1408 -420 1408 c 128,-1,2
 -386 1408 -386 1408 -376 1390 c 128,-1,3
 -366 1372 -366 1372 -366 1334 c 2,4,-1
 -366 936 l 2,5,6
 -366 920 -366 920 -378 909 c 128,-1,7
 -390 898 -390 898 -407 898 c 128,-1,8
 -424 898 -424 898 -439 908 c 128,-1,9
 -454 918 -454 918 -454 932 c 2,10,-1
 -454 1334 l 2,0,1
EndSplineSet
Substitution2: "Single substitution post repha-1" uE205
Substitution2: "Single substitution post ya-1" uE201
Substitution2: "Single substitution pre repha-1" uE200
Substitution2: "Single substitution virama-1" u1134D
Substitution2: "Single substitution au marker-1" u11357
Substitution2: "Single substitution L marker-1" u11363
Substitution2: "Single substitution l marker-1" u11362
Substitution2: "Single substitution R marker-1" u11344
Substitution2: "Single substitution r marker-1" u11343
Substitution2: "Single substitution U marker-1" u11342
Substitution2: "Single substitution u marker-1" u11341
Substitution2: "Single substitution I marker-1" u11340
Substitution2: "Single substitution i marker-1" u1133F
Substitution2: "Single substitution A marker-1" u1133E
Substitution2: "Single substitution rotated ardhavisarga-1" u1CF3
Substitution2: "Single substitution ardhavisarga-1" u1CF2
Substitution2: "Single substitution visarga-1" u11303
Substitution2: "Single substitution anusvara-1" u11302
EndChar

StartChar: u0952
Encoding: 2386 2386 4
Width: 0
Flags: MW
AnchorPoint: "low" -428 0 mark 0
AnchorPoint: "lower" -428 0 mark 0
LayerCount: 2
Fore
SplineSet
-708 -240 m 260,0,1
 -708 -194 -708 -194 -678 -194 c 6,2,-1
 -180 -194 l 6,3,4
 -164 -194 -164 -194 -155 -209 c 132,-1,5
 -146 -224 -146 -224 -146 -241 c 132,-1,6
 -146 -258 -146 -258 -157 -273 c 132,-1,7
 -168 -288 -168 -288 -184 -288 c 6,8,-1
 -678 -288 l 6,9,10
 -708 -288 -708 -288 -708 -240 c 260,0,1
EndSplineSet
Substitution2: "Single substitution anunasika-1" u11301
Substitution2: "Single substitution post repha-1" uE205
Substitution2: "Single substitution post ya-1" uE201
Substitution2: "Single substitution pre repha-1" uE200
Substitution2: "Single substitution virama-1" u1134D
Substitution2: "Single substitution au marker-1" u11357
Substitution2: "Single substitution L marker-1" u11363
Substitution2: "Single substitution l marker-1" u11362
Substitution2: "Single substitution R marker-1" u11344
Substitution2: "Single substitution r marker-1" u11343
Substitution2: "Single substitution U marker-1" u11342
Substitution2: "Single substitution u marker-1" u11341
Substitution2: "Single substitution I marker-1" u11340
Substitution2: "Single substitution i marker-1" u1133F
Substitution2: "Single substitution A marker-1" u1133E
Substitution2: "Single substitution rotated ardhavisarga-1" u1CF3
Substitution2: "Single substitution ardhavisarga-1" u1CF2
Substitution2: "Single substitution visarga-1" u11303
Substitution2: "Single substitution anusvara-1" u11302
EndChar

StartChar: u0964
Encoding: 2404 2404 5
Width: 396
Flags: MW
LayerCount: 2
Fore
SplineSet
134 910 m 2,0,1
 134 966 134 966 196 966 c 0,2,3
 216 966 216 966 239 953 c 128,-1,4
 262 940 262 940 262 910 c 2,5,-1
 262 54 l 2,6,7
 262 28 262 28 240 14 c 128,-1,8
 218 0 218 0 195 0 c 128,-1,9
 172 0 172 0 153 13 c 128,-1,10
 134 26 134 26 134 54 c 2,11,-1
 134 910 l 2,0,1
EndSplineSet
EndChar

StartChar: u0BE6
Encoding: 3046 3046 7
Width: 816
Flags: MW
AnchorPoint: "low" 412 0 basechar 0
AnchorPoint: "high" 412 650 basechar 0
LayerCount: 2
Fore
SplineSet
98 486 m 132,-1,1
 138 558 138 558 216 604 c 132,-1,2
 294 650 294 650 392 650 c 132,-1,3
 490 650 490 650 544 629 c 132,-1,4
 598 608 598 608 648 568 c 4,5,6
 766 474 766 474 766 330 c 4,7,8
 764 192 764 192 680 104 c 4,9,10
 582 0 582 0 412 0 c 4,11,12
 298 0 298 0 216 50 c 4,13,14
 58 148 58 148 58 330 c 260,15,0
 58 414 58 414 98 486 c 132,-1,1
420 538 m 5,16,17
 352 538 352 538 307 519 c 4,18,19
 260 500 260 500 232 468 c 4,20,21
 176 406 176 406 176 327 c 132,-1,22
 176 248 176 248 235 189 c 132,-1,23
 294 130 294 130 413 130 c 132,-1,24
 532 130 532 130 592 189 c 132,-1,25
 652 248 652 248 652 326 c 4,26,27
 652 396 652 396 592 464 c 4,28,29
 528 536 528 536 420 538 c 5,16,17
EndSplineSet
EndChar

StartChar: u0BE7
Encoding: 3047 3047 8
Width: 980
Flags: MW
AnchorPoint: "low" 508 0 basechar 0
AnchorPoint: "high" 508 568 basechar 0
LayerCount: 2
Fore
SplineSet
762 568 m 6,0,1
 784 568 784 568 795 553 c 132,-1,2
 806 538 806 538 806 520 c 4,3,4
 806 504 806 504 802 496 c 4,5,6
 790 480 790 480 644 478 c 1,7,-1
 644 374 l 1,8,-1
 674 374 l 2,9,10
 708 374 708 374 763 356 c 128,-1,11
 818 338 818 338 852 312 c 0,12,13
 922 258 922 258 922 172 c 0,14,15
 922 64 922 64 812 16 c 0,16,17
 776 0 776 0 742 0 c 128,-1,18
 708 0 708 0 695 14 c 128,-1,19
 682 28 682 28 682 46 c 0,20,21
 682 84 682 84 736 91 c 128,-1,22
 790 98 790 98 810 128 c 0,23,24
 830 160 830 160 830 180 c 0,25,26
 830 234 830 234 772 274 c 0,27,28
 736 300 736 300 672 300 c 0,29,30
 660 300 660 300 644 298 c 1,31,-1
 644 150 l 2,32,33
 644 100 644 100 568 44 c 0,34,35
 524 12 524 12 480 4 c 0,36,37
 450 -2 450 -2 428 -2 c 0,38,39
 418 -2 418 -2 408 0 c 1,40,41
 302 0 302 0 234 40 c 0,42,43
 96 120 96 120 96 228 c 0,44,45
 96 296 96 296 172 324 c 0,46,47
 226 344 226 344 312 358 c 1,48,-1
 312 522 l 2,49,50
 312 540 312 540 336 552 c 1,51,52
 348 568 348 568 372 568 c 2,53,-1
 762 568 l 6,0,1
520 300 m 1,54,55
 434 300 434 300 350 282 c 0,56,57
 206 252 206 252 206 236 c 2,58,-1
 206 228 l 2,59,60
 206 156 206 156 286 114 c 0,61,62
 338 86 338 86 399 86 c 128,-1,63
 460 86 460 86 490 101 c 128,-1,64
 520 116 520 116 520 138 c 2,65,-1
 520 300 l 1,54,55
396 370 m 1,66,-1
 520 376 l 1,67,-1
 520 478 l 1,68,-1
 396 478 l 1,69,-1
 396 370 l 1,66,-1
EndSplineSet
EndChar

StartChar: u0BE8
Encoding: 3048 3048 9
Width: 978
Flags: MW
AnchorPoint: "low" 476 0 basechar 0
AnchorPoint: "high" 476 624 basechar 0
LayerCount: 2
Fore
SplineSet
194 236 m 5,0,1
 74 310 74 310 74 428 c 4,2,3
 74 516 74 516 140 569 c 4,4,5
 206 624 206 624 300 624 c 4,6,7
 304 624 304 624 306 624 c 4,8,9
 396 624 396 624 450 598 c 4,10,11
 506 572 506 572 536 537 c 132,-1,12
 566 502 566 502 566 450 c 4,13,14
 566 308 566 308 454 256 c 6,15,-1
 208 136 l 6,16,17
 172 120 172 120 150 98 c 5,18,-1
 836 98 l 6,19,20
 862 98 862 98 874 83 c 132,-1,21
 886 68 886 68 886 50 c 260,22,23
 886 32 886 32 874 16 c 132,-1,24
 862 0 862 0 836 0 c 6,25,-1
 144 0 l 6,26,27
 126 0 126 0 103 20 c 156,-1,28
 80 40 80 40 71 62 c 132,-1,29
 62 84 62 84 70 112 c 4,30,31
 88 174 88 174 194 236 c 5,0,1
322 512 m 260,32,33
 254 512 254 512 218 487 c 132,-1,34
 182 462 182 462 182 426 c 132,-1,35
 182 390 182 390 216 353 c 132,-1,36
 250 316 250 316 320 292 c 5,37,38
 390 316 390 316 424 353 c 132,-1,39
 458 390 458 390 458 425 c 132,-1,40
 458 460 458 460 424 486 c 132,-1,41
 390 512 390 512 322 512 c 260,32,33
EndSplineSet
EndChar

StartChar: u0BE9
Encoding: 3049 3049 10
Width: 892
Flags: MW
AnchorPoint: "low" 460 0 basechar 0
AnchorPoint: "high" 460 610 basechar 0
LayerCount: 2
Fore
SplineSet
560 566 m 0,0,1
 560 510 560 510 386 510 c 1,2,-1
 386 376 l 1,3,4
 426 382 426 382 464 382 c 128,-1,5
 502 382 502 382 554 365 c 128,-1,6
 606 348 606 348 644 304 c 0,7,8
 696 244 696 244 696 174 c 0,9,10
 696 152 696 152 662 92 c 1,11,-1
 808 92 l 2,12,13
 828 92 828 92 841 79 c 0,14,15
 854 66 854 66 854 46 c 0,16,17
 854 28 854 28 841 13 c 0,18,19
 828 0 828 0 808 0 c 2,20,-1
 476 0 l 2,21,22
 452 0 452 0 438 14 c 128,-1,23
 424 28 424 28 424 46 c 128,-1,24
 424 64 424 64 435 78 c 128,-1,25
 446 92 446 92 482 92 c 128,-1,26
 518 92 518 92 544 114 c 128,-1,27
 570 136 570 136 577 164 c 128,-1,28
 584 192 584 192 574 222 c 0,29,30
 554 284 554 284 484 284 c 2,31,-1
 476 284 l 2,32,33
 438 284 438 284 386 248 c 1,34,-1
 386 186 l 2,35,36
 386 162 386 162 364 151 c 128,-1,37
 342 140 342 140 318 140 c 128,-1,38
 294 140 294 140 272 151 c 128,-1,39
 250 162 250 162 250 186 c 2,40,-1
 250 510 l 1,41,-1
 160 510 l 1,42,-1
 160 66 l 2,43,44
 160 0 160 0 108 0 c 0,45,46
 90 0 90 0 78 22 c 128,-1,47
 66 44 66 44 66 62 c 2,48,-1
 66 564 l 2,49,50
 66 586 66 586 79 598 c 128,-1,51
 92 610 92 610 108 610 c 2,52,-1
 386 610 l 6,53,54
 560 610 560 610 560 566 c 0,0,1
EndSplineSet
EndChar

StartChar: u0BEA
Encoding: 3050 3050 11
Width: 980
Flags: MW
AnchorPoint: "low" 506 0 basechar 0
AnchorPoint: "high" 506 616 basechar 0
LayerCount: 2
Fore
SplineSet
66 230 m 4,0,1
 66 330 66 330 260 380 c 1,2,-1
 260 564 l 2,3,4
 260 586 260 586 284 596 c 1,5,6
 298 616 298 616 320 616 c 2,7,-1
 688 616 l 6,8,9
 722 616 722 616 736 594 c 4,10,11
 744 582 744 582 744 554 c 135,-1,12
 744 526 744 526 715 519 c 132,-1,13
 686 512 686 512 596 512 c 1,14,-1
 596 390 l 1,15,16
 632 384 632 384 660 384 c 0,17,18
 740 384 740 384 784 416 c 0,19,20
 864 472 864 472 864 556 c 0,21,22
 864 576 864 576 868 589 c 128,-1,23
 872 602 872 602 892 602 c 0,24,25
 950 602 950 602 950 564 c 0,26,27
 950 382 950 382 764 324 c 0,28,29
 720 310 720 310 672 310 c 128,-1,30
 624 310 624 310 596 312 c 1,31,-1
 596 154 l 2,32,33
 596 80 596 80 558 46 c 128,-1,34
 520 12 520 12 478 6 c 128,-1,35
 436 0 436 0 403 0 c 128,-1,36
 370 0 370 0 318 7 c 0,37,38
 264 16 264 16 204 48 c 0,39,40
 66 124 66 124 66 230 c 4,0,1
346 316 m 2,41,42
 208 316 208 316 174 248 c 1,43,-1
 174 216 l 2,44,45
 174 158 174 158 227 123 c 128,-1,46
 280 88 280 88 319 85 c 128,-1,47
 358 82 358 82 382 82 c 128,-1,48
 406 82 406 82 436 88 c 0,49,50
 482 102 482 102 482 130 c 2,51,-1
 482 314 l 1,52,53
 424 314 424 314 374 316 c 2,54,-1
 346 316 l 2,41,42
482 392 m 1,55,-1
 482 508 l 1,56,-1
 352 508 l 1,57,-1
 352 392 l 1,58,-1
 482 392 l 1,55,-1
EndSplineSet
EndChar

StartChar: u0BEB
Encoding: 3051 3051 12
Width: 980
Flags: MW
AnchorPoint: "low" 496 0 basechar 0
AnchorPoint: "high" 496 622 basechar 0
LayerCount: 2
Fore
SplineSet
656 608 m 2,0,1
 802 608 802 608 802 569 c 132,-1,2
 802 530 802 530 656 530 c 1,3,-1
 656 400 l 1,4,5
 698 422 698 422 722 422 c 2,6,-1
 752 422 l 1,7,8
 842 410 842 410 892 322 c 0,9,10
 910 290 910 290 910 244 c 0,11,12
 910 156 910 156 852 100 c 0,13,14
 746 0 746 0 562 0 c 0,15,16
 308 0 308 0 158 180 c 0,17,18
 82 270 82 270 82 386 c 2,19,-1
 82 502 l 2,20,21
 82 590 82 590 118 618 c 0,22,23
 134 630 134 630 147 604 c 128,-1,24
 160 578 160 578 160 470 c 128,-1,25
 160 362 160 362 202 278 c 0,26,27
 282 118 282 118 452 84 c 0,28,29
 492 76 492 76 528 76 c 0,30,31
 648 76 648 76 719 137 c 128,-1,32
 790 198 790 198 790 248 c 0,33,34
 790 272 790 272 780 300 c 0,35,36
 768 328 768 328 752 336 c 0,37,38
 742 342 742 342 730 342 c 0,39,40
 698 342 698 342 656 298 c 9,41,-1
 656 288 l 2,42,43
 656 256 656 256 606 256 c 0,44,45
 588 256 588 256 573 264 c 128,-1,46
 558 272 558 272 558 286 c 2,47,-1
 558 530 l 1,48,-1
 428 530 l 1,49,-1
 428 248 l 2,50,51
 428 222 428 222 391 222 c 128,-1,52
 354 222 354 222 354 246 c 2,53,-1
 354 574 l 2,54,55
 354 608 354 608 382 608 c 2,56,-1
 656 608 l 2,0,1
EndSplineSet
EndChar

StartChar: u0BEC
Encoding: 3052 3052 13
Width: 980
Flags: MW
AnchorPoint: "low" 490 0 basechar 0
AnchorPoint: "high" 490 606 basechar 0
LayerCount: 2
Fore
SplineSet
926 362 m 256,0,1
 926 310 926 310 894 310 c 2,2,-1
 882 310 l 1,3,-1
 882 46 l 2,4,5
 882 20 882 20 871 10 c 128,-1,6
 860 0 860 0 848 0 c 256,7,8
 844 0 844 0 826 7 c 128,-1,9
 808 14 808 14 808 50 c 2,10,-1
 808 310 l 1,11,-1
 706 310 l 1,12,-1
 706 54 l 2,13,14
 706 0 706 0 670 0 c 0,15,16
 658 0 658 0 646 15 c 128,-1,17
 634 30 634 30 634 54 c 2,18,-1
 634 310 l 1,19,-1
 530 310 l 1,20,-1
 530 142 l 2,21,22
 530 92 530 92 483 57 c 128,-1,23
 436 22 436 22 390 11 c 128,-1,24
 344 0 344 0 283 0 c 0,25,26
 224 0 224 0 172 32 c 0,27,28
 54 106 54 106 54 220 c 0,29,30
 54 228 54 228 68 263 c 128,-1,31
 82 298 82 298 126 337 c 128,-1,32
 170 376 170 376 238 400 c 1,33,-1
 238 564 l 2,34,35
 238 572 238 572 256 590 c 0,36,37
 272 606 272 606 282 606 c 2,38,-1
 634 606 l 22,39,40
 686 606 686 606 686 560 c 4,41,42
 686 552 686 552 684 546 c 4,43,44
 676 530 676 530 660 520 c 132,-1,45
 644 510 644 510 630 510 c 6,46,-1
 530 510 l 1,47,-1
 530 416 l 1,48,-1
 888 416 l 2,49,50
 906 416 906 416 916 399 c 128,-1,51
 926 382 926 382 926 362 c 256,0,1
340 96 m 0,52,53
 408 96 408 96 408 134 c 2,54,-1
 408 306 l 1,55,56
 358 318 358 318 314 318 c 0,57,58
 228 318 228 318 189 286 c 128,-1,59
 150 254 150 254 150 224 c 0,60,61
 148 194 148 194 168 170 c 0,62,63
 224 96 224 96 340 96 c 0,52,53
314 416 m 1,64,65
 362 416 362 416 408 416 c 1,66,-1
 408 510 l 1,67,-1
 314 510 l 1,68,-1
 314 416 l 1,64,65
EndSplineSet
EndChar

StartChar: u0BED
Encoding: 3053 3053 14
Width: 1066
Flags: MW
LayerCount: 2
Fore
SplineSet
846 38 m 2,0,1
 846 0 846 0 782 0 c 0,2,3
 758 0 758 0 735 9 c 128,-1,4
 712 18 712 18 712 38 c 2,5,-1
 712 518 l 1,6,7
 518 518 518 518 437 501 c 128,-1,8
 356 484 356 484 311 457 c 128,-1,9
 266 430 266 430 235 383 c 128,-1,10
 204 336 204 336 192 304 c 1,11,12
 298 300 298 300 353 250 c 128,-1,13
 408 200 408 200 408 143 c 128,-1,14
 408 86 408 86 369 43 c 128,-1,15
 330 0 330 0 252 0 c 128,-1,16
 174 0 174 0 136 46 c 0,17,18
 76 118 76 118 76 226 c 0,19,20
 76 416 76 416 232 508 c 0,21,22
 374 592 374 592 640 604 c 0,23,24
 770 610 770 610 954 612 c 0,25,26
 976 612 976 612 988 598 c 128,-1,27
 1000 584 1000 584 1000 566 c 0,28,29
 1000 518 1000 518 956 518 c 2,30,-1
 846 518 l 1,31,-1
 846 38 l 2,0,1
178 210 m 0,32,33
 178 90 178 90 250 90 c 0,34,35
 312 92 312 92 312 164 c 0,36,37
 312 192 312 192 274 214 c 0,38,39
 242 238 242 238 180 242 c 1,40,41
 178 226 178 226 178 210 c 0,32,33
EndSplineSet
EndChar

StartChar: u0BEE
Encoding: 3054 3054 15
Width: 980
Flags: MW
LayerCount: 2
Fore
SplineSet
824 570 m 2,0,1
 824 612 824 612 868 612 c 0,2,3
 892 612 892 612 911 601 c 128,-1,4
 930 590 930 590 930 568 c 6,5,-1
 930 48 l 6,6,7
 930 24 930 24 911 12 c 128,-1,8
 892 0 892 0 868 0 c 0,9,10
 824 0 824 0 824 46 c 2,11,-1
 824 406 l 1,12,13
 778 386 778 386 714 367 c 128,-1,14
 650 348 650 348 646 344 c 128,-1,15
 642 340 642 340 645 330 c 128,-1,16
 648 320 648 320 648 312 c 0,17,18
 644 180 644 180 520 84 c 0,19,20
 416 2 416 2 268 0 c 0,21,22
 212 0 212 0 139 49 c 128,-1,23
 66 98 66 98 38 172 c 0,24,25
 32 188 32 188 32 197 c 128,-1,26
 32 206 32 206 66 226 c 0,27,28
 110 252 110 252 472 366 c 1,29,30
 474 378 474 378 474 388 c 0,31,32
 476 428 476 428 456 456 c 0,33,34
 432 488 432 488 400 500 c 0,35,36
 378 508 378 508 354 508 c 0,37,38
 302 508 302 508 250 462 c 1,39,-1
 242 422 l 1,40,41
 228 396 228 396 206 387 c 128,-1,42
 184 378 184 378 167 386 c 128,-1,43
 150 394 150 394 141 413 c 128,-1,44
 132 432 132 432 147 468 c 128,-1,45
 162 504 162 504 205 534 c 128,-1,46
 248 564 248 564 290 572 c 0,47,48
 338 582 338 582 382 584 c 0,49,50
 446 584 446 584 502 560 c 0,51,52
 612 516 612 516 624 420 c 1,53,54
 642 428 642 428 708 450 c 2,55,-1
 824 490 l 1,56,-1
 824 570 l 2,0,1
480 286 m 1,57,58
 332 238 332 238 200 198 c 1,59,-1
 146 172 l 1,60,61
 152 132 152 132 181 111 c 128,-1,62
 210 90 210 90 250 90 c 128,-1,63
 290 90 290 90 333 102 c 0,64,65
 376 112 376 112 412 140 c 0,66,67
 482 192 482 192 482 262 c 0,68,69
 482 274 482 274 480 286 c 1,57,58
EndSplineSet
EndChar

StartChar: u0BEF
Encoding: 3055 3055 16
Width: 980
Flags: MW
LayerCount: 2
Fore
SplineSet
286 398 m 1,0,1
 318 398 318 398 350 398 c 1,2,-1
 350 504 l 1,3,-1
 286 504 l 1,4,-1
 286 398 l 1,0,1
350 158 m 2,5,-1
 350 314 l 1,6,7
 218 308 218 308 200 298 c 128,-1,8
 182 288 182 288 164 280 c 0,9,10
 136 270 136 270 128 241 c 128,-1,11
 120 212 120 212 120 208 c 2,12,-1
 120 198 l 2,13,14
 120 150 120 150 148 124 c 0,15,16
 188 88 188 88 236 88 c 0,17,18
 264 88 264 88 292 100 c 0,19,20
 352 116 352 116 350 158 c 2,5,-1
612 556 m 4,21,22
 612 504 612 504 458 504 c 1,23,-1
 458 392 l 1,24,25
 490 394 490 394 526 394 c 128,-1,26
 562 394 562 394 594 378 c 1,27,28
 640 406 640 406 704 406 c 0,29,30
 840 404 840 404 920 300 c 0,31,32
 956 252 956 252 956 198 c 0,33,34
 956 190 956 190 956 184 c 0,35,36
 956 138 956 138 948 118 c 0,37,38
 932 64 932 64 899 32 c 128,-1,39
 866 0 866 0 852 0 c 2,40,-1
 838 0 l 2,41,42
 826 -6 826 -6 816 0 c 0,43,44
 812 2 812 2 806 16 c 128,-1,45
 800 30 800 30 814 43 c 128,-1,46
 828 56 828 56 844 68 c 0,47,48
 884 104 884 104 884 140 c 2,49,-1
 884 182 l 2,50,51
 884 268 884 268 802 316 c 0,52,53
 752 346 752 346 706 344 c 0,54,55
 682 344 682 344 658 336 c 1,56,57
 696 308 696 308 721 274 c 128,-1,58
 746 240 746 240 748 186 c 0,59,60
 748 90 748 90 715 45 c 128,-1,61
 682 0 682 0 640 0 c 128,-1,62
 598 0 598 0 556 36 c 128,-1,63
 514 72 514 72 514 116 c 2,64,-1
 514 172 l 2,65,66
 514 232 514 232 542 300 c 1,67,68
 522 318 522 318 488 318 c 0,69,70
 474 318 474 318 458 314 c 1,71,-1
 458 184 l 2,72,73
 458 178 458 178 454 162 c 0,74,75
 432 86 432 86 385 43 c 128,-1,76
 338 0 338 0 285 0 c 128,-1,77
 232 0 232 0 182 20 c 128,-1,78
 132 40 132 40 92 80 c 0,79,80
 30 142 30 142 30 212 c 0,81,82
 30 236 30 236 38 264 c 0,83,84
 48 298 48 298 92 335 c 128,-1,85
 136 372 136 372 196 394 c 1,86,-1
 196 558 l 2,87,88
 196 580 196 580 220 588 c 1,89,90
 228 606 228 606 244 606 c 2,91,-1
 578 606 l 6,92,93
 594 606 594 606 603 590 c 132,-1,94
 612 574 612 574 612 556 c 4,21,22
642 70 m 128,-1,96
 666 78 666 78 682 106 c 0,97,98
 694 126 694 126 694 154 c 0,99,100
 694 168 694 168 692 184 c 8,101,102
 684 232 684 232 668 254 c 0,103,104
 658 268 658 268 634 268 c 0,105,106
 620 268 620 268 604 264 c 0,107,108
 578 258 578 258 578 181 c 128,-1,109
 578 104 578 104 598 83 c 128,-1,95
 618 62 618 62 642 70 c 128,-1,96
EndSplineSet
EndChar

StartChar: uE100
Encoding: 57600 57600 17
Width: 1718
Flags: MW
AnchorPoint: "high" 820 832 basechar 0
AnchorPoint: "low" 820 -388 basechar 0
LayerCount: 2
Fore
SplineSet
548 294 m 3,0,1
 548 154 548 154 424 100 c 0,2,3
 364 74 364 74 308 74 c 3,4,5
 260 74 260 74 200 98 c 0,6,7
 160 114 160 114 108 172 c 0,8,9
 68 216 68 216 66 292 c 0,10,11
 66 594 66 594 220 732 c 0,12,13
 290 796 290 796 380 808 c 0,14,15
 436 816 436 816 450 816 c 0,16,17
 504 816 504 816 560 798 c 0,18,19
 754 742 754 742 856 560 c 1,20,-1
 856 792 l 2,21,22
 856 816 856 816 880 828 c 0,23,24
 892 834 892 834 924 834 c 2,25,-1
 1404 834 l 6,26,27
 1444 834 1444 834 1458 812 c 4,28,29
 1470 792 1470 792 1470 772 c 135,-1,30
 1470 752 1470 752 1452 734 c 132,-1,31
 1434 716 1434 716 1408 716 c 6,32,-1
 1270 716 l 1,33,-1
 1270 560 l 1,34,35
 1418 536 1418 536 1518 434 c 128,-1,36
 1618 332 1618 332 1618 212 c 3,37,38
 1618 -26 1618 -26 1468 -108 c 0,39,40
 1370 -162 1370 -162 1186 -162 c 0,41,42
 1136 -162 1136 -162 1130 -162 c 0,43,44
 1036 -152 1036 -152 860 -152 c 2,45,-1
 760 -152 l 2,46,47
 576 -152 576 -152 554 -188 c 0,48,49
 544 -204 544 -204 562 -227 c 128,-1,50
 580 -250 580 -250 601 -271 c 128,-1,51
 622 -292 622 -292 617 -317 c 128,-1,52
 612 -342 612 -342 588 -368 c 0,53,54
 570 -388 570 -388 548 -388 c 3,55,56
 500 -388 500 -388 470 -330 c 0,57,58
 444 -278 444 -278 444 -244 c 3,59,60
 444 -194 444 -194 468 -156 c 0,61,62
 528 -59 528 -59 772 -64 c 2,63,-1
 1090 -70 l 2,64,65
 1378 -76 1378 -76 1452 68 c 0,66,67
 1476 114 1476 114 1478 184 c 0,68,69
 1480 282 1480 282 1428 354 c 0,70,71
 1380 422 1380 422 1274 444 c 1,72,73
 1282 364 1282 364 1282 282 c 3,74,75
 1282 218 1282 218 1268 160 c 0,76,77
 1230 0 1230 0 1052 0 c 3,78,79
 914 0 914 0 828 55 c 128,-1,80
 742 110 742 110 706 186 c 0,81,82
 682 238 682 238 682 296 c 3,83,84
 682 320 682 320 686 348 c 0,85,86
 702 432 702 432 776 492 c 1,87,88
 722 596 722 596 634 654 c 0,89,90
 534 722 534 722 456 722 c 0,91,92
 446 722 446 722 436 722 c 0,93,94
 360 722 360 722 296 674 c 0,95,96
 224 618 224 618 206 486 c 1,97,98
 256 506 256 506 306 506 c 0,99,100
 368 506 368 506 432 476 c 0,101,102
 548 424 548 424 548 294 c 3,0,1
968 716 m 1,103,-1
 968 564 l 1,104,-1
 1128 564 l 1,105,-1
 1128 716 l 1,106,-1
 968 716 l 1,103,-1
210 290 m 3,107,108
 210 234 210 234 246 207 c 128,-1,109
 282 180 282 180 322 180 c 0,110,111
 366 180 366 180 396 206 c 0,112,113
 432 234 432 234 432 290 c 3,114,115
 432 352 432 352 396 380 c 0,116,117
 368 402 368 402 322 402 c 3,118,119
 280 402 280 402 244 372 c 0,120,121
 210 342 210 342 210 290 c 3,107,108
1052 148 m 3,122,123
 1128 148 1128 148 1132 244 c 0,124,125
 1134 282 1134 282 1134 296 c 3,126,127
 1134 360 1134 360 1128 448 c 1,128,-1
 914 448 l 2,129,130
 842 448 842 448 804 376 c 0,131,132
 788 342 788 342 786 316 c 0,133,134
 784 294 784 294 792 276 c 0,135,136
 812 224 812 224 878 186 c 128,-1,137
 944 148 944 148 1052 148 c 3,122,123
EndSplineSet
LCarets2: 2 0 0
Ligature2: "'akhn' Akhanda subtable" u11328 u1134D u11324
EndChar

StartChar: uE101
Encoding: 57601 57601 18
Width: 1522
Flags: MW
AnchorPoint: "high" 730 816 basechar 0
AnchorPoint: "low" 730 -202 basechar 0
LayerCount: 2
Fore
SplineSet
488 320 m 3,0,1
 488 196 488 196 380 142 c 0,2,3
 328 116 328 116 276 116 c 3,4,5
 228 116 228 116 180 136 c 0,6,7
 94 170 94 170 60 310 c 0,8,9
 52 344 52 344 52 442 c 3,10,11
 52 620 52 620 124 718 c 0,12,13
 190 810 190 810 292 810 c 3,14,15
 320 810 320 810 352 802 c 0,16,17
 490 770 490 770 594 632 c 1,18,-1
 594 766 l 2,19,20
 594 788 594 788 618 796 c 1,21,22
 630 816 630 816 654 816 c 2,23,-1
 1196 816 l 2,24,25
 1214 816 1214 816 1224 797 c 128,-1,26
 1234 778 1234 778 1234 758 c 131,-1,27
 1234 738 1234 738 1224 720 c 128,-1,28
 1214 702 1214 702 1196 702 c 2,29,-1
 1032 702 l 1,30,-1
 1032 434 l 1,31,32
 1090 466 1090 466 1148 466 c 3,33,34
 1216 466 1216 466 1280 426 c 0,35,36
 1336 392 1336 392 1373 333 c 128,-1,37
 1410 274 1410 274 1410 150 c 3,38,39
 1410 6 1410 6 1318 -92 c 0,40,41
 1214 -202 1214 -202 1032 -202 c 2,42,-1
 272 -202 l 2,43,44
 232 -202 232 -202 232 -147 c 131,-1,45
 232 -92 232 -92 272 -92 c 2,46,-1
 1032 -92 l 2,47,48
 1218 -92 1218 -92 1246 38 c 0,49,50
 1256 82 1256 82 1256 140 c 3,51,52
 1256 260 1256 260 1231 301 c 128,-1,53
 1206 342 1206 342 1170 360 c 0,54,55
 1154 368 1154 368 1138 366 c 0,56,57
 1118 366 1118 366 1096 354 c 0,58,59
 1058 334 1058 334 1032 276 c 1,60,-1
 1032 52 l 2,61,62
 1032 26 1032 26 1009 13 c 128,-1,63
 986 0 986 0 957 0 c 128,-1,64
 928 0 928 0 904 13 c 128,-1,65
 880 26 880 26 880 52 c 2,66,-1
 880 702 l 1,67,-1
 714 702 l 1,68,-1
 714 34 l 2,69,70
 714 2 714 2 664 0 c 0,71,72
 594 0 594 0 594 36 c 2,73,-1
 594 166 l 2,74,75
 594 480 594 480 480 618 c 0,76,77
 432 676 432 676 378 694 c 0,78,79
 348 704 348 704 318 704 c 3,80,81
 294 704 294 704 274 696 c 0,82,83
 226 680 226 680 193 628 c 128,-1,84
 160 576 160 576 158 496 c 1,85,86
 206 530 206 530 270 528 c 0,87,88
 318 528 318 528 368 506 c 128,-1,89
 418 484 418 484 453 436 c 128,-1,90
 488 388 488 388 488 320 c 3,0,1
216 411 m 128,-1,92
 188 382 188 382 188 322 c 131,-1,93
 188 262 188 262 216 233 c 128,-1,94
 244 204 244 204 276 204 c 131,-1,95
 308 204 308 204 336 233 c 128,-1,96
 364 262 364 262 364 320 c 3,97,98
 364 382 364 382 337 411 c 128,-1,99
 310 440 310 440 277 440 c 131,-1,91
 244 440 244 440 216 411 c 128,-1,92
EndSplineSet
LCarets2: 2 0 0
Ligature2: "'akhn' Akhanda subtable" u11328 u1134D u11328
EndChar

StartChar: uE102
Encoding: 57602 57602 19
Width: 1706
Flags: MW
AnchorPoint: "high" 830 804 basechar 0
AnchorPoint: "low" 830 0 basechar 0
LayerCount: 2
Fore
SplineSet
1182 126 m 1,0,1
 1228 48 1228 48 1300 20 c 0,2,3
 1354 0 1354 0 1382 0 c 3,4,5
 1396 0 1396 0 1440 12 c 0,6,7
 1508 32 1508 32 1554 105 c 128,-1,8
 1600 178 1600 178 1600 298 c 3,9,10
 1600 332 1600 332 1583 398 c 0,11,12
 1556 502 1556 502 1464 538 c 0,13,14
 1414 558 1414 558 1378 558 c 128,-1,15
 1342 558 1342 558 1312 552 c 128,-1,16
 1282 546 1282 546 1256 512 c 128,-1,17
 1230 478 1230 478 1230 428 c 2,18,-1
 1230 420 l 0,19,20
 1232 350 1232 350 1328 296 c 0,21,22
 1364 276 1364 276 1420 276 c 3,23,24
 1456 276 1456 276 1486 298 c 1,25,26
 1486 280 1486 280 1486 268 c 0,27,28
 1486 186 1486 186 1460 140 c 0,29,30
 1428 86 1428 86 1380 84 c 0,31,32
 1378 84 1378 84 1376 84 c 0,33,34
 1330 84 1330 84 1280 140 c 0,35,36
 1228 200 1228 200 1228 292 c 3,37,38
 1228 344 1228 344 1158 386 c 0,39,40
 1144 394 1144 394 1121 379 c 128,-1,41
 1098 364 1098 364 1092 354 c 128,-1,42
 1086 344 1086 344 1088 342 c 0,43,44
 1126 304 1126 304 1126 252 c 3,45,46
 1126 196 1126 196 1100 160 c 0,47,48
 1076 124 1076 124 1046 103 c 128,-1,49
 1016 82 1016 82 998 82 c 1,50,51
 990 80 990 80 962 80 c 0,52,53
 944 80 944 80 932 90 c 0,54,55
 912 106 912 106 910 138 c 0,56,57
 910 180 910 180 938 234 c 1,58,-1
 938 236 l 1,59,60
 954 280 954 280 954 318 c 3,61,62
 954 396 954 396 886 448 c 0,63,64
 802 514 802 514 628 522 c 1,65,-1
 628 714 l 1,66,-1
 766 714 l 2,67,68
 792 714 792 714 806 729 c 128,-1,69
 820 744 820 744 819 761 c 0,70,71
 820 778 820 778 801 792 c 0,72,73
 784 806 784 806 760 806 c 2,74,-1
 304 806 l 2,75,76
 276 806 276 806 254 797 c 0,77,78
 228 786 228 786 228 766 c 2,79,-1
 228 512 l 1,80,81
 158 490 158 490 118 443 c 128,-1,82
 78 396 78 396 66 340 c 0,83,84
 60 316 60 316 60 292 c 3,85,86
 60 260 60 260 70 224 c 0,87,88
 84 164 84 164 128 114 c 0,89,90
 230 0 230 0 408 0 c 3,91,92
 506 0 506 0 555 50 c 0,93,94
 602 100 602 100 620 168 c 0,95,96
 636 228 636 228 636 288 c 0,97,98
 636 296 636 296 636 308 c 0,99,100
 632 380 632 380 628 434 c 1,101,102
 636 434 636 434 646 434 c 0,103,104
 762 434 762 434 816 382 c 0,105,106
 848 350 848 350 848 308 c 3,107,108
 848 264 848 264 828 234 c 24,109,110
 802 194 802 194 796 174 c 0,111,112
 790 148 790 148 790 134 c 3,113,114
 790 116 790 116 796 98 c 0,115,116
 808 60 808 60 852 32 c 0,117,118
 898 0 898 0 978 0 c 3,119,120
 1104 0 1104 0 1182 126 c 1,0,1
338 714 m 1,121,-1
 488 714 l 1,122,-1
 488 524 l 1,123,-1
 338 524 l 1,124,-1
 338 714 l 1,121,-1
410 124 m 3,125,126
 306 124 306 124 242 165 c 0,127,128
 175 206 175 206 160 256 c 0,129,130
 154 276 154 276 154 296 c 3,131,132
 154 328 154 328 172 358 c 0,133,134
 202 408 202 408 284 428 c 1,135,-1
 488 428 l 1,136,137
 488 364 488 364 492 308 c 0,138,139
 494 286 494 286 494 268 c 0,140,141
 496 236 496 236 492 212 c 0,142,143
 480 124 480 124 410 124 c 3,125,126
1448 452 m 0,144,145
 1464 430 1464 430 1452 394 c 0,146,147
 1440 356 1440 356 1386 354 c 0,148,149
 1336 354 1336 354 1324 372 c 0,150,151
 1306 394 1306 394 1306 426 c 2,152,-1
 1306 428 l 2,153,154
 1306 452 1306 452 1327 469 c 0,155,156
 1348 485 1348 485 1381 485 c 3,157,158
 1426 485 1426 485 1448 452 c 0,144,145
EndSplineSet
Position2: "Single Position lookup 0-1" dx=0 dy=0 dh=-820 dv=0
LCarets2: 2 0 0
Ligature2: "'akhn' Akhanda subtable" u11324 u1134D u11325
EndChar

StartChar: uE103
Encoding: 57603 57603 20
Width: 2256
Flags: MW
AnchorPoint: "high" 1100 820 basechar 0
AnchorPoint: "low" 1100 0 basechar 0
LayerCount: 2
Fore
SplineSet
1114 424 m 1,0,1
 1112 442 1112 442 1111 460 c 128,-1,2
 1110 478 1110 478 1108 494 c 1,3,4
 1038 488 1038 488 986 440 c 1,5,6
 998 442 998 442 1012 442 c 0,7,8
 1058 442 1058 442 1114 424 c 1,0,1
914 274 m 3,9,10
 914 234 914 234 946 214 c 0,11,12
 984 192 984 192 1020 192 c 131,-1,13
 1056 192 1056 192 1088 212 c 128,-1,14
 1120 232 1120 232 1120 274 c 131,-1,15
 1120 316 1120 316 1086 336 c 0,16,17
 1058 352 1058 352 1020 352 c 3,18,19
 984 352 984 352 947 329 c 0,20,21
 914 308 914 308 914 274 c 3,9,10
1104 566 m 1,22,23
 1104 644 1104 644 1104 724 c 1,24,-1
 708 724 l 2,25,26
 638 724 638 724 609 700 c 0,27,28
 582 676 582 676 576 624 c 0,29,30
 574 608 574 608 574 550 c 2,31,-1
 574 272 l 2,32,33
 574 188 574 188 534 125 c 0,34,35
 500 72 500 72 439 36 c 0,36,37
 376 0 376 0 320 0 c 3,38,39
 260 0 260 0 200 32 c 0,40,41
 144 60 144 60 108 118 c 128,-1,42
 72 176 72 176 72 264 c 2,43,-1
 72 776 l 2,44,45
 72 808 72 808 118 808 c 3,46,47
 172 808 172 808 172 776 c 2,48,-1
 172 272 l 2,49,50
 172 188 172 188 218 147 c 128,-1,51
 264 106 264 106 318 106 c 131,-1,52
 372 106 372 106 414 148 c 0,53,54
 450 184 450 184 450 250 c 2,55,-1
 450 524 l 2,56,57
 450 618 450 618 468 676 c 0,58,59
 488 744 488 744 542 781 c 0,60,61
 598 820 598 820 708 820 c 2,62,-1
 1376 820 l 6,63,64
 1394 820 1394 820 1404 805 c 132,-1,65
 1414 790 1414 790 1414 772 c 135,-1,66
 1414 754 1414 754 1404 739 c 132,-1,67
 1394 724 1394 724 1376 724 c 6,68,-1
 1230 724 l 1,69,-1
 1230 560 l 1,70,71
 1364 540 1364 540 1444 464 c 0,72,73
 1526 386 1526 386 1526 274 c 3,74,75
 1526 140 1526 140 1392 78 c 1,76,77
 1684 78 1684 78 1976 78 c 1,78,-1
 1976 732 l 2,79,80
 1976 758 1976 758 1998 776 c 0,81,82
 2022 796 2022 796 2050 795 c 0,83,84
 2078 796 2078 796 2103 787 c 0,85,86
 2128 776 2128 776 2128 748 c 2,87,-1
 2128 0 l 1,88,-1
 806 0 l 1,89,-1
 806 78 l 1,90,91
 1104 78 1104 78 1193 99 c 0,92,93
 1256 114 1256 114 1329 160 c 0,94,95
 1390 198 1390 198 1392 274 c 0,96,97
 1392 348 1392 348 1344 402 c 128,-1,98
 1296 456 1296 456 1230 480 c 1,99,100
 1236 312 1236 312 1236 276 c 3,101,102
 1236 174 1236 174 1122 128 c 0,103,104
 1072 108 1072 108 1010 106 c 0,105,106
 958 104 958 104 906 124 c 0,107,108
 790 168 790 168 790 274 c 3,109,110
 790 396 790 396 904 488 c 0,111,112
 984 554 984 554 1104 566 c 1,22,23
EndSplineSet
LCarets2: 2 0 0
Ligature2: "'akhn' Akhanda subtable" u11336 u1134D u1131A
EndChar

StartChar: uE104
Encoding: 57604 57604 21
Width: 1226
Flags: MW
AnchorPoint: "high" 612 820 basechar 0
AnchorPoint: "low" 612 0 basechar 0
LayerCount: 2
Fore
SplineSet
1172 574 m 3,0,1
 1172 392 1172 392 966 316 c 0,2,3
 912 296 912 296 860 275 c 128,-1,4
 808 254 808 254 758 229 c 0,5,6
 704 204 704 204 704 164 c 3,7,8
 704 104 704 104 732 90 c 0,9,10
 768 72 768 72 794 72 c 19,11,12
 824 72 824 72 856 101 c 0,13,14
 884 126 884 126 884 176 c 0,15,16
 884 190 884 190 898 197 c 0,17,18
 912 202 912 202 928 202 c 3,19,20
 972 202 972 202 972 162 c 0,21,22
 972 74 972 74 880 22 c 0,23,24
 842 0 842 0 788 0 c 3,25,26
 748 0 748 0 708 15 c 0,27,28
 668 32 668 32 641 65 c 128,-1,29
 614 98 614 98 614 148 c 3,30,31
 614 216 614 216 653 251 c 0,32,33
 688 282 688 282 732 308 c 128,-1,34
 776 334 776 334 826 356 c 0,35,36
 876 376 876 376 918 408 c 0,37,38
 1012 480 1012 480 1012 592 c 3,39,40
 1012 668 1012 668 934 704 c 0,41,42
 882 728 882 728 846 728 c 0,43,44
 828 728 828 728 812 724 c 0,45,46
 748 712 748 712 686 662 c 0,47,48
 608 600 608 600 600 532 c 0,49,50
 598 516 598 516 578 516 c 24,51,52
 564 516 564 516 550 516 c 0,53,54
 516 516 516 516 504 536 c 0,55,56
 502 540 502 540 502 550 c 2,57,-1
 502 564 l 2,58,59
 502 616 502 616 474 651 c 0,60,61
 444 686 444 686 404 702 c 0,62,63
 366 716 366 716 332 716 c 3,64,65
 280 716 280 716 236 684 c 1,66,67
 308 684 308 684 362 646 c 128,-1,68
 416 608 416 608 416 532 c 3,69,70
 416 424 416 424 324 376 c 0,71,72
 278 352 278 352 232 352 c 3,73,74
 192 352 192 352 152 370 c 0,75,76
 50 416 50 416 50 534 c 131,-1,77
 50 652 50 652 113 722 c 0,78,79
 180 795 180 795 262 808 c 0,80,81
 300 814 300 814 320 814 c 4,82,83
 398 814 398 814 434 792 c 24,84,85
 531 740 531 740 568 678 c 1,86,87
 630 760 630 760 724 792 c 0,88,89
 768 808 768 808 872 818 c 4,90,91
 892 820 892 820 916 816 c 0,92,93
 1012 804 1012 804 1086 748 c 0,94,95
 1172 682 1172 682 1172 574 c 3,0,1
172 532 m 3,96,97
 172 482 172 482 195 458 c 0,98,99
 218 433 218 433 244 433 c 131,-1,100
 270 433 270 433 293 455 c 0,101,102
 316 478 316 478 316 530 c 3,103,104
 316 568 316 568 289 584 c 0,105,106
 264 599 264 599 236 599 c 131,-1,107
 208 599 208 599 190 580 c 0,108,109
 172 562 172 562 172 532 c 3,96,97
EndSplineSet
LCarets2: 2 0 0
Ligature2: "'akhn' Akhanda subtable" u1132E u1134D u1132E
EndChar

StartChar: uE105
Encoding: 57605 57605 22
Width: 1108
Flags: MW
AnchorPoint: "high" 554 808 basechar 0
AnchorPoint: "low" 554 -402 basechar 0
LayerCount: 2
Fore
SplineSet
850 -182 m 0,0,1
 850 -320 850 -320 768 -320 c 0,2,3
 668 -320 668 -320 640 -236 c 0,4,5
 636 -224 636 -224 642 -178 c 0,6,7
 650 -124 650 -124 674 -108 c 26,8,-1
 960 88 l 2,9,10
 998 114 998 114 1000 294 c 4,11,12
 1000 396 1000 396 864 454 c 0,13,14
 786 488 786 488 728 488 c 2,15,-1
 684 488 l 2,16,17
 652 488 652 488 594 464 c 1,18,-1
 594 716 l 1,19,-1
 758 716 l 2,20,21
 780 716 780 716 793 730 c 128,-1,22
 806 744 806 744 806 761 c 128,-1,23
 806 778 806 778 794 793 c 128,-1,24
 782 808 782 808 758 808 c 2,25,-1
 184 808 l 6,26,27
 154 808 154 808 144 790 c 1,28,29
 108 782 108 782 108 760 c 2,30,-1
 108 62 l 2,31,32
 108 40 108 40 128 20 c 128,-1,33
 148 0 148 0 177 0 c 128,-1,34
 206 0 206 0 226 12 c 128,-1,35
 246 24 246 24 246 62 c 2,36,-1
 246 716 l 1,37,-1
 428 716 l 1,38,-1
 428 142 l 2,39,40
 428 80 428 80 457 40 c 128,-1,41
 486 0 486 0 513 0 c 128,-1,42
 540 0 540 0 566 37 c 128,-1,43
 592 74 592 74 592 148 c 2,44,-1
 592 332 l 1,45,46
 638 408 638 408 712 408 c 0,47,48
 728 408 728 408 744 402 c 0,49,50
 838 366 838 366 832 218 c 0,51,52
 830 182 830 182 824 176 c 2,53,-1
 636 -16 l 2,54,55
 560 -94 560 -94 554 -106 c 0,56,57
 522 -170 522 -170 522 -207 c 0,58,59
 522 -302 522 -302 612 -352 c 0,60,61
 682 -390 682 -390 726 -398 c 4,62,63
 788 -408 788 -408 836 -394 c 132,-1,64
 884 -380 884 -380 916 -313 c 128,-1,65
 948 -246 948 -246 948 -198 c 0,66,67
 948 -110 948 -110 884 -110 c 0,68,69
 850 -110 850 -110 850 -182 c 0,0,1
EndSplineSet
LCarets2: 2 0 0
Ligature2: "'akhn' Akhanda subtable" u11328 u1134D u1132E
EndChar

StartChar: uE106
Encoding: 57606 57606 23
Width: 1310
Flags: MW
AnchorPoint: "high" 614 814 basechar 0
AnchorPoint: "low" 614 0 basechar 0
LayerCount: 2
Fore
SplineSet
432 710 m 1,0,1
 520 678 520 678 520 602 c 3,2,3
 520 524 520 524 440 488 c 0,4,5
 406 470 406 470 358 470 c 3,6,7
 320 470 320 470 284 480 c 0,8,9
 222 498 222 498 188 582 c 0,10,11
 182 592 182 592 182 604 c 3,12,13
 182 656 182 656 222 707 c 0,14,15
 262 752 262 752 324 776 c 128,-1,16
 386 800 386 800 458 802 c 0,17,18
 536 802 536 802 596 778 c 0,19,20
 660 752 660 752 706 691 c 0,21,22
 762 631 762 631 762 534 c 3,23,24
 762 398 762 398 644 320 c 1,25,26
 710 282 710 282 710 220 c 3,27,28
 710 156 710 156 628 98 c 1,29,-1
 1020 98 l 1,30,-1
 1020 782 l 2,31,32
 1020 814 1020 814 1090 814 c 3,33,34
 1116 814 1116 814 1138 805 c 128,-1,35
 1160 796 1160 796 1160 782 c 2,36,-1
 1160 70 l 1,37,38
 1172 48 1172 48 1155 24 c 128,-1,39
 1138 0 1138 0 1096 0 c 2,40,-1
 96 0 l 2,41,42
 78 0 78 0 68 15 c 128,-1,43
 58 30 58 30 58 49 c 131,-1,44
 58 68 58 68 68 83 c 128,-1,45
 78 98 78 98 96 98 c 2,46,-1
 172 98 l 2,47,48
 512 100 512 100 596 164 c 0,49,50
 628 188 628 188 606 213 c 0,51,52
 584 246 584 246 528 246 c 2,53,-1
 242 246 l 2,54,55
 200 246 200 246 200 290 c 3,56,57
 200 342 200 342 242 342 c 3,58,59
 504 342 504 342 596 450 c 0,60,61
 628 486 628 486 626 534 c 0,62,63
 626 628 626 628 560 676 c 0,64,65
 512 710 512 710 448 710 c 0,66,67
 440 710 440 710 432 710 c 1,0,1
321 642 m 128,-1,69
 306 628 306 628 306 601 c 131,-1,70
 306 574 306 574 321 560 c 128,-1,71
 336 546 336 546 355 546 c 131,-1,72
 374 546 374 546 390 560 c 128,-1,73
 406 574 406 574 406 601 c 131,-1,74
 406 628 406 628 390 642 c 128,-1,75
 374 656 374 656 355 656 c 131,-1,68
 336 656 336 656 321 642 c 128,-1,69
EndSplineSet
LCarets2: 2 0 0
Ligature2: "'akhn' Akhanda subtable" u11326 u1134D u11335
EndChar

StartChar: uE107
Encoding: 57607 57607 24
Width: 1834
Flags: MW
AnchorPoint: "high" 896 822 basechar 0
AnchorPoint: "low" 898 0 basechar 0
LayerCount: 2
Fore
SplineSet
1284 0 m 2,0,1
 1256 0 1256 0 1240 38 c 0,2,3
 1226 74 1226 74 1252 84 c 0,4,5
 1306 102 1306 102 1324 168 c 0,6,7
 1332 196 1332 196 1332 226 c 3,8,9
 1332 264 1332 264 1320 304 c 0,10,11
 1300 372 1300 372 1250 424 c 0,12,13
 1206 472 1206 472 1140 472 c 3,14,15
 1100 472 1100 472 1050 448 c 1,16,17
 1134 388 1134 388 1174 312 c 0,18,19
 1208 246 1208 246 1208 186 c 2,20,-1
 1208 168 l 2,21,22
 1208 106 1208 106 1151 51 c 0,23,24
 1098 0 1098 0 1005 -0 c 0,25,26
 918 0 918 0 876 48 c 0,27,28
 834 98 834 98 831 143 c 128,-1,29
 828 188 828 188 828 230 c 3,30,31
 828 264 828 264 836 304 c 0,32,33
 848 384 848 384 892 446 c 1,34,35
 794 482 794 482 688 482 c 0,36,37
 670 482 670 482 650 480 c 1,38,39
 656 346 656 346 656 330 c 3,40,41
 656 236 656 236 644 185 c 0,42,43
 626 108 626 108 618 92 c 0,44,45
 572 0 572 0 460 0 c 3,46,47
 278 0 278 0 174 116 c 0,48,49
 94 208 94 208 94 304 c 3,50,51
 94 330 94 330 100 356 c 0,52,53
 112 418 112 418 157 473 c 128,-1,54
 202 528 202 528 284 562 c 1,55,-1
 284 776 l 2,56,57
 284 822 284 822 322 822 c 2,58,-1
 802 822 l 2,59,60
 822 822 822 822 834 807 c 128,-1,61
 846 792 846 792 846 774 c 259,62,63
 846 756 846 756 834 742 c 128,-1,64
 822 728 822 728 802 728 c 2,65,-1
 650 728 l 1,66,-1
 650 574 l 1,67,68
 824 566 824 566 954 506 c 1,69,70
 1018 552 1018 552 1122 552 c 3,71,72
 1228 552 1228 552 1295 503 c 128,-1,73
 1362 454 1362 454 1394 384 c 0,74,75
 1426 316 1426 316 1426 240 c 3,76,77
 1426 158 1426 158 1396 96 c 1,78,-1
 1568 96 l 1,79,-1
 1568 772 l 2,80,81
 1568 790 1568 790 1589 801 c 0,82,83
 1610 814 1610 814 1635 813 c 0,84,85
 1660 814 1660 814 1681 804 c 128,-1,86
 1702 794 1702 794 1702 776 c 2,87,-1
 1702 36 l 2,88,89
 1702 0 1702 0 1662 0 c 0,90,-1
 1284 0 l 2,0,1
462 98 m 2,91,92
 534 98 534 98 534 284 c 3,93,94
 534 318 534 318 532 358 c 0,95,96
 524 472 524 472 524 476 c 1,97,-1
 336 476 l 1,98,99
 244 442 244 442 212 376 c 0,100,101
 194 336 194 336 194 298 c 3,102,103
 194 272 194 272 204 244 c 0,104,105
 224 180 224 180 288 136 c 0,106,107
 340 98 340 98 418 98 c 2,108,-1
 462 98 l 2,91,92
1086 114 m 0,109,110
 1110 141 1110 141 1110 184 c 3,111,112
 1110 238 1110 238 1076 298 c 0,113,114
 1044 354 1044 354 980 400 c 1,115,116
 924 332 924 332 924 228 c 2,117,-1
 924 212 l 2,118,119
 923 78 923 78 1004 78 c 0,120,121
 1052 78 1052 78 1086 114 c 0,109,110
386 728 m 1,122,-1
 386 576 l 1,123,-1
 524 576 l 1,124,-1
 524 728 l 1,125,-1
 386 728 l 1,122,-1
EndSplineSet
LCarets2: 2 0 0
Ligature2: "'akhn' Akhanda subtable" u11324 u1134D u11335
EndChar

StartChar: uE108
Encoding: 57608 57608 25
Width: 1544
Flags: MW
AnchorPoint: "high" 672 822 basechar 0
AnchorPoint: "low" 730 0 basechar 0
LayerCount: 2
Fore
SplineSet
984 742 m 3,0,1
 938 742 938 742 948 778 c 0,2,3
 952 792 952 792 965 804 c 128,-1,4
 978 816 978 816 1000 816 c 3,5,6
 1136 816 1136 816 1274 648 c 24,7,8
 1422 468 1422 468 1422 284 c 3,9,10
 1422 162 1422 162 1296 66 c 0,11,12
 1212 0 1212 0 1072 0 c 3,13,14
 886 0 886 0 794 130 c 1,15,16
 698 0 698 0 528 0 c 3,17,18
 404 0 404 0 318 72 c 0,19,20
 230 148 230 148 230 268 c 3,21,22
 230 294 230 294 234 322 c 1,23,-1
 78 322 l 2,24,25
 58 322 58 322 47 334 c 128,-1,26
 36 346 36 346 36 359 c 131,-1,27
 36 372 36 372 47 385 c 128,-1,28
 58 398 58 398 78 398 c 2,29,-1
 222 398 l 2,30,31
 484 398 484 398 540 482 c 0,32,33
 598 566 598 566 547 658 c 0,34,35
 520 708 520 708 480 726 c 0,36,37
 458 736 458 736 438 736 c 3,38,39
 420 736 420 736 400 728 c 0,40,41
 356 712 356 712 324 668 c 1,42,43
 346 672 346 672 364 672 c 0,44,45
 404 672 404 672 440 656 c 0,46,47
 484 638 484 638 484 602 c 2,48,-1
 484 598 l 2,49,50
 484 542 484 542 439 509 c 0,51,52
 382 470 382 470 284 458 c 0,53,54
 266 456 266 456 230 464 c 0,55,56
 164 478 164 478 164 532 c 3,57,58
 164 668 164 668 250 748 c 0,59,60
 334 824 334 824 442 824 c 7,61,62
 556 824 556 824 630 752 c 0,63,64
 710 674 710 674 710 540 c 3,65,66
 710 500 710 500 686 464 c 128,-1,67
 662 428 662 428 606 398 c 1,68,-1
 922 398 l 2,69,70
 942 398 942 398 952 385 c 0,71,72
 960 372 960 372 961 359 c 0,73,74
 960 346 960 346 949 334 c 128,-1,75
 938 322 938 322 918 322 c 2,76,-1
 342 322 l 1,77,78
 332 286 332 286 332 256 c 3,79,80
 332 184 332 184 383 133 c 128,-1,81
 434 82 434 82 504 82 c 0,82,83
 532 82 532 82 562 88 c 0,84,85
 678 118 678 118 740 256 c 1,86,-1
 850 256 l 1,87,88
 920 132 920 132 972 102 c 0,89,90
 1018 76 1018 76 1066 76 c 3,91,92
 1084 76 1084 76 1100 80 c 0,93,94
 1156 92 1156 92 1214 149 c 0,95,96
 1276 210 1276 210 1276 284 c 3,97,98
 1276 446 1276 446 1205 579 c 0,99,100
 1118 742 1118 742 984 742 c 3,0,1
286 580 m 0,101,102
 282 570 282 570 281 560 c 0,103,104
 275 522 275 522 333 527 c 0,105,106
 377 531 377 531 376 592 c 24,107,108
 376 620 376 620 336 620 c 2,109,-1
 334 620 l 2,110,111
 302 620 302 620 286 580 c 0,101,102
EndSplineSet
LCarets2: 2 0 0
Ligature2: "'akhn' Akhanda subtable" u11326 u1134D u11327
EndChar

StartChar: uE109
Encoding: 57609 57609 26
Width: 2048
Flags: MW
AnchorPoint: "high" 1016 816 basechar 0
AnchorPoint: "low" 1014 -584 basechar 0
LayerCount: 2
Fore
SplineSet
574 348 m 2,0,1
 1160 348 1160 348 1160 552 c 3,2,3
 1160 586 1160 586 1128 624 c 0,4,5
 1098 658 1098 658 1056 676 c 0,6,7
 1012 696 1012 696 964 696 c 3,8,9
 914 696 914 696 876 676 c 0,10,11
 788 630 788 630 788 500 c 2,12,-1
 788 480 l 2,13,14
 788 452 788 452 740 452 c 2,15,-1
 724 452 l 2,16,17
 704 452 704 452 681 464 c 0,18,19
 662 474 662 474 662 488 c 3,20,21
 662 580 662 580 620 639 c 0,22,23
 580 698 580 698 520 724 c 0,24,25
 474 744 474 744 428 744 c 3,26,27
 414 744 414 744 398 742 c 0,28,29
 336 734 336 734 292 688 c 1,30,31
 358 684 358 684 396 652 c 0,32,33
 462 596 462 596 462 526 c 3,34,35
 462 430 462 430 368 408 c 0,36,37
 326 398 326 398 302 398 c 3,38,39
 256 398 256 398 206 416 c 0,40,41
 96 454 96 454 96 532 c 3,42,43
 96 688 96 688 222 764 c 0,44,45
 300 810 300 810 398 810 c 3,46,47
 442 810 442 810 490 800 c 0,48,49
 642 770 642 770 728 660 c 1,50,51
 786 786 786 786 936 808 c 0,52,53
 980 814 980 814 994 814 c 7,54,55
 1086 814 1086 814 1188 752 c 0,56,57
 1314 676 1314 676 1314 544 c 3,58,59
 1314 374 1314 374 944 300 c 0,60,61
 748 260 748 260 650 260 c 2,62,63
 650 260 650 260 566 260 c 2,64,65
 410 260 410 260 318 192 c 0,66,67
 252 142 252 142 252 115 c 3,68,69
 252 92 252 92 302 58 c 0,70,71
 378 8 378 8 438 8 c 3,72,73
 576 8 576 8 708 110 c 0,74,-1
 752 144 l 1,75,76
 884 266 884 266 1036 266 c 3,77,78
 1172 266 1172 266 1286 172 c 1,79,-1
 1286 268 l 1,80,-1
 1718 268 l 2,81,82
 1756 268 1756 268 1775 255 c 0,83,84
 1792 242 1792 242 1793 224 c 0,85,86
 1792 206 1792 206 1770 193 c 128,-1,87
 1748 180 1748 180 1706 180 c 2,88,-1
 1620 180 l 1,89,-1
 1620 30 l 1,90,91
 1736 20 1736 20 1809 -29 c 0,92,93
 1884 -80 1884 -80 1912 -148 c 0,94,95
 1930 -192 1930 -192 1930 -238 c 3,96,97
 1930 -264 1930 -264 1924 -292 c 0,98,99
 1908 -368 1908 -368 1849 -433 c 128,-1,100
 1790 -498 1790 -498 1688 -541 c 128,-1,101
 1586 -584 1586 -584 1440 -584 c 2,102,-1
 1436 -584 l 2,103,104
 1220 -584 1220 -584 1064 -504 c 0,105,106
 884 -412 884 -412 882 -248 c 0,107,108
 882 -242 882 -242 882 -236 c 3,109,110
 882 -222 882 -222 893 -214 c 0,111,112
 904 -208 904 -208 916 -208 c 3,113,114
 948 -208 948 -208 948 -238 c 3,115,116
 948 -332 948 -332 1006 -386 c 128,-1,117
 1064 -440 1064 -440 1144 -468 c 0,118,119
 1264 -510 1264 -510 1401 -510 c 131,-1,120
 1538 -510 1538 -510 1613 -481 c 128,-1,121
 1688 -452 1688 -452 1734 -407 c 0,122,123
 1780 -364 1780 -364 1796 -308 c 0,124,125
 1804 -278 1804 -278 1804 -250 c 3,126,127
 1804 -226 1804 -226 1798 -202 c 0,128,129
 1784 -152 1784 -152 1740 -112 c 128,-1,130
 1696 -72 1696 -72 1620 -56 c 1,131,-1
 1620 -96 l 2,132,133
 1620 -200 1620 -200 1604 -252 c 0,134,135
 1568 -376 1568 -376 1448 -376 c 2,136,-1
 1442 -376 l 2,137,138
 1264 -376 1264 -376 1184 -288 c 0,139,140
 1130 -228 1130 -228 1130 -166 c 3,141,142
 1130 -140 1130 -140 1140 -112 c 0,143,144
 1174 -6 1174 -6 1286 28 c 1,145,146
 1276 62 1276 62 1232 106 c 0,147,148
 1192 148 1192 148 1136 172 c 0,149,150
 1068 202 1068 202 1006 202 c 3,151,152
 950 202 950 202 898 176 c 1,153,154
 970 168 970 168 1004 120 c 0,155,156
 1036 76 1036 76 1036 26 c 3,157,158
 1036 -34 1036 -34 992 -82 c 0,159,160
 952 -126 952 -126 876 -126 c 131,-1,161
 800 -126 800 -126 761 -88 c 128,-1,162
 722 -50 722 -50 712 0 c 1,163,164
 596 -72 596 -72 438 -72 c 3,165,166
 258 -72 258 -72 168 12 c 0,167,168
 134 44 134 44 120 96 c 0,169,170
 118 104 118 104 118 114 c 3,171,172
 118 152 118 152 144 188 c 0,173,174
 216 286 216 286 468 338 c 0,175,176
 516 348 516 348 550 348 c 2,177,-1
 574 348 l 2,0,1
1448 -280 m 3,178,179
 1502 -280 1502 -280 1502 -202 c 0,180,181
 1498 -174 1498 -174 1498 -144 c 24,182,-1
 1498 -38 l 1,183,-1
 1332 -38 l 2,184,185
 1264 -38 1264 -38 1232 -92 c 0,186,187
 1210 -128 1210 -128 1210 -152 c 3,188,189
 1210 -164 1210 -164 1214 -176 c 0,190,191
 1226 -218 1226 -218 1284 -249 c 128,-1,192
 1342 -280 1342 -280 1448 -280 c 3,178,179
940 73 m 128,-1,194
 918 98 918 98 880 98 c 3,195,196
 841 98 841 98 814 80 c 0,197,198
 808 76 808 76 790 60 c 1,199,200
 778 40 778 40 778 20 c 3,201,202
 778 2 778 2 788 -16 c 0,203,204
 808 -56 808 -56 863 -56 c 131,-1,205
 918 -56 918 -56 940 -31 c 128,-1,206
 962 -6 962 -6 962 21 c 131,-1,193
 962 48 962 48 940 73 c 128,-1,194
1498 180 m 1,207,-1
 1376 180 l 1,208,-1
 1376 34 l 1,209,-1
 1498 34 l 1,210,-1
 1498 180 l 1,207,-1
250 530 m 3,211,212
 250 504 250 504 265 488 c 128,-1,213
 280 472 280 472 299 471 c 128,-1,214
 318 470 318 470 337 480 c 0,215,216
 360 494 360 494 360 518 c 2,217,-1
 360 526 l 2,218,219
 360 558 360 558 343 577 c 128,-1,220
 326 596 326 596 304 598 c 128,-1,221
 282 600 282 600 266 582 c 128,-1,222
 250 564 250 564 250 530 c 3,211,212
EndSplineSet
Position2: "Single Position lookup 0-1" dx=0 dy=0 dh=-560 dv=0
LCarets2: 2 0 0
Ligature2: "'akhn' Akhanda subtable" u1131C u1134D u1131E
EndChar

StartChar: uE10A
Encoding: 57610 57610 27
Width: 1718
Flags: MW
AnchorPoint: "high" 854 822 basechar 0
AnchorPoint: "low" 854 0 basechar 0
LayerCount: 2
Fore
SplineSet
920 276 m 0,0,1
 988 276 988 276 988 388 c 0,2,3
 988 420 988 420 980 504 c 1,4,-1
 798 504 l 18,5,6
 738 504 738 504 700 448 c 0,7,8
 684 424 684 424 684 400 c 0,9,10
 684 386 684 386 690 372 c 0,11,12
 706 334 706 334 765 305 c 128,-1,13
 824 276 824 276 920 276 c 0,0,1
1648 62 m 2,14,15
 1648 0 1648 0 1608 0 c 6,16,-1
 196 0 l 6,17,18
 180 0 180 0 171 13 c 128,-1,19
 162 26 162 26 162 42 c 128,-1,20
 162 58 162 58 171 71 c 128,-1,21
 180 84 180 84 196 84 c 2,22,-1
 850 84 l 1,23,24
 1282 116 1282 116 1282 332 c 0,25,26
 1282 386 1282 386 1236 434 c 128,-1,27
 1190 482 1190 482 1104 498 c 1,28,-1
 1114 376 l 2,29,30
 1116 344 1116 344 1100 286 c 0,31,32
 1064 166 1064 166 931 166 c 128,-1,33
 798 166 798 166 720 216 c 0,34,35
 604 290 604 290 604 405 c 128,-1,36
 604 520 604 520 730 574 c 1,37,38
 702 638 702 638 637 678 c 128,-1,39
 572 718 572 718 506 718 c 2,40,-1
 484 718 l 1,41,42
 318 708 318 708 242 594 c 1,43,44
 258 596 258 596 272 596 c 0,45,46
 344 596 344 596 402 562 c 0,47,48
 480 516 480 516 480 439 c 128,-1,49
 480 362 480 362 417 320 c 128,-1,50
 354 278 354 278 293 278 c 0,51,52
 184 278 184 278 123 321 c 128,-1,53
 62 364 62 364 62 440 c 0,54,55
 62 646 62 646 216 722 c 1,56,57
 334 792 334 792 454 792 c 0,58,59
 660 792 660 792 748 696 c 1,60,-1
 748 822 l 1,61,-1
 1230 822 l 2,62,63
 1252 822 1252 822 1263 809 c 128,-1,64
 1274 796 1274 796 1274 782 c 128,-1,65
 1274 768 1274 768 1263 756 c 128,-1,66
 1252 744 1252 744 1230 744 c 2,67,-1
 1104 744 l 1,68,-1
 1104 590 l 1,69,70
 1232 570 1232 570 1318 494 c 128,-1,71
 1404 418 1404 418 1404 332 c 0,72,73
 1404 154 1404 154 1204 84 c 1,74,-1
 1528 84 l 1,75,-1
 1528 782 l 2,76,77
 1528 802 1528 802 1546 814 c 0,78,79
 1564 828 1564 828 1588 827 c 0,80,81
 1648 828 1648 828 1648 786 c 2,82,-1
 1648 62 l 2,14,15
380 432 m 1,83,-1
 380 438 l 1,84,85
 378 482 378 482 348 502 c 0,86,87
 320 520 320 520 280 520 c 0,88,89
 244 520 244 520 214 496 c 0,90,91
 184 474 184 474 184 435 c 128,-1,92
 184 396 184 396 214 374 c 0,93,94
 244 350 244 350 280 350 c 0,95,96
 318 350 318 350 348 370 c 128,-1,97
 378 390 378 390 380 432 c 1,83,-1
846 744 m 1,98,-1
 846 594 l 1,99,-1
 980 594 l 1,100,-1
 980 744 l 1,101,-1
 846 744 l 1,98,-1
EndSplineSet
LCarets2: 2 0 0
Ligature2: "'akhn' Akhanda subtable" u1131E u1134D u1131A
EndChar

StartChar: uE10B
Encoding: 57611 57611 28
Width: 1536
Flags: MW
AnchorPoint: "high" 756 826 basechar 0
AnchorPoint: "low" 756 -410 basechar 0
LayerCount: 2
Fore
SplineSet
216 488 m 128,-1,1
 188 464 188 464 188 414 c 131,-1,2
 188 364 188 364 216 340 c 128,-1,3
 244 316 244 316 276 316 c 131,-1,4
 308 316 308 316 336 340 c 128,-1,5
 364 364 364 364 364 412 c 3,6,7
 364 464 364 464 337 488 c 128,-1,8
 310 512 310 512 277 512 c 131,-1,0
 244 512 244 512 216 488 c 128,-1,1
1256 294 m 3,9,10
 1256 362 1256 362 1231 404 c 128,-1,11
 1206 446 1206 446 1170 460 c 0,12,13
 1154 466 1154 466 1138 466 c 3,14,15
 1118 466 1118 466 1096 456 c 0,16,17
 1058 440 1058 440 1032 390 c 1,18,-1
 1032 354 l 2,19,20
 1032 332 1032 332 1009 321 c 128,-1,21
 986 310 986 310 957 310 c 131,-1,22
 928 310 928 310 904 321 c 128,-1,23
 880 332 880 332 880 354 c 2,24,-1
 880 730 l 1,25,-1
 714 730 l 1,26,-1
 714 284 l 2,27,28
 714 258 714 258 664 258 c 3,29,30
 594 258 594 258 594 288 c 2,31,-1
 594 344 l 2,32,33
 594 546 594 546 480 660 c 0,34,35
 432 708 432 708 378 724 c 0,36,37
 348 734 348 734 318 732 c 0,38,39
 294 732 294 732 274 726 c 0,40,41
 226 712 226 712 193 669 c 128,-1,42
 160 626 160 626 158 558 c 1,43,44
 206 586 206 586 270 586 c 3,45,46
 318 586 318 586 368 568 c 0,47,48
 418 548 418 548 453 508 c 128,-1,49
 488 468 488 468 488 412 c 3,50,51
 488 308 488 308 380 264 c 0,52,53
 328 242 328 242 276 242 c 3,54,55
 228 242 228 242 180 258 c 0,56,57
 130 274 130 274 100 313 c 128,-1,58
 70 352 70 352 60 412 c 0,59,60
 52 451 52 451 52 514 c 3,61,62
 52 662 52 662 124 744 c 0,63,64
 190 820 190 820 292 820 c 3,65,66
 320 820 320 820 352 814 c 0,67,68
 490 788 490 788 594 672 c 1,69,-1
 594 784 l 2,70,71
 594 802 594 802 618 808 c 1,72,73
 632 826 632 826 654 826 c 2,74,-1
 1188 826 l 6,75,76
 1206 826 1206 826 1216 810 c 132,-1,77
 1226 794 1226 794 1226 777 c 135,-1,78
 1226 760 1226 760 1216 745 c 132,-1,79
 1206 730 1206 730 1188 730 c 6,80,-1
 1032 730 l 1,81,-1
 1032 522 l 1,82,83
 1090 548 1090 548 1148 548 c 3,84,85
 1216 548 1216 548 1280 516 c 0,86,87
 1336 488 1336 488 1373 431 c 128,-1,88
 1410 374 1410 374 1410 294 c 3,89,90
 1410 202 1410 202 1256 126 c 0,91,92
 1014 4 1014 4 648 4 c 3,93,94
 524 4 524 4 364 -90 c 0,95,96
 266 -148 266 -148 266 -200 c 3,97,98
 266 -238 266 -238 322 -264 c 0,99,100
 382 -292 382 -292 514 -292 c 3,101,102
 644 -292 644 -292 784 -188 c 0,103,104
 846 -142 846 -142 850 -136 c 0,105,106
 1000 -6 1000 -6 1166 -6 c 3,107,108
 1204 -6 1204 -6 1240 -12 c 0,109,110
 1368 -32 1368 -32 1432 -116 c 0,111,112
 1464 -156 1464 -156 1464 -210 c 3,113,114
 1464 -272 1464 -272 1400 -321 c 128,-1,115
 1336 -370 1336 -370 1278 -388 c 0,116,117
 1210 -410 1210 -410 1144 -410 c 3,118,119
 1028 -410 1028 -410 1000 -377 c 0,120,121
 988 -362 988 -362 988 -346 c 131,-1,122
 988 -330 988 -330 1003 -316 c 0,123,124
 1026 -294 1026 -294 1048 -302 c 24,125,126
 1130 -330 1130 -330 1152 -330 c 3,127,128
 1188 -330 1188 -330 1224 -316 c 0,129,130
 1302 -288 1302 -288 1324 -206 c 24,131,132
 1330 -184 1330 -184 1306 -150 c 128,-1,133
 1282 -116 1282 -116 1244 -104 c 0,134,135
 1214 -94 1214 -94 1182 -94 c 3,136,137
 1116 -94 1116 -94 996 -158 c 2,138,-1
 936 -190 l 1,139,140
 892 -226 892 -226 847 -265 c 128,-1,141
 802 -304 802 -304 752 -336 c 0,142,143
 634 -410 634 -410 520 -410 c 2,144,-1
 488 -410 l 2,145,146
 386 -410 386 -410 320 -388 c 0,147,148
 236 -360 236 -360 190 -312 c 0,149,150
 140 -260 140 -260 140 -200 c 3,151,152
 140 -148 140 -148 180 -92 c 0,153,154
 304 80 304 80 668 80 c 3,155,156
 1040 80 1040 80 1204 220 c 0,157,158
 1256 264 1256 264 1256 294 c 3,9,10
EndSplineSet
LCarets2: 2 0 0
Ligature2: "'akhn' Akhanda subtable" u1131E u1134D u1131C
EndChar

StartChar: uE10C
Encoding: 57612 57612 29
Width: 2100
Flags: MW
AnchorPoint: "high" 1030 804 basechar 0
AnchorPoint: "low" 1030 -238 basechar 0
LayerCount: 2
Fore
SplineSet
822 244 m 0,0,1
 822 158 822 158 854 131 c 0,2,3
 884 105 884 105 905 105 c 131,-1,4
 926 105 926 105 938 142 c 0,5,6
 950 180 950 180 950 194 c 2,7,-1
 950 228 l 2,8,9
 950 260 950 260 944 292 c 0,10,11
 922 408 922 408 880 408 c 0,12,13
 822 408 822 408 822 244 c 0,0,1
324 412 m 1,14,15
 146 329 146 329 146 214 c 2,16,-1
 146 200 l 2,17,18
 146 152 146 152 186 123 c 128,-1,19
 226 94 226 94 265 94 c 128,-1,20
 304 94 304 94 324 126 c 128,-1,21
 344 158 344 158 344 193 c 128,-1,22
 344 228 344 228 340 260 c 1,23,-1
 340 296 l 2,24,25
 340 322 340 322 392 322 c 128,-1,26
 444 322 444 322 450 304 c 0,27,28
 482 160 482 160 497 136 c 128,-1,29
 512 112 512 112 529 112 c 128,-1,30
 546 112 546 112 546 182 c 2,31,-1
 546 206 l 1,32,33
 544 298 544 298 538 342 c 26,34,-1
 530 412 l 1,35,-1
 324 412 l 1,14,15
366 712 m 1,36,-1
 366 502 l 1,37,-1
 530 502 l 1,38,-1
 530 712 l 1,39,-1
 366 712 l 1,36,-1
1568 704 m 128,-1,41
 1532 704 1532 704 1504 671 c 128,-1,42
 1476 638 1476 638 1476 583 c 128,-1,43
 1476 528 1476 528 1528 501 c 128,-1,44
 1580 474 1580 474 1648 472 c 1,45,-1
 1648 570 l 2,46,47
 1648 636 1648 636 1626 670 c 128,-1,40
 1604 704 1604 704 1568 704 c 128,-1,41
1862 422 m 1,48,-1
 1798 408 l 1,49,-1
 1798 90 l 1,50,-1
 1862 90 l 1,51,-1
 1862 422 l 1,48,-1
1160 0 m 2,52,53
 1074 0 1074 0 1074 52 c 0,54,55
 1074 72 1074 72 1098 86 c 0,56,57
 1162 118 1162 118 1191 163 c 128,-1,58
 1220 208 1220 208 1220 234 c 128,-1,59
 1220 260 1220 260 1218 268 c 0,60,61
 1210 316 1210 316 1156 355 c 128,-1,62
 1102 394 1102 394 992 406 c 1,63,64
 1022 334 1022 334 1022 273 c 0,65,66
 1022 52 1022 52 936 8 c 0,67,68
 920 0 920 0 902 0 c 0,69,70
 844 0 844 0 796 72 c 0,71,72
 742 156 742 156 741 246 c 0,73,74
 740 304 740 304 772 412 c 1,75,-1
 674 412 l 1,76,-1
 674 300 l 2,77,78
 674 206 674 206 649 133 c 128,-1,79
 624 60 624 60 590 30 c 128,-1,80
 556 0 556 0 522 0 c 0,81,82
 456 0 456 0 408 104 c 1,83,84
 376 24 376 24 320 8 c 0,85,86
 292 0 292 0 265 0 c 0,87,88
 180 0 180 0 104 86 c 0,89,90
 48 150 48 150 48 208 c 2,91,-1
 48 230 l 2,92,93
 48 380 48 380 244 482 c 1,94,-1
 244 752 l 1,95,-1
 252 770 l 2,96,97
 268 804 268 804 304 804 c 2,98,-1
 810 804 l 2,99,100
 838 804 838 804 850 788 c 128,-1,101
 862 772 862 772 862 756 c 128,-1,102
 862 740 862 740 846 726 c 128,-1,103
 830 712 830 712 808 712 c 2,104,-1
 674 712 l 1,105,-1
 674 502 l 1,106,-1
 900 502 l 2,107,108
 1044 502 1044 502 1147 452 c 128,-1,109
 1250 402 1250 402 1276 348 c 0,110,111
 1314 272 1314 272 1314 234 c 0,112,113
 1314 158 1314 158 1264 90 c 1,114,-1
 1648 90 l 1,115,-1
 1648 396 l 1,116,117
 1460 402 1460 402 1388 498 c 0,118,119
 1364 530 1364 530 1364 588 c 128,-1,120
 1364 646 1364 646 1396 697 c 0,121,122
 1466 810 1466 810 1580 810 c 0,123,124
 1636 810 1636 810 1678 788 c 0,125,126
 1798 726 1798 726 1798 530 c 2,127,-1
 1798 492 l 1,128,129
 1826 502 1826 502 1862 526 c 1,130,131
 1868 580 1868 580 1940 583 c 0,132,133
 1962 584 1962 584 1987 566 c 0,134,135
 2012 550 2012 550 2012 524 c 2,136,-1
 2012 46 l 2,137,138
 2012 30 2012 30 1992 15 c 128,-1,139
 1972 0 1972 0 1936 0 c 2,140,-1
 1798 0 l 1,141,-1
 1798 -186 l 2,142,143
 1798 -210 1798 -210 1775 -223 c 128,-1,144
 1752 -236 1752 -236 1724 -236 c 128,-1,145
 1696 -236 1696 -236 1672 -223 c 128,-1,146
 1648 -210 1648 -210 1648 -186 c 2,147,-1
 1648 0 l 1,148,-1
 1160 0 l 2,52,53
EndSplineSet
LCarets2: 2 0 0
Ligature2: "'akhn' Akhanda subtable" u11315 u1134D u11337
EndChar

StartChar: uE10D
Encoding: 57613 57613 30
Width: 1306
Flags: MW
AnchorPoint: "high" 676 820 basechar 0
AnchorPoint: "low" 676 -242 basechar 0
LayerCount: 2
Fore
SplineSet
1232 48 m 3,0,1
 1232 0 1232 0 1196 0 c 2,2,-1
 904 0 l 1,3,-1
 904 -194 l 2,4,5
 904 -216 904 -216 881 -229 c 128,-1,6
 858 -242 858 -242 832 -242 c 131,-1,7
 806 -242 806 -242 783 -229 c 128,-1,8
 760 -216 760 -216 760 -194 c 2,9,-1
 760 0 l 1,10,-1
 398 0 l 2,11,12
 356 0 356 0 357 37 c 0,13,14
 358 94 358 94 394 94 c 2,15,-1
 430 94 l 2,16,17
 698 94 698 94 800 230 c 0,18,19
 838 280 838 280 838 350 c 3,20,21
 838 396 838 396 796 428 c 0,22,23
 730 478 730 478 667 478 c 3,24,25
 636 478 636 478 604 464 c 0,26,27
 544 442 544 442 544 372 c 2,28,-1
 544 316 l 2,29,30
 544 290 544 290 519 281 c 0,31,32
 502 274 502 274 469 273 c 0,33,34
 448 272 448 272 421 290 c 0,35,36
 400 304 400 304 400 326 c 2,37,-1
 400 732 l 1,38,-1
 236 732 l 1,39,-1
 236 32 l 2,40,41
 236 0 236 0 180 0 c 128,-1,42
 124 0 124 0 124 32 c 2,43,-1
 124 774 l 2,44,45
 124 794 124 794 150 804 c 1,46,47
 164 822 164 822 186 822 c 2,48,-1
 692 822 l 2,49,50
 712 822 712 822 723 807 c 128,-1,51
 734 792 734 792 734 776 c 128,-1,52
 734 760 734 760 723 746 c 128,-1,53
 712 732 712 732 692 732 c 2,54,-1
 544 732 l 1,55,-1
 544 538 l 1,56,57
 600 560 600 560 668 560 c 2,58,-1
 684 560 l 2,59,60
 750 560 750 560 824 529 c 0,61,62
 888 502 888 502 932 456 c 128,-1,63
 976 410 976 410 976 350 c 3,64,65
 976 192 976 192 822 94 c 1,66,-1
 1196 94 l 2,67,68
 1232 94 1232 94 1232 48 c 3,0,1
EndSplineSet
Position2: "Single Position lookup 0-1" dx=0 dy=0 dh=-320 dv=0
LCarets2: 2 0 0
Ligature2: "'akhn' Akhanda subtable" u11328 u1134D u11326
EndChar

StartChar: uE10E
Encoding: 57614 57614 31
Width: 1964
Flags: MW
AnchorPoint: "high" 978 820 basechar 0
AnchorPoint: "low" 980 -214 basechar 0
LayerCount: 2
Fore
SplineSet
234 485 m 128,-1,1
 208 462 208 462 208 412 c 131,-1,2
 208 362 208 362 234 333 c 128,-1,3
 260 304 260 304 292 300 c 2,4,5
 292 300 292 300 300 300 c 2,6,7
 328 300 328 300 350 324 c 0,8,9
 376 352 376 352 376 407 c 131,-1,10
 376 462 376 462 350 485 c 128,-1,11
 324 508 324 508 292 508 c 131,-1,0
 260 508 260 508 234 485 c 128,-1,1
492 220 m 0,12,13
 490 232 490 232 490 242 c 3,14,15
 490 280 490 280 528 288 c 0,16,17
 546 292 546 292 578 324 c 0,18,19
 636 384 636 384 636 474 c 3,20,21
 636 546 636 546 583 617 c 0,22,23
 542 672 542 672 474 692 c 0,24,25
 454 698 454 698 434 698 c 3,26,27
 392 698 392 698 346 680 c 0,28,29
 280 652 280 652 244 578 c 1,30,31
 268 584 268 584 292 584 c 3,32,33
 350 584 350 584 408 552 c 0,34,35
 488 508 488 508 488 426 c 131,-1,36
 488 344 488 344 458 300 c 0,37,38
 406 226 406 226 314 226 c 2,39,-1
 296 226 l 2,40,41
 200 226 200 226 130 320 c 0,42,43
 96 366 96 366 96 405 c 3,44,45
 96 626 96 626 201 724 c 0,46,47
 302 818 302 818 437 818 c 131,-1,48
 572 818 572 818 672 728 c 0,49,50
 720 686 720 686 752 608 c 128,-1,51
 784 530 784 530 784 448 c 3,52,53
 784 352 784 352 708 288 c 1,54,-1
 1016 288 l 1,55,-1
 1016 624 l 2,56,57
 1016 686 1016 686 1050 733 c 0,58,59
 1086 784 1086 784 1144 802 c 256,60,61
 1182 814 1182 814 1208 814 c 3,62,63
 1236 814 1236 814 1262 804 c 0,64,65
 1320 784 1320 784 1360 724 c 1,66,67
 1448 820 1448 820 1568 820 c 6,68,-1
 1584 820 l 2,69,70
 1700 820 1700 820 1786 732 c 0,71,72
 1862 654 1862 654 1862 490 c 3,73,74
 1862 454 1862 454 1858 416 c 0,75,76
 1846 288 1846 288 1724 198 c 24,77,78
 1532 56 1532 56 1532 -24 c 3,79,80
 1532 -52 1532 -52 1548 -78 c 0,81,82
 1588 -144 1588 -144 1646 -144 c 3,83,84
 1674 -144 1674 -144 1708 -128 c 0,85,86
 1734 -116 1734 -116 1734 -90 c 3,87,88
 1734 -56 1734 -56 1684 2 c 1,89,90
 1684 8 1684 8 1684 14 c 0,91,92
 1684 68 1684 68 1700 74 c 0,93,94
 1716 78 1716 78 1730 78 c 3,95,96
 1774 78 1774 78 1812 32 c 0,97,98
 1844 -6 1844 -6 1844 -46 c 3,99,100
 1844 -70 1844 -70 1832 -92 c 0,101,102
 1790 -178 1790 -178 1688 -206 c 0,103,104
 1658 -214 1658 -214 1626 -214 c 3,105,106
 1554 -214 1554 -214 1480 -174 c 1,107,108
 1412 -124 1412 -124 1412 -58 c 3,109,110
 1412 16 1412 16 1444 56 c 26,111,-1
 1596 248 l 2,112,113
 1700 379 1700 379 1700 424 c 3,114,115
 1700 560 1700 560 1660 631 c 0,116,117
 1617 709 1617 709 1568 720 c 0,118,119
 1550 724 1550 724 1532 724 c 3,120,121
 1497 724 1497 724 1466 704 c 0,122,123
 1408 662 1408 662 1408 554 c 2,124,-1
 1408 240 l 2,125,126
 1408 218 1408 218 1386 205 c 128,-1,127
 1364 192 1364 192 1338 192 c 131,-1,128
 1312 192 1312 192 1288 205 c 128,-1,129
 1264 218 1264 218 1264 240 c 2,130,-1
 1264 526 l 2,131,132
 1264 584 1264 584 1242 620 c 0,133,134
 1212 668 1212 668 1182 668 c 3,135,136
 1161 668 1161 668 1148 654 c 24,137,138
 1130 634 1130 634 1128 608 c 24,139,-1
 1128 236 l 2,140,141
 1128 192 1128 192 1064 192 c 2,142,-1
 514 192 l 0,143,144
 498 192 498 192 492 220 c 0,12,13
EndSplineSet
LCarets2: 2 0 0
Ligature2: "'akhn' Akhanda subtable" u11339 u1134D u1132E
EndChar

StartChar: uE10F
Encoding: 57615 57615 32
Width: 1606
Flags: MW
AnchorPoint: "high" 800 808 basechar 0
AnchorPoint: "low" 800 -306 basechar 0
LayerCount: 2
Fore
SplineSet
1070 408 m 1,0,1
 1074 372 1074 372 1076 286 c 0,2,3
 1076 236 1076 236 1060 184 c 0,4,5
 1040 124 1040 124 1018 98 c 0,6,7
 978 52 978 52 962 40 c 0,8,9
 916 2 916 2 840 0 c 0,10,11
 682 0 682 0 609 43 c 128,-1,12
 536 86 536 86 485 132 c 128,-1,13
 434 178 434 178 420 240 c 0,14,15
 410 280 410 280 410 316 c 131,-1,16
 410 352 410 352 412 364 c 0,17,18
 436 456 436 456 628 508 c 1,19,-1
 628 758 l 2,20,21
 628 808 628 808 674 808 c 2,22,-1
 1216 808 l 2,23,24
 1240 808 1240 808 1254 792 c 128,-1,25
 1268 776 1268 776 1268 756 c 259,26,27
 1268 736 1268 736 1254 721 c 128,-1,28
 1240 706 1240 706 1216 706 c 2,29,-1
 1068 706 l 1,30,-1
 1068 516 l 1,31,-1
 1522 516 l 1,32,-1
 1522 408 l 1,33,-1
 1412 408 l 1,34,-1
 1412 24 l 2,35,36
 1412 -100 1412 -100 1232 -206 c 0,37,38
 1060 -306 1060 -306 876 -306 c 2,39,-1
 854 -306 l 2,40,41
 672 -306 672 -306 416 -178 c 0,42,43
 384 -162 384 -162 160 42 c 0,44,45
 114 84 114 84 88 134 c 0,46,47
 62 182 62 182 88 192 c 0,48,49
 98 196 98 196 108 198 c 0,50,51
 130 198 130 198 160 178 c 1,52,-1
 420 -54 l 1,53,54
 604 -166 604 -166 740 -178 c 0,55,56
 786 -182 786 -182 828 -184 c 0,57,58
 1012 -184 1012 -184 1124 -122 c 0,59,60
 1276 -36 1276 -36 1276 88 c 2,61,-1
 1276 408 l 1,62,-1
 1070 408 l 1,0,1
838 156 m 0,63,64
 926 204 926 204 926 290 c 3,65,66
 926 330 926 330 923 365 c 128,-1,67
 920 400 920 400 920 408 c 1,68,-1
 692 408 l 2,69,70
 582 408 582 408 554 324 c 0,71,72
 550 312 550 312 550 286 c 131,-1,73
 550 260 550 260 568 234 c 0,74,75
 580 216 580 216 632 182 c 0,76,77
 692 142 692 142 724 142 c 3,78,79
 810 142 810 142 838 156 c 0,63,64
752 706 m 1,80,-1
 752 518 l 1,81,-1
 916 518 l 1,82,-1
 916 706 l 1,83,-1
 752 706 l 1,80,-1
EndSplineSet
LCarets2: 1 0
Ligature2: "'vatu' Vattu Variants subtable" u11324 uE205
EndChar

StartChar: uE110
Encoding: 57616 57616 33
Width: 1824
Flags: MW
AnchorPoint: "high" 856 818 basechar 0
AnchorPoint: "low" 846 -356 basechar 0
LayerCount: 2
Fore
SplineSet
996 226 m 2,0,1
 996 166 996 166 1034 136 c 0,2,3
 1066 104 1066 104 1106 104 c 3,4,5
 1138 104 1138 104 1166 128 c 0,6,7
 1204 154 1204 154 1204 202 c 2,8,-1
 1204 722 l 1,9,-1
 996 722 l 1,10,-1
 996 226 l 2,0,1
74 -128 m 0,11,12
 20 -52 20 -52 20 -34 c 0,13,14
 20 -26 20 -26 26 -28 c 2,15,-1
 112 -61 l 2,16,17
 172 -84 172 -84 208 -96 c 0,18,19
 522 -206 522 -206 566 -214 c 0,20,21
 734 -244 734 -244 878 -244 c 3,22,23
 1152 -244 1152 -244 1348 -128 c 0,24,25
 1462 -60 1462 -60 1462 44 c 2,26,-1
 1462 722 l 1,27,-1
 1342 722 l 1,28,-1
 1342 196 l 2,29,30
 1342 66 1342 66 1204 20 c 0,31,32
 1142 0 1142 0 1114 0 c 3,33,34
 1048 0 1048 0 982 44 c 0,35,36
 888 108 888 108 888 244 c 2,37,-1
 888 722 l 1,38,-1
 804 722 l 2,39,40
 736 722 736 722 708 697 c 0,41,42
 682 674 682 674 674 622 c 0,43,44
 672 608 672 608 672 550 c 2,45,-1
 672 268 l 2,46,47
 672 184 672 184 631 121 c 0,48,49
 592 62 592 62 536 32 c 0,50,51
 478 0 478 0 414 0 c 3,52,53
 354 0 354 0 294 30 c 0,54,55
 164 96 164 96 164 260 c 2,56,-1
 164 774 l 2,57,58
 164 790 164 790 178 799 c 128,-1,59
 192 808 192 808 211 808 c 131,-1,60
 230 808 230 808 247 799 c 128,-1,61
 264 790 264 790 264 774 c 2,62,-1
 264 268 l 2,63,64
 264 182 264 182 310 141 c 128,-1,65
 356 100 356 100 412 100 c 131,-1,66
 468 100 468 100 510 140 c 0,67,68
 546 176 546 176 546 246 c 2,69,-1
 546 522 l 2,70,71
 546 618 546 618 564 676 c 0,72,73
 586 744 586 744 641 780 c 0,74,75
 700 818 700 818 810 818 c 2,76,-1
 1710 818 l 2,77,78
 1724 818 1724 818 1743 797 c 128,-1,79
 1762 776 1762 776 1745 748 c 128,-1,80
 1728 720 1728 720 1718 720 c 2,81,-1
 1564 720 l 1,82,-1
 1564 -6 l 2,83,84
 1564 -150 1564 -150 1294 -284 c 0,85,86
 1150 -356 1150 -356 922 -356 c 2,87,-1
 856 -356 l 6,88,89
 644 -356 644 -356 490 -310 c 0,90,91
 314 -258 314 -258 102 -152 c 0,92,93
 86 -144 86 -144 74 -128 c 0,11,12
EndSplineSet
LCarets2: 1 0
Ligature2: "'vatu' Vattu Variants subtable" u11336 uE205
EndChar

StartChar: uE111
Encoding: 57617 57617 34
Width: 1780
Flags: MW
AnchorPoint: "high" 922 820 basechar 0
AnchorPoint: "low" 922 0 basechar 0
LayerCount: 2
Fore
SplineSet
276 32 m 2,0,1
 276 0 276 0 220 0 c 128,-1,2
 164 0 164 0 164 32 c 2,3,-1
 164 772 l 2,4,5
 164 792 164 792 190 802 c 1,6,7
 202 818 202 818 226 820 c 1,8,-1
 732 820 l 2,9,10
 752 820 752 820 763 805 c 128,-1,11
 774 790 774 790 774 774 c 259,12,13
 774 758 774 758 763 744 c 128,-1,14
 752 730 752 730 732 730 c 2,15,-1
 584 730 l 1,16,-1
 584 536 l 1,17,18
 638 556 638 556 702 556 c 2,19,20
 702 556 702 556 724 556 c 2,21,22
 912 556 912 556 974 452 c 24,23,24
 998 412 998 412 998 334 c 3,25,26
 998 282 998 282 982 248 c 24,27,28
 954 190 954 190 954 158 c 3,29,30
 954 114 954 114 976 92 c 0,31,32
 986 82 986 82 1008 82 c 3,33,34
 1012 82 1012 82 1046 86 c 24,35,36
 1072 90 1072 90 1100 108 c 0,37,38
 1180 162 1180 162 1180 240 c 2,39,40
 1180 240 1180 240 1180 252 c 2,41,42
 1180 324 1180 324 1142 362 c 0,43,44
 1136 368 1136 368 1166 393 c 128,-1,45
 1196 418 1196 418 1218 408 c 0,46,47
 1254 388 1254 388 1280 330 c 0,48,49
 1298 288 1298 288 1315 237 c 0,50,51
 1342 154 1342 154 1354 138 c 0,52,53
 1400 86 1400 86 1452 86 c 3,54,55
 1502 86 1502 86 1538 144 c 0,56,57
 1568 190 1568 190 1568 276 c 3,58,59
 1568 326 1568 326 1556 384 c 24,60,61
 1540 464 1540 464 1472 496 c 0,62,63
 1444 510 1444 510 1406 510 c 3,64,65
 1364 510 1364 510 1340 516 c 24,66,67
 1302 526 1302 526 1323 561 c 0,68,69
 1340 590 1340 590 1386 590 c 3,70,71
 1484 590 1484 590 1586 508 c 0,72,73
 1678 434 1678 434 1680 274 c 0,74,75
 1680 254 1680 254 1678 236 c 0,76,77
 1668 154 1668 154 1638 108 c 24,78,79
 1592 36 1592 36 1516 10 c 0,80,81
 1486 0 1486 0 1458 0 c 3,82,83
 1416 0 1416 0 1370 20 c 0,84,85
 1294 52 1294 52 1242 132 c 1,86,87
 1208 76 1208 76 1156 39 c 0,88,89
 1102 0 1102 0 1040 0 c 2,90,-1
 1026 0 l 2,91,92
 936 0 936 0 892 28 c 0,93,94
 844 58 844 58 826 114 c 0,95,96
 820 132 820 132 820 150 c 3,97,98
 820 190 820 190 852 232 c 0,99,100
 880 270 880 270 880 328 c 3,101,102
 880 392 880 392 836 428 c 0,103,104
 796 460 796 460 744 472 c 0,105,106
 728 476 728 476 710 476 c 3,107,108
 682 476 682 476 644 460 c 0,109,110
 584 436 584 436 584 370 c 26,111,-1
 584 244 l 2,112,113
 584 216 584 216 559 209 c 0,114,115
 536 202 536 202 509 201 c 0,116,117
 482 202 482 202 461 218 c 0,118,119
 440 232 440 232 440 254 c 2,120,-1
 440 730 l 1,121,-1
 276 730 l 1,122,-1
 276 32 l 2,0,1
EndSplineSet
Position2: "Single Position lookup 0-1" dx=0 dy=0 dh=-820 dv=0
LCarets2: 2 0 0
Ligature2: "'akhn' Akhanda subtable" u11328 u1134D u11327
EndChar

StartChar: uE112
Encoding: 57618 57618 35
Width: 1318
Flags: MW
AnchorPoint: "high" 656 816 basechar 0
AnchorPoint: "low" 660 0 basechar 0
LayerCount: 2
Fore
SplineSet
170 0 m 128,-1,1
 114 0 114 0 114 32 c 2,2,-1
 114 768 l 2,3,4
 114 788 114 788 140 798 c 1,5,6
 152 814 152 814 176 816 c 1,7,-1
 682 816 l 2,8,9
 702 816 702 816 713 801 c 128,-1,10
 724 786 724 786 724 770 c 131,-1,11
 724 754 724 754 713 740 c 128,-1,12
 702 726 702 726 682 726 c 2,13,-1
 534 726 l 1,14,-1
 534 542 l 1,15,16
 598 564 598 564 660 564 c 3,17,18
 726 564 726 564 807 533 c 0,19,20
 878 506 878 506 921 450 c 128,-1,21
 964 394 964 394 964 334 c 3,22,23
 964 190 964 190 812 98 c 1,24,-1
 1100 98 l 1,25,-1
 1100 516 l 2,26,27
 1100 566 1100 566 1150 566 c 3,28,29
 1206 566 1206 566 1206 524 c 2,30,-1
 1206 0 l 5,31,-1
 388 0 l 6,32,33
 352 0 352 0 350 44 c 0,34,35
 350 98 350 98 384 98 c 2,36,-1
 420 98 l 2,37,38
 682 98 682 98 790 234 c 0,39,40
 824 276 824 276 824 330 c 3,41,42
 824 376 824 376 785 422 c 0,43,44
 746 466 746 466 694 478 c 0,45,46
 678 482 678 482 660 482 c 3,47,48
 636 482 636 482 596 466 c 0,49,50
 534 442 534 442 534 376 c 2,51,-1
 534 320 l 2,52,53
 534 296 534 296 509 285 c 0,54,55
 492 278 492 278 459 277 c 0,56,57
 438 276 438 276 411 294 c 0,58,59
 390 308 390 308 390 330 c 2,60,-1
 390 726 l 1,61,-1
 226 726 l 1,62,-1
 226 32 l 2,63,0
 226 0 226 0 170 0 c 128,-1,1
EndSplineSet
Position2: "Single Position lookup 0-1" dx=0 dy=0 dh=-480 dv=0
LCarets2: 2 0 0
Ligature2: "'akhn' Akhanda subtable" u11328 u1134D u11335
EndChar

StartChar: uE113
Encoding: 57619 57619 36
Width: 1668
Flags: MW
AnchorPoint: "high" 838 806 basechar 0
AnchorPoint: "low" 834 -356 basechar 0
LayerCount: 2
Fore
SplineSet
1094 294 m 3,0,1
 1094 304 1094 304 1092 336 c 2,2,-1
 1086 432 l 1,3,-1
 866 432 l 2,4,5
 864 432 864 432 810 334 c 0,6,7
 796 308 796 308 796 286 c 27,8,9
 796 234 796 234 816 198 c 24,10,11
 850 134 850 134 886 120 c 0,12,13
 900 114 900 114 928 114 c 3,14,15
 970 114 970 114 1006 122 c 24,16,17
 1094 142 1094 142 1094 294 c 3,0,1
926 714 m 1,18,-1
 926 532 l 1,19,-1
 1086 532 l 1,20,-1
 1086 714 l 1,21,-1
 926 714 l 1,18,-1
752 758 m 3,22,23
 752 710 752 710 680 710 c 2,24,-1
 612 710 l 1,25,-1
 612 532 l 1,26,-1
 810 532 l 1,27,-1
 810 766 l 2,28,29
 810 784 810 784 836 796 c 0,30,31
 864 808 864 808 890 808 c 2,32,-1
 1344 808 l 2,33,34
 1378 808 1378 808 1396 792 c 0,35,36
 1416 776 1416 776 1416 756 c 3,37,38
 1416 740 1416 740 1404 728 c 0,39,40
 1390 714 1390 714 1360 714 c 2,41,-1
 1234 714 l 1,42,-1
 1234 532 l 1,43,44
 1234 532 1234 532 1266 532 c 2,45,46
 1428 532 1428 532 1494 438 c 0,47,48
 1588 304 1588 304 1588 182 c 3,49,50
 1588 -84 1588 -84 1394 -142 c 0,51,52
 1320 -164 1320 -164 1158 -164 c 2,53,54
 1158 -164 1158 -164 816 -164 c 2,55,56
 640 -164 640 -164 620 -186 c 0,57,58
 616 -190 616 -190 616 -198 c 3,59,60
 616 -222 616 -222 666 -260 c 0,61,62
 682 -272 682 -272 682 -290 c 3,63,64
 682 -304 682 -304 656 -334 c 0,65,66
 636 -356 636 -356 612 -356 c 0,67,68
 608 -356 608 -356 568 -346 c 0,69,70
 532 -336 532 -336 516 -302 c 0,71,72
 498 -262 498 -262 498 -220 c 3,73,74
 498 -208 498 -208 502 -192 c 0,75,76
 512 -162 512 -162 540 -140 c 0,77,78
 616 -80 616 -80 818 -80 c 2,79,-1
 1090 -80 l 2,80,81
 1380 -80 1380 -80 1434 0 c 0,82,83
 1468 50 1468 50 1468 146 c 2,84,-1
 1468 216 l 2,85,86
 1468 302 1468 302 1408 366 c 0,87,88
 1384 392 1384 392 1336 416 c 0,89,90
 1302 432 1302 432 1246 432 c 2,91,-1
 1234 432 l 1,92,93
 1244 346 1244 346 1244 276 c 3,94,95
 1244 114 1244 114 1158 46 c 0,96,97
 1100 0 1100 0 1008 0 c 3,98,99
 856 0 856 0 834 14 c 0,100,101
 698 104 698 104 698 206 c 3,102,103
 698 402 698 402 766 432 c 1,104,-1
 612 432 l 1,105,-1
 612 302 l 2,106,107
 612 50 612 50 528 8 c 0,108,109
 512 0 512 0 494 0 c 3,110,111
 472 0 472 0 452 8 c 0,112,113
 410 28 410 28 386 70 c 1,114,115
 356 0 356 0 296 0 c 3,116,117
 196 0 196 0 120 124 c 0,118,119
 82 188 82 188 82 258 c 2,120,-1
 82 276 l 2,121,122
 82 432 82 432 258 514 c 1,123,-1
 258 760 l 2,124,125
 258 772 258 772 265 779 c 128,-1,126
 272 786 272 786 282 788 c 1,127,128
 288 808 288 808 306 808 c 2,129,-1
 688 808 l 2,130,131
 718 808 718 808 735 791 c 128,-1,132
 752 774 752 774 752 758 c 3,22,23
414 236 m 24,133,134
 428 116 428 116 456 116 c 0,135,136
 468 116 468 116 480 158 c 0,137,138
 492 196 492 196 492 224 c 2,139,-1
 492 432 l 1,140,-1
 306 432 l 1,141,142
 226 394 226 394 198 344 c 0,143,144
 174 298 174 298 174 254 c 3,145,146
 174 206 174 206 204 162 c 0,147,148
 226 130 226 130 257 120 c 128,-1,149
 288 110 288 110 314 138 c 0,150,151
 336 166 336 166 336 236 c 2,152,-1
 336 270 l 2,153,154
 336 326 336 326 368 326 c 3,155,156
 404 326 404 326 404 314 c 0,157,158
 404 310 404 310 414 236 c 24,133,134
354 710 m 1,159,-1
 354 532 l 1,160,-1
 492 532 l 1,161,-1
 492 710 l 1,162,-1
 354 710 l 1,159,-1
EndSplineSet
LCarets2: 2 0 0
Ligature2: "'akhn' Akhanda subtable" u11315 u1134D u11324
EndChar

StartChar: uE114
Encoding: 57620 57620 37
Width: 1708
Flags: MW
AnchorPoint: "high" 854 828 basechar 0
AnchorPoint: "low" 854 0 basechar 0
LayerCount: 2
Fore
SplineSet
1166 126 m 1,0,1
 1242 0 1242 0 1366 0 c 0,2,3
 1466 0 1466 0 1533 98 c 0,4,5
 1584 172 1584 172 1584 256 c 0,6,7
 1584 330 1584 330 1562 410 c 0,8,9
 1536 502 1536 502 1446 538 c 0,10,11
 1396 558 1396 558 1361 558 c 128,-1,12
 1326 558 1326 558 1296 552 c 128,-1,13
 1266 546 1266 546 1239 512 c 128,-1,14
 1212 478 1212 478 1212 428 c 2,15,-1
 1212 420 l 2,16,17
 1212 386 1212 386 1241 353 c 128,-1,18
 1270 320 1270 320 1313 300 c 0,19,20
 1356 280 1356 280 1396 279 c 0,21,22
 1436 280 1436 280 1468 302 c 1,23,-1
 1468 280 l 2,24,25
 1468 188 1468 188 1438 136 c 128,-1,26
 1408 84 1408 84 1362 84 c 128,-1,27
 1316 84 1316 84 1270 132 c 0,28,29
 1200 200 1200 200 1200 292 c 0,30,31
 1200 302 1200 302 1196 312 c 24,32,33
 1178 356 1178 356 1130 386 c 0,34,35
 1114 396 1114 396 1083 373 c 128,-1,36
 1052 350 1052 350 1060 342 c 0,37,38
 1096 306 1096 306 1096 250 c 0,39,40
 1096 110 1096 110 980 86 c 24,41,42
 960 82 960 82 946 82 c 0,43,44
 892 82 892 82 892 132 c 0,45,46
 892 240 892 240 944 344 c 16,47,48
 950 356 950 356 950 378 c 128,-1,49
 950 400 950 400 920 440 c 128,-1,50
 890 480 890 480 826 508 c 128,-1,51
 762 536 762 536 696 536 c 2,52,-1
 676 536 l 2,53,54
 602 536 602 536 546 514 c 1,55,-1
 546 738 l 1,56,-1
 706 738 l 2,57,58
 726 738 726 738 737 752 c 128,-1,59
 748 766 748 766 748 782 c 128,-1,60
 748 798 748 798 737 813 c 128,-1,61
 726 828 726 828 706 828 c 2,62,-1
 188 828 l 2,63,64
 164 828 164 828 152 810 c 1,65,66
 126 800 126 800 126 780 c 2,67,-1
 126 32 l 2,68,69
 126 0 126 0 182 0 c 128,-1,70
 238 0 238 0 238 32 c 2,71,-1
 238 738 l 1,72,-1
 402 738 l 1,73,-1
 402 244 l 2,74,75
 402 226 402 226 423 208 c 0,76,77
 446 190 446 190 471 191 c 0,78,79
 508 192 508 192 521 198 c 0,80,81
 546 208 546 208 546 240 c 2,82,-1
 546 318 l 2,83,84
 546 416 546 416 606 440 c 0,85,86
 640 454 640 454 669 454 c 0,87,88
 744 454 744 454 783 416 c 0,89,90
 822 378 822 378 822 332 c 0,91,92
 822 318 822 318 784 224 c 0,93,94
 772 194 772 194 772 153 c 128,-1,95
 772 112 772 112 780 86 c 128,-1,96
 788 60 788 60 833 30 c 128,-1,97
 878 0 878 0 962 0 c 2,98,-1
 974 0 l 2,99,100
 1084 0 1084 0 1166 126 c 1,0,1
1432 452 m 0,101,102
 1448 430 1448 430 1436 394 c 0,103,104
 1424 356 1424 356 1372 354 c 1,105,-1
 1362 354 l 2,106,107
 1316 354 1316 354 1304 372 c 0,108,109
 1288 392 1288 392 1288 424 c 0,110,111
 1288 452 1288 452 1309 469 c 0,112,113
 1330 485 1330 485 1364 485 c 0,114,115
 1410 485 1410 485 1432 452 c 0,101,102
EndSplineSet
Position2: "Single Position lookup 0-1" dx=0 dy=0 dh=-820 dv=0
LCarets2: 2 0 0
Ligature2: "'akhn' Akhanda subtable" u11328 u1134D u11325
EndChar

StartChar: uE115
Encoding: 57621 57621 38
Width: 1708
Flags: MW
AnchorPoint: "high" 860 788 basechar 0
AnchorPoint: "low" 860 -256 basechar 0
LayerCount: 2
Fore
SplineSet
428 330 m 1024,0,-1
234 382 m 3,2,3
 234 268 234 268 300 236 c 0,4,5
 326 222 326 222 358 222 c 3,6,7
 418 222 418 222 436 274 c 0,8,9
 438 280 438 280 438 286 c 3,10,11
 438 308 438 308 422 340 c 0,12,13
 402 380 402 380 368 405 c 0,14,15
 334 432 334 432 305 433 c 0,16,17
 270 432 270 432 257 422 c 0,18,19
 234 406 234 406 234 382 c 3,2,3
1470 226 m 1,20,-1
 1470 452 l 1,21,22
 1420 416 1420 416 1260 400 c 1,23,-1
 1172 226 l 1,24,-1
 1470 226 l 1,20,-1
866 476 m 3,25,26
 866 292 866 292 768 226 c 1,27,-1
 1052 226 l 1,28,-1
 1140 400 l 1,29,30
 1050 410 1050 410 1019 460 c 128,-1,31
 988 510 988 510 988 614 c 2,32,-1
 988 624 l 2,33,34
 988 680 988 680 1018 718 c 0,35,36
 1064 780 1064 780 1138 780 c 3,37,38
 1152 780 1152 780 1166 778 c 0,39,40
 1260 764 1260 764 1302 656 c 0,41,42
 1322 604 1322 604 1306 524 c 26,43,-1
 1298 484 l 1,44,45
 1366 502 1366 502 1452 570 c 0,46,47
 1470 584 1470 584 1470 586 c 0,48,49
 1470 606 1470 606 1513 606 c 131,-1,50
 1556 606 1556 606 1567 597 c 0,51,52
 1582 584 1582 584 1582 572 c 2,53,-1
 1582 144 l 1,54,-1
 1130 144 l 1,55,-1
 1040 -32 l 24,56,-1
 1590 -32 l 2,57,58
 1618 -32 1618 -32 1618 -76 c 131,-1,59
 1618 -120 1618 -120 1590 -120 c 2,60,-1
 1306 -120 l 1,61,-1
 1306 -220 l 2,62,63
 1306 -256 1306 -256 1255 -256 c 131,-1,64
 1204 -256 1204 -256 1204 -220 c 2,65,-1
 1204 -120 l 1,66,-1
 920 -120 l 2,67,68
 875 -120 875 -120 886 -98 c 2,69,-1
 1010 144 l 1,70,-1
 580 144 l 1,71,-1
 580 226 l 1,72,-1
 622 226 l 2,73,74
 682 226 682 226 705 285 c 0,75,76
 726 338 726 338 726 442 c 131,-1,77
 726 546 726 546 696 592 c 0,78,79
 632 698 632 698 524 698 c 2,80,-1
 508 698 l 2,81,82
 458 698 458 698 416 680 c 0,83,84
 360 656 360 656 321 616 c 128,-1,85
 282 576 282 576 252 492 c 1,86,87
 276 498 276 498 298 498 c 3,88,89
 334 498 334 498 368 484 c 0,90,91
 464 446 464 446 506 362 c 0,92,93
 528 318 528 318 528 288 c 3,94,95
 528 274 528 274 524 260 c 0,96,97
 492 162 492 162 368 146 c 0,98,99
 352 144 352 144 336 144 c 3,100,101
 236 144 236 144 170 244 c 0,102,103
 138 294 138 294 138 394 c 2,104,-1
 138 406 l 2,105,106
 138 624 138 624 328 738 c 0,107,108
 410 788 410 788 496 788 c 2,109,-1
 520 788 l 2,110,111
 698 788 698 788 804 654 c 0,112,113
 866 576 866 576 866 476 c 3,25,26
1200 524 m 24,114,115
 1206 542 1206 542 1206 566 c 3,116,117
 1206 618 1206 618 1192 652 c 0,118,119
 1176 700 1176 700 1154 710 c 256,120,121
 1132 720 1132 720 1110 695 c 0,122,123
 1080 662 1080 662 1080 610 c 27,124,125
 1080 554 1080 554 1109 515 c 0,126,127
 1134 484 1134 484 1180 478 c 1,128,-1
 1200 524 l 24,114,115
EndSplineSet
Position2: "Single Position lookup 0-1" dx=0 dy=0 dh=-100 dv=0
LCarets2: 2 0 0
Ligature2: "'akhn' Akhanda subtable" u11337 u1134D u1131F
EndChar

StartChar: uE116
Encoding: 57622 57622 39
Width: 2456
Flags: MW
AnchorPoint: "high" 1218 804 basechar 0
AnchorPoint: "low" 1218 0 basechar 0
LayerCount: 2
Fore
SplineSet
948 694 m 1,0,-1
 948 544 l 1,1,-1
 1106 544 l 1,2,-1
 1106 694 l 1,3,-1
 948 694 l 1,0,-1
1668 222 m 0,4,5
 1650 298 1650 298 1609 335 c 0,6,7
 1558 380 1558 380 1486 406 c 1,8,9
 1454 348 1454 348 1454 256 c 131,-1,10
 1454 164 1454 164 1492 124 c 0,11,12
 1528 84 1528 84 1576 84 c 3,13,14
 1616 84 1616 84 1644 111 c 128,-1,15
 1672 138 1672 138 1672 180 c 0,16,17
 1672 200 1672 200 1668 222 c 0,4,5
432 400 m 2,18,-1
 432 406 l 2,19,20
 432 462 432 462 396 488 c 0,21,22
 366 512 366 512 320 512 c 3,23,24
 278 512 278 512 244 485 c 0,25,26
 212 460 212 460 212 406 c 2,27,-1
 212 400 l 2,28,29
 212 360 212 360 246 336 c 0,30,31
 286 308 286 308 322 308 c 2,32,-1
 332 308 l 2,33,34
 368 308 368 308 398 328 c 0,35,36
 432 348 432 348 432 400 c 2,18,-1
1034 140 m 0,37,38
 1102 156 1102 156 1112 236 c 0,39,40
 1114 256 1114 256 1114 280 c 131,-1,41
 1114 304 1114 304 1112 332 c 0,42,43
 1108 384 1108 384 1106 434 c 1,44,-1
 902 434 l 1,45,46
 822 406 822 406 796 350 c 0,47,48
 780 318 780 318 780 286 c 3,49,50
 780 262 780 262 788 240 c 0,51,52
 808 188 808 188 872 156 c 0,53,54
 910 136 910 136 960 136 c 3,55,56
 1014 136 1014 136 1034 140 c 0,37,38
1034 0 m 3,57,58
 892 0 892 0 805 51 c 0,59,60
 716 102 716 102 684 176 c 0,61,62
 664 222 664 222 664 274 c 3,63,64
 664 302 664 302 672 332 c 0,65,66
 692 414 692 414 764 474 c 1,67,68
 730 548 730 548 659 607 c 128,-1,69
 588 666 588 666 510 692 c 0,70,71
 464 708 464 708 422 708 c 3,72,73
 390 708 390 708 358 700 c 0,74,75
 284 680 284 680 242 600 c 1,76,77
 278 608 278 608 312 608 c 3,78,79
 382 608 382 608 444 574 c 0,80,81
 544 520 544 520 544 406 c 2,82,-1
 544 400 l 2,83,84
 544 274 544 274 424 216 c 0,85,86
 370 190 370 190 306 190 c 3,87,88
 250 190 250 190 196 212 c 0,89,90
 74 266 74 266 74 400 c 2,91,-1
 74 412 l 2,92,93
 74 654 74 654 250 752 c 0,94,95
 330 796 330 796 410 796 c 2,96,-1
 438 796 l 2,97,98
 516 796 516 796 580 776 c 0,99,100
 762 718 762 718 838 590 c 1,101,-1
 838 766 l 2,102,103
 838 790 838 790 860 796 c 0,104,105
 900 804 900 804 914 804 c 2,106,-1
 1370 804 l 6,107,108
 1406 804 1406 804 1424 784 c 4,109,110
 1438 766 1438 766 1438 747 c 135,-1,111
 1438 728 1438 728 1419 711 c 4,112,113
 1402 694 1402 694 1374 694 c 6,114,-1
 1246 694 l 1,115,-1
 1246 540 l 1,116,117
 1344 532 1344 532 1428 514 c 1,118,119
 1528 636 1528 636 1688 654 c 0,120,121
 1724 658 1724 658 1760 658 c 3,122,123
 1880 658 1880 658 1972 600 c 0,124,125
 2112 510 2112 510 2112 356 c 2,126,127
 2112 356 2112 356 2112 330 c 2,128,129
 2112 182 2112 182 2002 96 c 1,130,-1
 2246 96 l 1,131,-1
 2246 758 l 2,132,133
 2246 770 2246 770 2267 790 c 0,134,135
 2286 808 2286 808 2306 808 c 3,136,137
 2334 808 2334 808 2344 803 c 0,138,139
 2362 794 2362 794 2362 774 c 2,140,-1
 2362 0 l 1,141,-1
 1814 0 l 1,142,-1
 1814 96 l 1,143,144
 1868 96 1868 96 1899 129 c 0,145,146
 1932 160 1932 160 1944 204 c 0,147,148
 1960 258 1960 258 1960 302 c 2,149,-1
 1960 354 l 2,150,151
 1960 442 1960 442 1909 497 c 128,-1,152
 1858 552 1858 552 1792 568 c 0,153,154
 1762 576 1762 576 1732 576 c 3,155,156
 1696 576 1696 576 1656 564 c 0,157,158
 1584 544 1584 544 1532 480 c 1,159,160
 1694 402 1694 402 1746 246 c 24,161,162
 1758 210 1758 210 1758 178 c 3,163,164
 1758 152 1758 152 1750 128 c 0,165,166
 1732 70 1732 70 1691 39 c 0,167,168
 1652 10 1652 10 1596 2 c 0,169,170
 1584 0 1584 0 1570 0 c 3,171,172
 1528 0 1528 0 1488 18 c 0,173,174
 1442 40 1442 40 1396 102 c 0,175,176
 1348 168 1348 168 1348 260 c 3,177,178
 1348 360 1348 360 1380 434 c 1,179,180
 1316 446 1316 446 1262 446 c 2,181,-1
 1246 446 l 1,182,183
 1250 392 1250 392 1256 316 c 0,184,185
 1258 296 1258 296 1258 274 c 3,186,187
 1258 220 1258 220 1246 168 c 0,188,189
 1230 96 1230 96 1183 48 c 128,-1,190
 1136 0 1136 0 1034 0 c 3,57,58
EndSplineSet
LCarets2: 4 0 0 0 0
Ligature2: "'akhn' Akhanda subtable" u11328 u1134D u11324 u1134D u11335
EndChar

StartChar: uE200
Encoding: 57856 57856 40
Width: 808
Flags: MW
LayerCount: 2
Fore
SplineSet
122 108 m 2,0,-1
 354 108 l 1,1,2
 356 152 356 152 381 264 c 128,-1,3
 406 376 406 376 417 415 c 152,-1,4
 428 454 428 454 484 630 c 0,5,6
 508 704 508 704 507 796 c 128,-1,7
 506 888 506 888 462 955 c 128,-1,8
 418 1022 418 1022 328 1084 c 25,9,-1
 264 1098 l 25,10,11
 248 1112 248 1112 248 1132 c 0,12,13
 246 1178 246 1178 278 1180 c 0,14,15
 284 1180 284 1180 356 1152 c 0,16,17
 432 1124 432 1124 481 1081 c 128,-1,18
 530 1038 530 1038 566 971 c 128,-1,19
 602 904 602 904 602 816 c 128,-1,20
 602 728 602 728 592 662 c 0,21,22
 582 594 582 594 539 450 c 128,-1,23
 496 306 496 306 488 245 c 128,-1,24
 480 184 480 184 464 106 c 1,25,26
 568 100 568 100 632 62 c 0,27,28
 748 -6 748 -6 748 -148 c 0,29,30
 748 -283 748 -283 644 -338 c 0,31,32
 614 -354 614 -354 570 -354 c 0,33,34
 554 -354 554 -354 538 -352 c 8,35,36
 472 -344 472 -344 443 -320 c 128,-1,37
 414 -296 414 -296 392 -248 c 0,38,39
 354 -166 354 -166 354 4 c 1,40,-1
 110 4 l 2,41,42
 64 4 64 4 38 23 c 128,-1,43
 12 42 12 42 12 60 c 128,-1,44
 12 78 12 78 41 93 c 128,-1,45
 70 108 70 108 122 108 c 2,0,-1
576 -248 m 1,46,47
 620 -248 620 -248 644 -218 c 0,48,49
 660 -196 660 -196 660 -168 c 0,50,51
 660 -156 660 -156 656 -144 c 0,52,53
 648 -100 648 -100 598 -58 c 128,-1,54
 548 -16 548 -16 450 0 c 1,55,56
 450 -96 450 -96 460 -166 c 128,-1,57
 470 -236 470 -236 526 -242 c 2,58,-1
 576 -248 l 1,46,47
EndSplineSet
Substitution2: "Single substitution combining pa-1" u11374
Substitution2: "Single substitution combining vi-1" u11373
Substitution2: "Single substitution combining na-1" u11372
Substitution2: "Single substitution combining ka-1" u11371
Substitution2: "Single substitution combining a-1" u11370
Substitution2: "Single substitution combining six-1" u1136C
Substitution2: "Single substitution combining five-1" u1136B
Substitution2: "Single substitution combining four-1" u1136A
Substitution2: "Single substitution combining three-1" u11369
Substitution2: "Single substitution combining two-1" u11368
Substitution2: "Single substitution combining one-1" u11367
Substitution2: "Single substitution combining zero-1" u11366
Substitution2: "Single substitution combining asterisk-1" u20F0
Substitution2: "Single substitution prenkha-1" u1CD2
Substitution2: "Single substitution karsana-1" u1CD0
Substitution2: "Single substitution virama-1" u1134D
Substitution2: "Single substitution I marker-1" u11340
Substitution2: "Single substitution i marker-1" u1133F
Substitution2: "Single substitution dirghasvarita-1" u0951
Substitution2: "Single substitution svarita-1" u1CF4
Substitution2: "Single substitution anudatta-1" u0952
Substitution2: "Single substitution anunasika-1" u11301
PairPos2: "'dist' Distance lookup intra-post-base marker 2-2" u11343 dx=0 dy=0 dh=0 dv=0 dx=0 dy=-200 dh=0 dv=0
Ligature2: "Ligature Substitution post repha rakara ya subtable" u11330 u1134D
PairPos2: "'dist' Distance lookup intra-post-base marker 2-2" u11344 dx=0 dy=0 dh=40 dv=0 dx=0 dy=-200 dh=0 dv=0
LCarets2: 1 0
EndChar

StartChar: uE201
Encoding: 57857 57857 41
Width: 814
Flags: MW
LayerCount: 2
Fore
SplineSet
318 956 m 1,0,1
 318 1020 318 1020 372 1020 c 0,2,3
 436 1020 436 1020 450 998 c 0,4,5
 728 626 728 626 732 208 c 0,6,7
 732 10 732 10 708 -114 c 152,-1,8
 684 -238 684 -238 628 -307 c 128,-1,9
 572 -376 572 -376 512 -400 c 0,10,11
 468 -418 468 -418 426 -418 c 0,12,13
 410 -418 410 -418 392 -416 c 0,14,15
 334 -406 334 -406 290 -370 c 128,-1,16
 246 -334 246 -334 246 -276 c 128,-1,17
 246 -218 246 -218 270 -148 c 25,18,-1
 302 -102 l 25,19,20
 330 -44 330 -44 330 4 c 128,-1,21
 330 52 330 52 304 82 c 128,-1,22
 278 112 278 112 238 124 c 0,23,24
 224 128 224 128 210 126 c 0,25,26
 184 126 184 126 156 114 c 1,27,-1
 144 66 l 1,28,29
 126 52 126 52 99 52 c 128,-1,30
 72 52 72 52 68 70 c 0,31,32
 60 102 60 102 58 104 c 0,33,34
 58 120 58 120 98 144 c 0,35,36
 158 180 158 180 219 180 c 128,-1,37
 280 180 280 180 320 160 c 0,38,39
 416 116 416 116 416 14 c 0,40,41
 416 -40 416 -40 394 -112 c 16,42,43
 380 -158 380 -158 380 -196 c 0,44,45
 380 -216 380 -216 384 -232 c 0,46,47
 396 -280 396 -280 432 -294 c 0,48,49
 440 -298 440 -298 450 -298 c 0,50,51
 478 -298 478 -298 512 -270 c 0,52,53
 612 -192 612 -192 612 160 c 4,54,55
 612 384 612 384 598 489 c 128,-1,56
 584 594 584 594 529 720 c 128,-1,57
 474 846 474 846 392 904 c 2,58,-1
 318 956 l 1,0,1
EndSplineSet
Substitution2: "Single substitution combining pa-1" u11374
Substitution2: "Single substitution combining vi-1" u11373
Substitution2: "Single substitution combining na-1" u11372
Substitution2: "Single substitution combining ka-1" u11371
Substitution2: "Single substitution combining a-1" u11370
Substitution2: "Single substitution combining six-1" u1136C
Substitution2: "Single substitution combining five-1" u1136B
Substitution2: "Single substitution combining four-1" u1136A
Substitution2: "Single substitution combining three-1" u11369
Substitution2: "Single substitution combining two-1" u11368
Substitution2: "Single substitution combining one-1" u11367
Substitution2: "Single substitution combining zero-1" u11366
Substitution2: "Single substitution combining asterisk-1" u20F0
Substitution2: "Single substitution prenkha-1" u1CD2
Substitution2: "Single substitution karsana-1" u1CD0
Substitution2: "Single substitution I marker-1" u11340
Substitution2: "Single substitution i marker-1" u1133F
Substitution2: "Single substitution dirghasvarita-1" u0951
Substitution2: "Single substitution svarita-1" u1CF4
Substitution2: "Single substitution anudatta-1" u0952
Substitution2: "Single substitution anunasika-1" u11301
Ligature2: "Ligature Substitution post repha rakara ya subtable" u1134D u1132F
LCarets2: 1 0
EndChar

StartChar: uE203
Encoding: 57859 57859 42
Width: 468
Flags: MW
LayerCount: 2
Fore
SplineSet
-50 -486 m 4,0,1
 -16 -486 -16 -486 24 -480 c 4,2,3
 296 -440 296 -440 296 -4 c 6,4,-1
 296 294 l 1,5,-1
 380 294 l 2,6,7
 400 294 400 294 413 311 c 128,-1,8
 426 328 426 328 426 348 c 256,9,10
 426 368 426 368 414 385 c 128,-1,11
 402 402 402 402 380 402 c 2,12,-1
 86 402 l 2,13,14
 62 402 62 402 50 385 c 128,-1,15
 38 368 38 368 38 348 c 256,16,17
 38 328 38 328 51 311 c 128,-1,18
 64 294 64 294 86 294 c 2,19,-1
 180 294 l 1,20,-1
 180 -4 l 6,21,22
 180 -148 180 -148 168 -228 c 5,23,24
 118 -400 118 -400 -10 -406 c 4,25,26
 -60 -408 -60 -408 -76 -408 c 28,27,28
 -86 -408 -86 -408 -180 -408 c 4,29,30
 -294 -408 -294 -408 -329 -407 c 4,31,32
 -458 -406 -458 -406 -478 -404 c 4,33,34
 -766 -376 -766 -376 -811 -366 c 4,35,36
 -1094 -298 -1094 -298 -1142 -298 c 4,37,38
 -1204 -298 -1204 -298 -1204 -338 c 4,39,40
 -1204 -368 -1204 -368 -1160 -382 c 4,41,42
 -1154 -384 -1154 -384 -1040 -408 c 4,43,44
 -794 -456 -794 -456 -722 -462 c 28,45,46
 -554 -476 -554 -476 -555 -478 c 6,47,-1
 -338 -484 l 28,48,49
 -334 -486 -334 -486 -50 -486 c 4,0,1
EndSplineSet
EndChar

StartChar: uE204
Encoding: 57860 57860 43
Width: 470
Flags: MW
LayerCount: 2
Fore
SplineSet
-10 -762 m 6,0,1
 148 -760 148 -760 234 -608 c 4,2,3
 298 -496 298 -496 298 -372 c 6,4,-1
 298 294 l 1,5,-1
 382 294 l 2,6,7
 404 294 404 294 416 311 c 128,-1,8
 428 328 428 328 428 348 c 256,9,10
 428 368 428 368 416 385 c 128,-1,11
 404 402 404 402 382 402 c 2,12,-1
 88 402 l 2,13,14
 64 402 64 402 52 385 c 128,-1,15
 40 368 40 368 40 348 c 256,16,17
 40 328 40 328 53 311 c 128,-1,18
 66 294 66 294 88 294 c 2,19,-1
 182 294 l 1,20,-1
 182 -372 l 6,21,22
 182 -500 182 -500 146 -553 c 4,23,24
 134 -572 134 -572 66 -644 c 4,25,26
 52 -658 52 -658 -24 -673 c 4,27,28
 -40 -676 -40 -676 -133 -674 c 4,29,30
 -502 -666 -502 -666 -748 -624 c 4,31,32
 -1178 -552 -1178 -552 -1278 -552 c 4,33,34
 -1300 -552 -1300 -552 -1319 -573 c 132,-1,35
 -1338 -594 -1338 -594 -1331 -613 c 132,-1,36
 -1324 -632 -1324 -632 -1237 -659 c 4,37,38
 -1106 -700 -1106 -700 -809 -726 c 4,39,40
 -809 -726 -809 -726 -686 -738 c 4,41,-1
 -504 -752 l 4,42,43
 -504 -758 -504 -758 -332 -764 c 28,44,45
 -302 -766 -302 -766 -140 -764 c 28,46,47
 -12 -764 -12 -764 -10 -762 c 6,0,1
EndSplineSet
LCarets2: 1 0
EndChar

StartChar: uE280
Encoding: 57984 57984 44
Width: 616
Flags: MW
LayerCount: 2
Fore
SplineSet
232 216 m 1,0,-1
 200 226 l 2,1,2
 194 226 194 226 178 216 c 128,-1,3
 162 206 162 206 162 190 c 0,4,5
 162 142 162 142 204 124 c 2,6,-1
 238 108 l 1,7,-1
 284 100 l 1,8,9
 294 96 294 96 346 105 c 128,-1,10
 398 114 398 114 424 154 c 128,-1,11
 450 194 450 194 451 225 c 128,-1,12
 452 256 452 256 452 260 c 128,-1,13
 452 264 452 264 449 289 c 128,-1,14
 446 314 446 314 434 346 c 128,-1,15
 422 378 422 378 379 408 c 128,-1,16
 336 438 336 438 274 438 c 2,17,-1
 158 438 l 2,18,19
 148 438 148 438 140 454 c 128,-1,20
 132 470 132 470 132 486 c 0,21,22
 132 526 132 526 196 526 c 2,23,24
 248 526 248 526 300 526 c 2,25,26
 356 526 356 526 382 590 c 0,27,28
 394 616 394 616 394 655 c 128,-1,29
 394 694 394 694 377 718 c 128,-1,30
 360 742 360 742 341 751 c 128,-1,31
 322 760 322 760 308 760 c 128,-1,32
 294 760 294 760 273 757 c 128,-1,33
 252 754 252 754 232 734 c 128,-1,34
 212 714 212 714 212 702 c 128,-1,35
 212 690 212 690 214 680 c 1,36,-1
 158 624 l 1,37,38
 140 676 140 676 140 716 c 128,-1,39
 140 756 140 756 183 806 c 128,-1,40
 226 856 226 856 268 856 c 2,41,-1
 320 856 l 2,42,43
 406 856 406 856 456 750 c 0,44,45
 476 712 476 712 476 645 c 128,-1,46
 476 578 476 578 461 548 c 128,-1,47
 446 518 446 518 418 496 c 1,48,49
 506 470 506 470 542 366 c 0,50,51
 556 326 556 326 556 255 c 128,-1,52
 556 184 556 184 530 130 c 0,53,54
 468 0 468 0 304 0 c 2,55,-1
 292 0 l 2,56,57
 250 0 250 0 217 9 c 128,-1,58
 184 18 184 18 143 53 c 128,-1,59
 102 88 102 88 84 117 c 128,-1,60
 66 146 66 146 66 206 c 128,-1,61
 66 266 66 266 128 298 c 0,62,63
 166 320 166 320 198 320 c 128,-1,64
 230 320 230 320 264 304 c 1,65,66
 284 284 284 284 284 266 c 0,67,68
 284 228 284 228 246 218 c 0,69,70
 242 216 242 216 232 216 c 1,0,-1
EndSplineSet
EndChar

StartChar: uE400
Encoding: 58368 58368 98
Width: 1096
Flags: MW
LayerCount: 2
Fore
SplineSet
710 768 m 0,0,1
 710 828 710 828 678 828 c 2,2,-1
 276 828 l 2,3,4
 254 828 254 828 232 815 c 128,-1,5
 210 802 210 802 210 762 c 2,6,-1
 210 530 l 1,7,8
 144 504 144 504 107 452 c 0,9,10
 62 392 62 392 60 342 c 0,11,12
 60 322 60 322 58 302 c 0,13,14
 56 264 56 264 68 224 c 0,15,16
 106 92 106 92 242 32 c 0,17,18
 314 0 314 0 403 0 c 128,-1,19
 492 0 492 0 537 51 c 128,-1,20
 582 102 582 102 588 159 c 128,-1,21
 594 216 594 216 594 434 c 1,22,23
 600 434 600 434 606 434 c 0,24,25
 652 436 652 436 702 420 c 0,26,27
 702 420 702 420 818 386 c 1,28,29
 794 352 794 352 789 315 c 128,-1,30
 784 278 784 278 778 254 c 128,-1,31
 772 230 772 230 772 176 c 128,-1,32
 772 122 772 122 787 88 c 128,-1,33
 802 54 802 54 832 27 c 128,-1,34
 862 0 862 0 898 0 c 0,35,36
 1038 0 1038 0 1036 210 c 0,37,38
 1036 310 1036 310 958 404 c 0,39,40
 938 428 938 428 926 446 c 1,41,42
 930 456 930 456 934 469 c 128,-1,43
 938 482 938 482 944 499 c 128,-1,44
 950 516 950 516 954 536 c 128,-1,45
 958 556 958 556 970 616 c 0,46,47
 976 644 976 644 976 670 c 0,48,49
 976 704 976 704 968 732 c 0,50,51
 942 828 942 828 862 828 c 0,52,53
 790 828 790 828 790 780 c 0,54,55
 790 748 790 748 818 742 c 24,56,57
 866 732 866 732 874 728 c 0,58,59
 898 708 898 708 898 674 c 0,60,61
 898 618 898 618 856 486 c 1,62,63
 750 526 750 526 592 536 c 1,64,-1
 592 712 l 1,65,-1
 668 712 l 2,66,67
 688 712 688 712 699 730 c 128,-1,68
 710 748 710 748 710 768 c 0,0,1
458 242 m 2,69,70
 458 142 458 142 392 138 c 0,71,72
 290 138 290 138 228 177 c 128,-1,73
 166 216 166 216 156 256 c 0,74,75
 152 268 152 268 152 284 c 0,76,77
 152 318 152 318 168 364 c 0,78,79
 192 430 192 430 264 430 c 2,80,-1
 458 430 l 1,81,-1
 458 242 l 2,69,70
314 712 m 1,82,-1
 460 712 l 1,83,-1
 460 538 l 1,84,-1
 314 538 l 1,85,-1
 314 712 l 1,82,-1
886 342 m 1,86,87
 928 300 928 300 940 267 c 128,-1,88
 952 234 952 234 952 182 c 128,-1,89
 952 130 952 130 944 111 c 128,-1,90
 936 92 936 92 920 84 c 128,-1,91
 904 76 904 76 886 85 c 128,-1,92
 868 94 868 94 860 124 c 128,-1,93
 852 154 852 154 852 208 c 128,-1,94
 852 262 852 262 886 342 c 1,86,87
EndSplineSet
LCarets2: 1 0
Ligature2: "'haln' Halant Forms subtable" u11324 u1134D
EndChar

StartChar: uE401
Encoding: 58369 58369 99
Width: 1040
Flags: MW
LayerCount: 2
Fore
SplineSet
456 512 m 1,0,1
 536 558 536 558 676 558 c 0,2,3
 714 558 714 558 752 548 c 1,4,5
 771 575 771 575 774 592 c 2,6,-1
 788 682 l 2,7,8
 792 706 792 706 770 722 c 0,9,10
 754 734 754 734 704 742 c 0,11,12
 676 746 676 746 677 773 c 128,-1,13
 678 800 678 800 696 814 c 128,-1,14
 714 828 714 828 750 828 c 0,15,16
 834 828 834 828 856 732 c 16,17,18
 864 700 864 700 864 668 c 0,19,20
 864 594 864 594 822 520 c 1,21,22
 868 492 868 492 908 429 c 128,-1,23
 948 366 948 366 948 304 c 128,-1,24
 948 242 948 242 943 191 c 128,-1,25
 938 140 938 140 918 96 c 0,26,27
 872 0 872 0 764 0 c 1,28,29
 724 0 724 0 690 34 c 128,-1,30
 656 68 656 68 644 126 c 0,31,32
 638 160 638 160 638 196 c 0,33,34
 638 312 638 312 708 460 c 1,35,36
 668 476 668 476 634 478 c 0,37,38
 590 480 590 480 562 472 c 0,39,40
 460 450 460 450 460 352 c 0,41,42
 460 338 460 338 412 336 c 0,43,44
 394 336 394 336 378 336 c 0,45,46
 356 336 356 336 346 338 c 0,47,48
 330 342 330 342 325 345 c 128,-1,49
 320 348 320 348 320 370 c 2,50,-1
 320 732 l 1,51,-1
 168 732 l 1,52,-1
 168 194 l 2,53,54
 168 178 168 178 151 169 c 128,-1,55
 134 160 134 160 114 160 c 256,56,57
 94 160 94 160 78 169 c 128,-1,58
 62 178 62 178 62 194 c 2,59,-1
 62 756 l 2,60,61
 62 824 62 824 110 824 c 2,62,-1
 582 824 l 6,63,64
 602 824 602 824 613 809 c 132,-1,65
 624 794 624 794 624 777 c 132,-1,66
 624 760 624 760 613 746 c 132,-1,67
 602 732 602 732 582 732 c 6,68,-1
 456 732 l 1,69,-1
 456 512 l 1,0,1
846 244 m 258,70,-1
 846 300 l 2,71,72
 846 324 846 324 826 358 c 128,-1,73
 806 392 806 392 780 416 c 1,74,75
 722 260 722 260 722 178 c 0,76,77
 722 106 722 106 766 92 c 1,78,79
 846 92 846 92 846 244 c 258,70,-1
EndSplineSet
LCarets2: 1 0
Ligature2: "'haln' Halant Forms subtable" u11328 u1134D
EndChar

StartChar: uE402
Encoding: 58370 58370 100
Width: 1122
Flags: MW
LayerCount: 2
Fore
SplineSet
798 158 m 0,0,1
 798 218 798 218 710 218 c 0,2,3
 628 216 628 216 576 200 c 0,4,5
 548 192 548 192 548 172 c 0,6,7
 548 70 548 70 696 70 c 0,8,9
 798 70 798 70 798 158 c 0,0,1
812 792 m 0,10,11
 1008 728 1008 728 1008 580 c 0,12,13
 1008 446 1008 446 760 332 c 0,14,15
 760 332 760 332 656 278 c 5,16,17
 676 278 676 278 696 278 c 0,18,19
 784 278 784 278 833 244 c 128,-1,20
 882 210 882 210 882 160 c 0,21,22
 880 72 880 72 792 30 c 0,23,24
 732 0 732 0 668 0 c 128,-1,25
 604 0 604 0 529 36 c 128,-1,26
 454 72 454 72 454 133 c 128,-1,27
 454 194 454 194 462 206 c 128,-1,28
 470 218 470 218 474 226 c 1,29,30
 342 266 342 266 200 390 c 128,-1,31
 58 514 58 514 58 678 c 2,32,-1
 58 878 l 1,33,-1
 144 878 l 1,34,-1
 144 684 l 2,35,36
 144 550 144 550 271 435 c 128,-1,37
 398 320 398 320 530 288 c 1,38,39
 584 326 584 326 649 360 c 128,-1,40
 714 394 714 394 772 428 c 0,41,42
 908 504 908 504 908 610 c 0,43,44
 908 700 908 700 710 732 c 0,45,46
 672 738 672 738 636 738 c 0,47,48
 522 738 522 738 474 708 c 1,49,50
 526 708 526 708 604 648 c 0,51,52
 646 616 646 616 646 566 c 128,-1,53
 646 516 646 516 611 479 c 128,-1,54
 576 442 576 442 499 442 c 128,-1,55
 422 442 422 442 358 485 c 128,-1,56
 294 528 294 528 294 572 c 24,57,58
 294 654 294 654 348 712 c 0,59,60
 448 820 448 820 646 820 c 0,61,62
 726 820 726 820 812 792 c 0,10,11
476 526 m 0,63,64
 544 526 544 526 544 568 c 0,65,66
 544 596 544 596 516 624 c 128,-1,67
 488 652 488 652 456 652 c 0,68,69
 420 652 420 652 412 640 c 128,-1,70
 404 628 404 628 400 606 c 0,71,72
 402 526 402 526 476 526 c 0,63,64
EndSplineSet
Ligature2: "'haln' Halant Forms subtable" u1132E u1134D
LCarets2: 1 0
EndChar

StartChar: uE403
Encoding: 58371 58371 101
Width: 1576
Flags: MW
LayerCount: 2
Fore
SplineSet
1330 418 m 1,0,1
 1276 288 1276 288 1276 226 c 2,2,-1
 1276 166 l 2,3,4
 1276 96 1276 96 1314 94 c 1,5,6
 1394 94 1394 94 1394 246 c 2,7,-1
 1394 288 l 2,8,9
 1394 362 1394 362 1330 418 c 1,0,1
1004 530 m 1,10,11
 1202 570 1202 570 1294 528 c 1,12,-1
 1306 550 l 1,13,14
 1318 567 1318 567 1322 592 c 2,15,-1
 1338 682 l 2,16,17
 1342 706 1342 706 1320 722 c 0,18,19
 1304 734 1304 734 1254 742 c 0,20,21
 1226 746 1226 746 1227 773 c 128,-1,22
 1228 800 1228 800 1246 814 c 0,23,24
 1262 828 1262 828 1298 828 c 0,25,26
 1382 826 1382 826 1406 734 c 0,27,28
 1412 710 1412 710 1412 682 c 0,29,30
 1412 610 1412 610 1366 518 c 1,31,32
 1490 456 1490 456 1490 288 c 2,33,-1
 1490 228 l 2,34,35
 1490 146 1490 146 1466 100 c 0,36,37
 1414 0 1414 0 1322 0 c 0,38,39
 1270 0 1270 0 1240 36 c 0,40,41
 1190 96 1190 96 1190 208 c 2,42,-1
 1190 268 l 2,43,44
 1190 362 1190 362 1258 462 c 1,45,46
 1174 472 1174 472 1152 472 c 0,47,48
 1004 470 1004 470 1004 392 c 26,49,-1
 1004 356 l 2,50,51
 1004 312 1004 312 943 312 c 128,-1,52
 882 312 882 312 882 356 c 2,53,-1
 882 732 l 1,54,-1
 718 732 l 1,55,-1
 718 286 l 2,56,57
 718 260 718 260 658 260 c 128,-1,58
 598 260 598 260 598 290 c 2,59,-1
 598 346 l 2,60,61
 598 548 598 548 484 662 c 0,62,63
 412 734 412 734 322 734 c 0,64,65
 244 734 244 734 196 672 c 0,66,67
 162 630 162 630 162 560 c 1,68,69
 210 586 210 586 272 586 c 0,70,71
 396 586 396 586 456 502 c 0,72,73
 490 454 490 454 490 402 c 0,74,75
 490 310 490 310 384 264 c 0,76,77
 334 242 334 242 282 242 c 0,78,79
 174 242 174 242 102 312 c 0,80,81
 76 336 76 336 66 400 c 0,82,83
 64 412 64 412 64 508 c 128,-1,84
 64 604 64 604 66 616 c 0,85,86
 78 686 78 686 126 743 c 128,-1,87
 174 800 174 800 220 810 c 128,-1,88
 266 820 266 820 302 820 c 0,89,90
 466 820 466 820 598 674 c 1,91,-1
 598 786 l 2,92,93
 598 818 598 818 612 820 c 25,94,95
 616 828 616 828 658 828 c 2,96,-1
 1134 828 l 2,97,98
 1154 828 1154 828 1164 812 c 128,-1,99
 1174 796 1174 796 1174 779 c 128,-1,100
 1174 762 1174 762 1164 747 c 128,-1,101
 1154 732 1154 732 1134 732 c 2,102,-1
 1004 732 l 1,103,-1
 1004 530 l 1,10,11
340 341 m 128,-1,105
 366 364 366 364 366 407 c 128,-1,106
 366 450 366 450 338 482 c 128,-1,107
 310 514 310 514 278 514 c 128,-1,108
 246 514 246 514 218 490 c 128,-1,109
 190 466 190 466 190 416 c 128,-1,110
 190 366 190 366 218 342 c 128,-1,111
 246 318 246 318 280 318 c 128,-1,104
 314 318 314 318 340 341 c 128,-1,105
EndSplineSet
LCarets2: 1 0
Ligature2: "'haln' Halant Forms subtable" uE101 u1134D
EndChar

StartChar: u11302
Encoding: 70402 70402 102
Width: 732
Flags: MW
LayerCount: 2
Fore
SplineSet
690 416 m 0,0,1
 690 352 690 352 644 303 c 128,-1,2
 598 254 598 254 529 230 c 0,3,4
 460 204 460 204 380 204 c 0,5,6
 376 204 376 204 374 204 c 0,7,8
 300 204 300 204 232 228 c 128,-1,9
 164 252 164 252 117 301 c 0,10,11
 70 352 70 352 70 416 c 0,12,13
 70 530 70 530 164 587 c 128,-1,14
 258 644 258 644 384 644 c 128,-1,15
 510 644 510 644 600 589 c 128,-1,16
 690 534 690 534 690 416 c 0,0,1
538 424 m 128,-1,18
 538 488 538 488 491 518 c 128,-1,19
 444 548 444 548 383 548 c 128,-1,20
 322 548 322 548 273 518 c 128,-1,21
 224 488 224 488 224 424 c 128,-1,22
 224 360 224 360 273 328 c 128,-1,23
 322 296 322 296 381 296 c 128,-1,24
 440 296 440 296 489 328 c 128,-1,17
 538 360 538 360 538 424 c 128,-1,18
EndSplineSet
Substitution2: "Single substitution combining pa-1" u11374
Substitution2: "Single substitution combining vi-1" u11373
Substitution2: "Single substitution combining na-1" u11372
Substitution2: "Single substitution combining ka-1" u11371
Substitution2: "Single substitution combining a-1" u11370
Substitution2: "Single substitution combining six-1" u1136C
Substitution2: "Single substitution combining five-1" u1136B
Substitution2: "Single substitution combining four-1" u1136A
Substitution2: "Single substitution combining three-1" u11369
Substitution2: "Single substitution combining two-1" u11368
Substitution2: "Single substitution combining one-1" u11367
Substitution2: "Single substitution combining zero-1" u11366
Substitution2: "Single substitution combining asterisk-1" u20F0
Substitution2: "Single substitution prenkha-1" u1CD2
Substitution2: "Single substitution karsana-1" u1CD0
Substitution2: "Single substitution dirghasvarita-1" u0951
Substitution2: "Single substitution svarita-1" u1CF4
Substitution2: "Single substitution anudatta-1" u0952
EndChar

StartChar: u11303
Encoding: 70403 70403 103
Width: 744
Flags: MW
LayerCount: 2
Fore
SplineSet
136 576 m 1,0,-1
 136 588 l 2,1,2
 136 670 136 670 208 718 c 0,3,4
 274 762 274 762 368 762 c 0,5,6
 524 760 524 760 582 664 c 0,7,8
 602 632 602 632 604 588 c 1,9,-1
 604 584 l 1,10,-1
 602 576 l 1,11,12
 600 512 600 512 528 476 c 0,13,14
 464 444 464 444 368 444 c 256,15,16
 220 444 220 444 158 518 c 0,17,18
 138 542 138 542 136 576 c 1,0,-1
136 220 m 2,19,-1
 136 226 l 1,20,21
 144 318 144 318 288 346 c 0,22,23
 328 354 328 354 371 354 c 128,-1,24
 414 354 414 354 455 346 c 128,-1,25
 496 338 496 338 528 322 c 0,26,27
 600 288 600 288 604 224 c 1,28,-1
 604 220 l 2,29,30
 604 136 604 136 532 84 c 0,31,32
 464 38 464 38 368 36 c 0,33,34
 276 36 276 36 208 84 c 0,35,36
 136 136 136 136 136 220 c 2,19,-1
450 578 m 1,37,-1
 450 588 l 1,38,39
 448 632 448 632 424 652 c 128,-1,40
 400 672 400 672 371 672 c 128,-1,41
 342 672 342 672 317 651 c 128,-1,42
 292 630 292 630 292 588 c 2,43,-1
 292 584 l 2,44,45
 292 562 292 562 316 549 c 128,-1,46
 340 536 340 536 369 535 c 128,-1,47
 398 534 398 534 422 545 c 128,-1,48
 446 556 446 556 450 578 c 1,37,-1
450 212 m 1,49,-1
 450 224 l 1,50,51
 442 262 442 262 370 262 c 1,52,53
 342 262 342 262 318 252 c 128,-1,54
 294 242 294 242 292 224 c 1,55,-1
 292 220 l 2,56,57
 292 174 292 174 316 150 c 128,-1,58
 340 126 340 126 369 126 c 128,-1,59
 398 126 398 126 423 148 c 128,-1,60
 448 170 448 170 450 212 c 1,49,-1
EndSplineSet
Substitution2: "Single substitution combining pa-1" u11374
Substitution2: "Single substitution combining vi-1" u11373
Substitution2: "Single substitution combining na-1" u11372
Substitution2: "Single substitution combining ka-1" u11371
Substitution2: "Single substitution combining a-1" u11370
Substitution2: "Single substitution combining six-1" u1136C
Substitution2: "Single substitution combining five-1" u1136B
Substitution2: "Single substitution combining four-1" u1136A
Substitution2: "Single substitution combining three-1" u11369
Substitution2: "Single substitution combining two-1" u11368
Substitution2: "Single substitution combining one-1" u11367
Substitution2: "Single substitution combining zero-1" u11366
Substitution2: "Single substitution combining asterisk-1" u20F0
Substitution2: "Single substitution prenkha-1" u1CD2
Substitution2: "Single substitution karsana-1" u1CD0
Substitution2: "Single substitution dirghasvarita-1" u0951
Substitution2: "Single substitution svarita-1" u1CF4
Substitution2: "Single substitution anudatta-1" u0952
EndChar

StartChar: u11305
Encoding: 70405 70405 104
Width: 1226
Flags: MW
AnchorPoint: "high" 608 804 basechar 0
LayerCount: 2
Fore
SplineSet
394 714 m 1,0,-1
 394 516 l 1,1,-1
 558 516 l 1,2,-1
 558 714 l 1,3,-1
 394 714 l 1,0,-1
558 422 m 1,4,-1
 342 422 l 1,5,6
 250 402 250 402 208 352 c 0,7,8
 178 316 178 316 178 278 c 3,9,10
 178 264 178 264 180 250 c 0,11,12
 196 198 196 198 269 158 c 128,-1,13
 342 118 342 118 482 118 c 3,14,15
 540 118 540 118 556 176 c 0,16,17
 560 190 560 190 558 306 c 0,18,19
 558 354 558 354 558 422 c 1,4,-1
484 0 m 2,20,-1
 476 0 l 2,21,22
 248 0 248 0 144 108 c 0,23,24
 72 182 72 182 70 264 c 0,25,26
 70 298 70 298 82 332 c 0,27,28
 100 388 100 388 148 434 c 128,-1,29
 196 480 196 480 270 502 c 1,30,-1
 270 762 l 2,31,32
 270 806 270 806 332 806 c 2,33,-1
 708 806 l 2,34,35
 868 806 868 806 880 792 c 128,-1,36
 892 778 892 778 892 761 c 131,-1,37
 892 744 892 744 881 729 c 128,-1,38
 870 714 870 714 708 714 c 1,39,-1
 708 516 l 1,40,-1
 1018 516 l 1,41,-1
 1018 612 l 2,42,43
 1018 634 1018 634 1037 647 c 128,-1,44
 1056 660 1056 660 1080 660 c 2,45,46
 1080 660 1080 660 1088 660 c 2,47,48
 1144 660 1144 660 1144 618 c 2,49,-1
 1144 34 l 6,50,51
 1144 20 1144 20 1120 12 c 0,52,53
 1088 0 1088 0 1044 0 c 3,54,55
 990 0 990 0 914 16 c 0,56,57
 796 40 796 40 796 234 c 2,58,-1
 796 422 l 1,59,-1
 708 422 l 1,60,-1
 708 232 l 2,61,62
 708 84 708 84 592 26 c 0,63,64
 540 0 540 0 484 0 c 2,20,-1
1018 422 m 1,65,-1
 894 422 l 1,66,-1
 894 162 l 2,67,68
 894 110 894 110 912 93 c 0,69,70
 938 68 938 68 984 68 c 2,71,-1
 1018 68 l 1,72,-1
 1018 422 l 1,65,-1
EndSplineSet
EndChar

StartChar: u11306
Encoding: 70406 70406 105
Width: 1596
Flags: MW
AnchorPoint: "high" 788 816 basechar 0
LayerCount: 2
Fore
SplineSet
522 724 m 1,0,-1
 522 522 l 1,1,-1
 682 522 l 1,2,-1
 682 724 l 1,3,-1
 522 724 l 1,0,-1
994 428 m 1,4,-1
 994 238 l 2,5,6
 994 158 994 158 1052 96 c 0,7,8
 1082 66 1082 66 1096 66 c 0,9,10
 1112 66 1112 66 1112 98 c 2,11,-1
 1112 428 l 1,12,-1
 994 428 l 1,4,-1
468 428 m 2,13,14
 376 428 376 428 338 358 c 0,15,16
 308 320 308 320 308 282 c 3,17,18
 308 268 308 268 312 256 c 0,19,20
 326 204 326 204 399 162 c 128,-1,21
 472 120 472 120 604 120 c 2,22,-1
 612 120 l 2,23,24
 644 120 644 120 662 138 c 0,25,26
 682 158 682 158 682 186 c 26,27,-1
 682 428 l 1,28,-1
 468 428 l 2,13,14
1230 412 m 1,29,-1
 1230 100 l 2,30,31
 1230 54 1230 54 1200 24 c 0,32,33
 1176 0 1176 0 1130 0 c 2,34,-1
 1108 0 l 2,35,36
 1058 0 1058 0 1012 36 c 0,37,38
 918 104 918 104 918 238 c 2,39,-1
 918 428 l 1,40,-1
 834 428 l 1,41,-1
 834 350 l 2,42,43
 834 132 834 132 806 84 c 0,44,45
 754 0 754 0 622 0 c 131,-1,46
 490 0 490 0 405 34 c 128,-1,47
 320 68 320 68 273 116 c 0,48,49
 224 164 224 164 212 224 c 0,50,51
 208 248 208 248 208 272 c 3,52,53
 208 306 208 306 218 338 c 0,54,55
 236 394 236 394 283 440 c 128,-1,56
 330 486 330 486 404 508 c 1,57,-1
 404 786 l 2,58,59
 404 818 404 818 462 818 c 2,60,-1
 980 818 l 2,61,62
 1020 818 1020 818 1020 764 c 0,63,64
 1020 724 1020 724 978 724 c 2,65,-1
 834 724 l 1,66,-1
 834 522 l 1,67,-1
 1112 522 l 1,68,-1
 1112 648 l 2,69,70
 1112 672 1112 672 1132 684 c 128,-1,71
 1152 696 1152 696 1171 697 c 128,-1,72
 1190 698 1190 698 1210 688 c 128,-1,73
 1230 678 1230 678 1230 654 c 2,74,-1
 1230 506 l 1,75,76
 1436 460 1436 460 1508 312 c 0,77,78
 1530 266 1530 266 1530 236 c 7,79,80
 1530 16 1530 16 1324 -98 c 0,81,82
 1150 -194 1150 -194 870 -194 c 131,-1,83
 590 -194 590 -194 349 -118 c 128,-1,84
 108 -42 108 -42 46 60 c 1,85,-1
 44 62 l 1,86,-1
 158 62 l 1,87,88
 158 26 158 26 215 -10 c 128,-1,89
 272 -46 272 -46 363 -72 c 128,-1,90
 454 -98 454 -98 568 -114 c 128,-1,91
 682 -130 682 -130 800 -130 c 131,-1,92
 918 -130 918 -130 1028 -110 c 0,93,94
 1252 -68 1252 -68 1328 64 c 0,95,96
 1360 120 1360 120 1360 242 c 3,97,98
 1360 270 1360 270 1332 323 c 128,-1,99
 1304 376 1304 376 1230 412 c 1,29,-1
EndSplineSet
EndChar

StartChar: u11307
Encoding: 70407 70407 106
Width: 1226
Flags: MW
AnchorPoint: "high" 612 804 basechar 0
LayerCount: 2
Fore
SplineSet
212 474 m 3,0,1
 212 444 212 444 229 424 c 0,2,3
 246 401 246 401 264 401 c 3,4,5
 279 401 279 401 298 415 c 0,6,7
 316 430 316 430 316 476 c 2,8,-1
 316 486 l 18,9,10
 316 524 316 524 268 524 c 3,11,12
 248 524 248 524 230 511 c 128,-1,13
 212 498 212 498 212 474 c 3,0,1
1096 94 m 0,14,15
 1116 94 1116 94 1127 81 c 128,-1,16
 1138 68 1138 68 1138 51 c 135,-1,17
 1138 34 1138 34 1127 17 c 128,-1,18
 1116 0 1116 0 1096 0 c 2,19,-1
 467 0 l 0,20,21
 340 0 340 0 278 13 c 0,22,23
 216 28 216 28 176 44 c 0,24,25
 100 76 100 76 101 125 c 0,26,27
 100 174 100 174 147 213 c 0,28,29
 191 251 191 251 250 258 c 2,30,-1
 556 292 l 2,31,32
 654 302 654 302 746 334 c 0,33,34
 840 366 840 366 888 412 c 128,-1,35
 936 458 936 458 936 535 c 131,-1,36
 936 612 936 612 898 665 c 0,37,38
 858 724 858 724 812 724 c 2,39,-1
 804 724 l 2,40,41
 770 724 770 724 721 678 c 0,42,43
 666 626 666 626 666 510 c 2,44,-1
 666 426 l 2,45,46
 666 370 666 370 592 370 c 3,47,48
 566 370 566 370 543 382 c 128,-1,49
 520 394 520 394 520 416 c 3,50,51
 520 532 520 532 484 604 c 128,-1,52
 448 676 448 676 400 700 c 0,53,54
 376 712 376 712 352 714 c 0,55,56
 328 714 328 714 302 700 c 0,57,58
 254 674 254 674 230 598 c 1,59,60
 248 600 248 600 264 600 c 3,61,62
 344 600 344 600 396 540 c 0,63,64
 408 526 408 526 415 503 c 0,65,66
 420 488 420 488 420 474 c 3,67,68
 420 366 420 366 330 336 c 0,69,70
 300 326 300 326 270 326 c 3,71,72
 218 326 218 326 166 356 c 0,73,74
 88 402 88 402 88 476 c 3,75,76
 88 614 88 614 147 696 c 0,77,78
 206 776 206 776 282 796 c 0,79,80
 314 804 314 804 348 804 c 3,81,82
 396 804 396 804 448 784 c 0,83,84
 534 752 534 752 592 670 c 1,85,86
 654 776 654 776 784 800 c 0,87,88
 806 804 806 804 824 804 c 3,89,90
 918 804 918 804 992 744 c 0,91,92
 1036 708 1036 708 1068 652 c 0,93,94
 1102 592 1102 592 1102 520 c 3,95,96
 1102 426 1102 426 1024 356 c 0,97,98
 942 284 942 284 842 260 c 0,99,100
 654 212 654 212 586 208 c 0,101,102
 442 198 442 198 324 192 c 0,103,104
 252 188 252 188 224 168 c 0,105,106
 198 148 198 148 204 126 c 0,107,108
 214 86 214 86 326 86 c 0,109,110
 368 89 368 89 426 92 c 24,111,112
 476 94 476 94 522 94 c 2,113,114
 522 94 522 94 1096 94 c 0,14,15
EndSplineSet
EndChar

StartChar: u11308
Encoding: 70408 70408 107
Width: 1472
Flags: MW
AnchorPoint: "high" 724 818 basechar 0
LayerCount: 2
Fore
SplineSet
172 406 m 2,0,-1
 172 402 l 2,1,2
 172 362 172 362 189 349 c 128,-1,3
 206 336 206 336 227 341 c 0,4,5
 248 348 248 348 264 364 c 0,6,7
 278 378 278 378 278 400 c 2,8,-1
 278 412 l 2,9,10
 278 436 278 436 263 450 c 128,-1,11
 248 464 248 464 228 464 c 128,-1,12
 208 464 208 464 192 452 c 0,13,14
 172 436 172 436 172 406 c 2,0,-1
1114 408 m 131,-1,16
 1114 472 1114 472 1154 505 c 128,-1,17
 1194 538 1194 538 1242 538 c 259,18,19
 1290 538 1290 538 1328 506 c 128,-1,20
 1366 474 1366 474 1366 409 c 135,-1,21
 1366 344 1366 344 1329 311 c 128,-1,22
 1292 278 1292 278 1246 278 c 0,23,24
 1200 280 1200 280 1160 312 c 0,25,15
 1114 344 1114 344 1114 408 c 131,-1,16
360 408 m 3,26,27
 360 332 360 332 314 304 c 0,28,29
 270 276 270 276 222 276 c 2,30,31
 222 276 222 276 216 276 c 2,32,33
 164 278 164 278 120 312 c 0,34,35
 82 342 82 342 82 394 c 2,36,-1
 82 408 l 2,37,38
 82 468 82 468 124 500 c 0,39,40
 164 528 164 528 216 532 c 2,41,42
 216 532 216 532 220 532 c 2,43,44
 272 530 272 530 310 504 c 0,45,46
 360 472 360 472 360 408 c 3,26,27
836 82 m 3,47,48
 892 82 892 82 892 118 c 2,49,-1
 892 724 l 1,50,-1
 788 724 l 1,51,-1
 788 102 l 2,52,53
 788 94 788 94 803 88 c 128,-1,54
 818 82 818 82 836 82 c 3,47,48
1042 108 m 2,55,56
 1042 56 1042 56 968 18 c 0,57,58
 928 0 928 0 878 0 c 3,59,60
 866 0 866 0 852 2 c 0,61,62
 790 8 790 8 739 38 c 128,-1,63
 688 68 688 68 688 106 c 2,64,-1
 688 724 l 1,65,-1
 514 724 l 1,66,-1
 514 40 l 2,67,68
 514 0 514 0 468 0 c 0,69,70
 446 0 446 0 427 9 c 128,-1,71
 408 18 408 18 408 36 c 2,72,-1
 408 754 l 1,73,74
 400 774 400 774 411 796 c 128,-1,75
 422 818 422 818 450 818 c 2,76,-1
 1188 818 l 2,77,78
 1226 818 1226 818 1226 771 c 131,-1,79
 1226 724 1226 724 1188 724 c 2,80,-1
 1042 724 l 1,81,-1
 1042 108 l 2,55,56
1184 410 m 3,82,83
 1184 378 1184 378 1202 360 c 128,-1,84
 1220 342 1220 342 1242 342 c 131,-1,85
 1264 342 1264 342 1282 358 c 128,-1,86
 1300 374 1300 374 1300 404 c 131,-1,87
 1300 434 1300 434 1281 451 c 128,-1,88
 1262 468 1262 468 1241 472 c 128,-1,89
 1220 476 1220 476 1202 461 c 128,-1,90
 1184 446 1184 446 1184 410 c 3,82,83
EndSplineSet
EndChar

StartChar: u11309
Encoding: 70409 70409 108
Width: 1226
Flags: MW
AnchorPoint: "high" 640 812 basechar 0
LayerCount: 2
Fore
SplineSet
404 192 m 2,0,-1
 388 192 l 2,1,2
 324 192 324 192 288 170 c 0,3,4
 248 148 248 148 248 127 c 131,-1,5
 248 106 248 106 280 96 c 0,6,7
 296 92 296 92 316 92 c 131,-1,8
 336 92 336 92 360 96 c 0,9,10
 406 106 406 106 412 106 c 2,11,-1
 1120 106 l 2,12,13
 1144 106 1144 106 1158 90 c 128,-1,14
 1172 74 1172 74 1172 54 c 263,15,16
 1172 34 1172 34 1158 17 c 128,-1,17
 1144 0 1144 0 1120 0 c 2,18,-1
 400 0 l 2,19,20
 206 0 206 0 164 56 c 0,21,22
 144 82 144 82 144 110 c 3,23,24
 144 152 144 152 184 196 c 0,25,26
 258 282 258 282 392 282 c 2,27,-1
 402 282 l 2,28,29
 600 282 600 282 638 432 c 0,30,31
 646 464 646 464 646 492 c 3,32,33
 646 530 646 530 628 572 c 0,34,35
 604 628 604 628 540 668 c 0,36,37
 478 706 478 706 416 706 c 26,38,-1
 398 706 l 2,39,40
 344 706 344 706 302 682 c 1,41,42
 302 682 302 682 316 682 c 1,43,44
 428 682 428 682 488 584 c 0,45,46
 508 552 508 552 508 504 c 131,-1,47
 508 456 508 456 490 424 c 0,48,49
 474 392 474 392 446 368 c 0,50,51
 390 324 390 324 312 324 c 259,52,53
 188 324 188 324 128 424 c 0,54,55
 106 460 106 460 106 500 c 2,56,-1
 106 512 l 2,57,58
 106 594 106 594 156 658 c 0,59,60
 212 728 212 728 292 764 c 0,61,62
 392 810 392 810 492 810 c 3,63,64
 572 810 572 810 644 776 c 0,65,66
 726 738 726 738 776 656 c 0,67,68
 822 582 822 582 822 464 c 3,69,70
 822 450 822 450 822 436 c 0,71,72
 822 406 822 406 797 364 c 128,-1,73
 772 322 772 322 722 284 c 0,74,75
 600 192 600 192 404 192 c 2,0,-1
216 500 m 3,76,77
 216 444 216 444 244 420 c 0,78,79
 268 396 268 396 300 396 c 0,80,-1
 302 396 l 0,81,82
 336 396 336 396 365 423 c 128,-1,83
 394 450 394 450 394 504 c 3,84,85
 394 552 394 552 366 576 c 0,86,87
 340 600 340 600 308 598 c 0,88,89
 284 598 284 598 250 574 c 128,-1,90
 216 550 216 550 216 500 c 3,76,77
EndSplineSet
EndChar

StartChar: u1130A
Encoding: 70410 70410 109
Width: 1472
Flags: MW
AnchorPoint: "high" 740 804 basechar 0
LayerCount: 2
Fore
SplineSet
1266 106 m 2
 1284 106 1284 106 1292 90 c 0
 1302 68 1302 68 1302 56 c 3
 1302 40 1302 40 1292 20 c 0
 1284 0 1284 0 1266 0 c 2
 282 0 l 2
 168 0 168 0 124 54 c 0
 100 82 100 82 100 118 c 3
 100 160 100 160 128 196 c 0
 184 274 184 274 312 274 c 2
 332 274 l 2
 414 274 414 274 468 336 c 0
 508 380 508 380 508 438 c 3
 508 582 508 582 456 650 c 0
 404 718 404 718 348 718 c 3
 294 718 294 718 260 692 c 1
 328 692 328 692 380 642 c 0
 432 592 432 592 434 504 c 0
 434 416 434 416 384 370 c 0
 334 322 334 322 260 322 c 3
 152 322 152 322 100 424 c 0
 78 468 78 468 78 504 c 3
 78 594 78 594 120 662 c 0
 206 804 206 804 356 804 c 2
 366 804 l 2
 540 804 540 804 594 652 c 0
 636 530 636 530 636 444 c 2
 636 442 l 2
 636 418 636 418 620 370 c 0
 604 320 604 320 568 280 c 0
 494 200 494 200 370 200 c 2
 318 200 l 2
 260 200 260 200 228 180 c 0
 196 160 196 160 192 138 c 0
 188 114 188 114 216 104 c 0
 234 98 234 98 246 98 c 0
 292 106 292 106 306 106 c 2
 1266 106 l 2
208 586 m 0
 186 560 186 560 186 508 c 3
 186 456 186 456 208 428 c 0
 232 402 232 402 260 402 c 3
 288 402 288 402 310 428 c 0
 334 456 334 456 334 508 c 3
 334 560 334 560 310 586 c 0
 288 612 288 612 260 612 c 3
 232 612 232 612 208 586 c 0
EndSplineSet
Refer: 164 70487 N 0.6 0 0 0.6 636 168 2
EndChar

StartChar: u1130B
Encoding: 70411 70411 110
Width: 1228
Flags: MW
AnchorPoint: "high" 620 820 basechar 0
LayerCount: 2
Fore
SplineSet
404 652 m 0,0,1
 420 672 420 672 420 696 c 128,-1,2
 420 720 420 720 396 736 c 128,-1,3
 372 752 372 752 330 760 c 0,4,5
 314 762 314 762 300 764 c 0,6,7
 276 764 276 764 256 756 c 0,8,9
 234 748 234 748 236 710 c 0,10,11
 236 696 236 696 240 676 c 0,12,13
 248 632 248 632 316 620 c 0,14,15
 326 618 326 618 334 618 c 0,16,17
 374 620 374 620 404 652 c 0,0,1
878 738 m 0,18,19
 850 724 850 724 850 696 c 0,20,21
 852 668 852 668 868 648 c 0,22,23
 896 616 896 616 932 618 c 0,24,25
 940 618 940 618 950 620 c 0,26,27
 996 630 996 630 1004 644 c 16,28,29
 1024 682 1024 682 1024 706 c 0,30,31
 1024 736 1024 736 1000 748 c 0,32,33
 974 760 974 760 948 758 c 0,34,35
 914 758 914 758 878 738 c 0,18,19
628 104 m 1,36,37
 542 0 542 0 414 0 c 0,38,39
 272 0 272 0 188 86 c 0,40,41
 152 124 152 124 136 172 c 0,42,43
 130 192 130 192 130 212 c 0,44,45
 132 240 132 240 144 268 c 0,46,47
 164 316 164 316 233 357 c 128,-1,48
 302 398 302 398 416 424 c 1,49,50
 324 450 324 450 254 500 c 0,51,52
 118 598 118 598 118 698 c 0,53,54
 118 782 118 782 228 810 c 0,55,56
 266 820 266 820 308 820 c 0,57,58
 368 820 368 820 432 798 c 0,59,60
 544 760 544 760 542 698 c 0,61,62
 542 632 542 632 476 596 c 0,63,64
 418 564 418 564 330 564 c 1,65,66
 434 472 434 472 622 472 c 0,67,68
 814 472 814 472 930 564 c 1,69,70
 850 564 850 564 806 588 c 0,71,72
 726 634 726 634 726 698 c 0,73,74
 728 728 728 728 760 756 c 0,75,76
 826 810 826 810 940 818 c 0,77,78
 956 820 956 820 968 820 c 4,79,80
 1010 820 1010 820 1042 810 c 0,81,82
 1124 784 1124 784 1124 682 c 0,83,84
 1124 662 1124 662 1120 638 c 0,85,86
 1110 564 1110 564 1031 507 c 128,-1,87
 952 450 952 450 854 422 c 1,88,89
 1036 382 1036 382 1092 272 c 0,90,91
 1108 240 1108 240 1110 206 c 0,92,93
 1108 148 1108 148 1064 92 c 0,94,95
 988 0 988 0 853 0 c 128,-1,96
 718 0 718 0 628 104 c 1,36,37
562 266 m 1,97,-1
 562 276 l 2,98,99
 562 294 562 294 584 304 c 128,-1,100
 606 314 606 314 632 314 c 128,-1,101
 658 314 658 314 682 304 c 128,-1,102
 706 294 706 294 708 276 c 1,103,-1
 708 266 l 2,104,105
 708 148 708 148 784 102 c 0,106,107
 812 86 812 86 862 86 c 128,-1,108
 912 86 912 86 944 105 c 128,-1,109
 976 124 976 124 992 152 c 0,110,111
 1002 170 1002 170 1002 190 c 0,112,113
 1002 202 1002 202 1000 214 c 0,114,115
 980 288 980 288 828 334 c 0,116,117
 732 366 732 366 630 365 c 128,-1,118
 528 364 528 364 422 334 c 0,119,120
 274 288 274 288 260 214 c 0,121,122
 258 204 258 204 258 194 c 0,123,124
 258 140 258 140 322 108 c 0,125,126
 358 92 358 92 406 91 c 128,-1,127
 454 90 454 90 481 106 c 128,-1,128
 508 122 508 122 524 148 c 0,129,130
 558 202 558 202 562 266 c 1,97,-1
EndSplineSet
EndChar

StartChar: u1130C
Encoding: 70412 70412 111
Width: 1650
Flags: MW
AnchorPoint: "high" 838 816 basechar 0
LayerCount: 2
Fore
SplineSet
1392 722 m 1,0,-1
 1572 722 l 5,1,-1
 1572 818 l 1,2,-1
 676 818 l 1,3,-1
 676 628 l 1,4,5
 660 658 660 658 636 698 c 0,6,7
 592 780 592 780 480 810 c 0,8,9
 450 818 450 818 418 816 c 0,10,11
 384 814 384 814 348 806 c 0,12,13
 280 790 280 790 234 745 c 128,-1,14
 188 700 188 700 160 642 c 0,15,16
 102 522 102 522 102 374 c 131,-1,17
 102 226 102 226 158 122 c 0,18,19
 226 0 226 0 340 0 c 2,20,-1
 358 0 l 2,21,22
 404 0 404 0 441 41 c 128,-1,23
 478 82 478 82 496 146 c 0,24,25
 512 198 512 198 512 256 c 2,26,-1
 512 274 l 2,27,28
 512 336 512 336 477 396 c 0,29,30
 446 450 446 450 384 478 c 0,31,32
 350 494 350 494 302 494 c 0,33,34
 266 494 266 494 222 484 c 1,35,36
 238 576 238 576 270 626 c 128,-1,37
 302 676 302 676 368 692 c 1,38,-1
 442 692 l 1,39,40
 518 666 518 666 594 566 c 0,41,42
 672 462 672 462 672 380 c 2,43,-1
 672 0 l 1,44,-1
 802 0 l 1,45,-1
 802 722 l 1,46,-1
 996 722 l 1,47,-1
 996 152 l 2,48,49
 996 126 996 126 1049 73 c 0,50,51
 1096 26 1096 26 1140 10 c 0,52,53
 1168 0 1168 0 1196 0 c 3,54,55
 1252 0 1252 0 1304 40 c 0,56,57
 1346 72 1346 72 1369 125 c 128,-1,58
 1392 178 1392 178 1392 214 c 2,59,-1
 1392 722 l 1,0,-1
1266 722 m 1,60,-1
 1266 220 l 2,61,62
 1267 90 1267 90 1210 90 c 3,63,64
 1197 90 1197 90 1159 110 c 0,65,66
 1118 134 1118 134 1118 190 c 2,67,-1
 1118 722 l 1,68,-1
 1266 722 l 1,60,-1
222 372 m 24,69,70
 234 385 234 385 250 392 c 24,71,72
 277 402 277 402 302 402 c 3,73,74
 360 402 360 402 394 346 c 0,75,76
 420 302 420 302 420 248 c 3,77,78
 420 218 420 218 412 184 c 0,79,80
 390 90 390 90 336 90 c 3,81,82
 264 90 264 90 222 166 c 0,83,84
 192 216 192 216 192 278 c 3,85,86
 192 317 192 317 198 336 c 24,87,88
 202 352 202 352 222 372 c 24,69,70
EndSplineSet
EndChar

StartChar: u1130F
Encoding: 70415 70415 112
Width: 2262
Flags: MW
AnchorPoint: "high" 1046 816 basechar 0
LayerCount: 2
Fore
SplineSet
192 304 m 0,0,1
 192 232 192 232 224 158 c 0,2,3
 248 108 248 108 274 95 c 128,-1,4
 300 82 300 82 321 100 c 128,-1,5
 342 118 342 118 344 156 c 2,6,7
 344 156 344 156 344 188 c 2,8,9
 344 218 344 218 326 256 c 128,-1,10
 308 294 308 294 283 316 c 128,-1,11
 258 338 258 338 232 336 c 0,12,13
 194 334 194 334 192 304 c 0,0,1
1564 630 m 1,14,15
 1450 538 1450 538 1450 352 c 2,16,-1
 1450 350 l 2,17,18
 1452 216 1452 216 1484 148 c 0,19,20
 1516 82 1516 82 1554 80 c 0,21,-1
 1556 80 l 0,22,23
 1596 80 1596 80 1629 148 c 128,-1,24
 1662 216 1662 216 1662 350 c 0,25,26
 1662 540 1662 540 1564 630 c 1,14,15
2216 754 m 128,-1,28
 2216 708 2216 708 2182 708 c 2,29,-1
 2052 708 l 1,30,-1
 2052 52 l 2,31,32
 2052 32 2052 32 2032 16 c 128,-1,33
 2012 0 2012 0 1984 0 c 0,34,35
 1912 0 1912 0 1912 52 c 2,36,-1
 1912 708 l 1,37,-1
 1864 708 l 24,38,-1
 1674 684 l 1,39,40
 1794 548 1794 548 1794 350 c 2,41,-1
 1794 344 l 2,42,43
 1794 232 1794 232 1758 153 c 128,-1,44
 1722 74 1722 74 1672 36 c 0,45,46
 1624 -2 1624 -2 1568 -2 c 0,47,-1
 1564 0 l 0,48,49
 1508 0 1508 0 1456 40 c 0,50,51
 1342 128 1342 128 1342 348 c 3,52,53
 1342 558 1342 558 1482 682 c 1,54,55
 1430 696 1430 696 1396 696 c 2,56,-1
 1392 696 l 2,57,58
 1282 696 1282 696 1214 580 c 0,59,60
 1140 454 1140 454 1140 320 c 0,61,62
 1140 312 1140 312 1140 304 c 0,63,64
 1140 174 1140 174 1200 104 c 1,65,66
 1222 100 1222 100 1228 76 c 0,67,68
 1232 64 1232 64 1232 44 c 3,69,70
 1232 0 1232 0 1184 0 c 2,71,-1
 520 0 l 2,72,73
 511 0 511 0 504 12 c 2,74,-1
 498 22 l 2,75,76
 494 28 494 28 494 40 c 2,77,-1
 494 54 l 2,78,79
 494 69 494 69 500 76 c 2,80,-1
 512 90 l 2,81,82
 518 98 518 98 532 98 c 2,83,-1
 536 98 l 2,84,85
 548 98 548 98 576 126 c 128,-1,86
 604 154 604 154 632 196 c 0,87,88
 696 296 696 296 696 392 c 0,89,90
 696 398 696 398 696 402 c 0,91,92
 696 492 696 492 666 552 c 0,93,94
 632 616 632 616 584 654 c 0,95,96
 544 684 544 684 476 698 c 0,97,98
 466 700 466 700 454 700 c 0,99,100
 406 700 406 700 360 676 c 0,101,102
 304 648 304 648 256 584 c 128,-1,103
 208 520 208 520 186 416 c 1,104,105
 196 418 196 418 206 418 c 0,106,107
 276 418 276 418 360 348 c 0,108,109
 452 268 452 268 452 186 c 3,110,111
 452 132 452 132 422 76 c 0,112,113
 384 0 384 0 305 0 c 128,-1,114
 226 0 226 0 176 56 c 0,115,116
 76 168 76 168 76 366 c 3,117,118
 76 386 76 386 78 408 c 24,119,120
 118 686 118 686 316 780 c 0,121,122
 388 814 388 814 466 814 c 0,123,124
 482 814 482 814 498 812 c 0,125,126
 594 804 594 804 675 754 c 128,-1,127
 756 704 756 704 809 616 c 128,-1,128
 862 528 862 528 862 424 c 0,129,130
 862 244 862 244 700 98 c 1,131,-1
 1078 98 l 1,132,133
 1028 182 1028 182 1028 326 c 0,134,135
 1028 336 1028 336 1028 348 c 0,136,137
 1036 650 1036 650 1224 762 c 0,138,139
 1297 816 1297 816 1396 816 c 7,140,141
 1506 816 1506 816 1598 754 c 1,142,143
 1704 800 1704 800 1864 800 c 2,144,-1
 2182 800 l 2,145,27
 2216 800 2216 800 2216 754 c 128,-1,28
EndSplineSet
EndChar

StartChar: u11313
Encoding: 70419 70419 114
Width: 1470
Flags: MW
AnchorPoint: "high" 696 812 basechar 0
LayerCount: 2
Fore
SplineSet
1036 -198 m 2,0,1
 1036 -242 1036 -242 978 -242 c 128,-1,2
 920 -242 920 -242 920 -198 c 2,3,-1
 920 0 l 1,4,-1
 582 0 l 2,5,6
 571 0 571 0 564 12 c 2,7,-1
 558 22 l 2,8,9
 556 26 556 26 556 36 c 2,10,-1
 556 60 l 2,11,12
 556 80 556 80 568 85 c 2,13,-1
 582 91 l 2,14,15
 584 92 584 92 588 92 c 2,16,-1
 606 92 l 2,17,18
 760 92 760 92 862 168 c 0,19,20
 960 240 960 240 972 368 c 1,21,22
 970 440 970 440 958 498 c 0,23,24
 944 556 944 556 904 596 c 0,25,26
 818 682 818 682 590 690 c 0,27,28
 466 694 466 694 352 624 c 0,29,30
 244 558 244 558 194 416 c 1,31,32
 230 428 230 428 262 428 c 0,33,34
 318 428 318 428 368 396 c 0,35,36
 456 340 456 340 456 226 c 0,37,38
 456 144 456 144 401 103 c 0,39,40
 342 60 342 60 276 60 c 2,41,-1
 270 60 l 2,42,43
 204 60 204 60 148 96 c 0,44,45
 92 130 92 130 74 202 c 0,46,47
 70 218 70 218 70 226 c 0,48,49
 70 464 70 464 196 624 c 0,50,51
 344 812 344 812 590 812 c 0,52,53
 990 812 990 812 1122 592 c 0,54,55
 1168 514 1168 514 1168 396 c 0,56,57
 1168 382 1168 382 1168 368 c 0,58,59
 1168 266 1168 266 1060 162 c 0,60,61
 1020 124 1020 124 966 92 c 1,62,-1
 1262 92 l 2,63,64
 1288 92 1288 92 1305 78 c 128,-1,65
 1322 64 1322 64 1322 46 c 132,-1,66
 1322 28 1322 28 1308 14 c 128,-1,67
 1294 0 1294 0 1262 0 c 2,68,-1
 1036 0 l 1,69,-1
 1036 -198 l 2,0,1
196 316 m 0,70,71
 164 288 164 288 164 232 c 128,-1,72
 164 176 164 176 196 151 c 128,-1,73
 228 126 228 126 264 126 c 128,-1,74
 300 126 300 126 332 151 c 128,-1,75
 364 176 364 176 364 230 c 128,-1,76
 364 284 364 284 333 314 c 0,77,78
 298 346 298 346 262 346 c 131,-1,79
 226 346 226 346 196 316 c 0,70,71
EndSplineSet
EndChar

StartChar: u11315
Encoding: 70421 70421 116
Width: 1144
Flags: MW
AnchorPoint: "high" 572 820 basechar 0
AnchorPoint: "low" 572 0 basechar 0
LayerCount: 2
Fore
SplineSet
760 64 m 0,0,1
 744 82 744 82 732 128 c 0,2,3
 724 162 724 162 724 198 c 3,4,5
 724 212 724 212 726 226 c 0,6,7
 734 338 734 338 784 424 c 1,8,-1
 626 424 l 1,9,-1
 626 298 l 2,10,11
 626 162 626 162 604 100 c 0,12,13
 580 26 580 26 540 8 c 0,14,15
 522 0 522 0 506 0 c 3,16,17
 488 0 488 0 468 8 c 0,18,19
 428 28 428 28 396 70 c 1,20,21
 358 0 358 0 300 0 c 3,22,23
 260 0 260 0 208 32 c 0,24,25
 160 64 160 64 124 124 c 0,26,27
 84 190 84 190 82 262 c 0,28,29
 82 324 82 324 120 388 c 0,30,31
 160 456 160 456 264 504 c 1,32,-1
 264 776 l 2,33,34
 264 804 264 804 296 814 c 24,35,36
 320 822 320 822 362 822 c 2,37,-1
 736 822 l 6,38,39
 766 822 766 822 784 807 c 132,-1,40
 802 792 802 792 802 774 c 135,-1,41
 802 756 802 756 784 742 c 132,-1,42
 766 728 766 728 728 728 c 6,43,-1
 626 728 l 1,44,-1
 626 520 l 1,45,46
 738 520 738 520 852 520 c 256,47,48
 992 520 992 520 1040 384 c 0,49,50
 1062 320 1062 320 1062 254 c 3,51,52
 1062 190 1062 190 1046 136 c 0,53,54
 1008 0 1008 0 896 0 c 3,55,56
 816 0 816 0 760 64 c 0,0,1
504 424 m 1,57,-1
 312 424 l 24,58,59
 232 388 232 388 204 338 c 0,60,61
 178 294 178 294 178 252 c 3,62,63
 178 198 178 198 209 158 c 0,64,65
 236 124 236 124 266 116 c 128,-1,66
 296 108 296 108 320 136 c 0,67,68
 350 168 350 168 350 208 c 2,69,70
 350 208 350 208 350 287 c 2,71,72
 350 300 350 300 370 312 c 0,73,74
 390 326 390 326 408 309 c 0,75,76
 418 300 418 300 418 290 c 2,77,-1
 418 209 l 2,78,79
 418 172 418 172 442 138 c 0,80,81
 458 116 458 116 468 116 c 3,82,83
 504 116 504 116 504 244 c 2,84,-1
 504 424 l 1,57,-1
804 196 m 3,85,86
 804 148 804 148 818 126 c 24,87,88
 850 76 850 76 890 80 c 128,-1,89
 930 84 930 84 958 134 c 0,90,91
 986 182 986 182 992 228 c 0,92,93
 994 242 994 242 994 256 c 3,94,95
 994 292 994 292 982 332 c 0,96,97
 962 396 962 396 927 414 c 128,-1,98
 892 432 892 432 880 420 c 24,99,100
 804 342 804 342 804 216 c 0,101,102
 804 206 804 206 804 196 c 3,85,86
362 728 m 1,103,-1
 362 520 l 1,104,-1
 504 520 l 1,105,-1
 504 728 l 1,106,-1
 362 728 l 1,103,-1
EndSplineSet
EndChar

StartChar: u11316
Encoding: 70422 70422 117
Width: 1964
Flags: MW
AnchorPoint: "high" 972 814 basechar 0
AnchorPoint: "low" 972 0 basechar 0
LayerCount: 2
Fore
SplineSet
816 94 m 0,0,1
 832 134 832 134 874 156 c 128,-1,2
 916 178 916 178 970 197 c 128,-1,3
 1024 216 1024 216 1068 238 c 128,-1,4
 1112 260 1112 260 1156 308 c 0,5,6
 1204 362 1204 362 1194 404 c 0,7,8
 1192 412 1192 412 1192 422 c 0,9,10
 1184 488 1184 488 1119 560 c 128,-1,11
 1054 632 1054 632 959 664 c 0,12,13
 852 698 852 698 752 698 c 0,14,15
 740 698 740 698 730 700 c 0,16,17
 632 700 632 700 538 676 c 0,18,19
 434 650 434 650 348 592 c 128,-1,20
 262 534 262 534 222 442 c 1,21,22
 250 448 250 448 280 448 c 0,23,24
 326 450 326 450 378 434 c 0,25,26
 568 376 568 376 558 230 c 0,27,28
 556 202 556 202 552 174 c 0,29,30
 540 106 540 106 497 64 c 0,31,32
 454 20 454 20 392 6 c 0,33,34
 364 0 364 0 336 0 c 0,35,36
 234 0 234 0 154 100 c 0,37,38
 76 198 76 198 76 309 c 128,-1,39
 76 420 76 420 130 513 c 128,-1,40
 184 606 184 606 274 670 c 128,-1,41
 364 734 364 734 480 768 c 128,-1,42
 596 802 596 802 718 810 c 0,43,44
 752 812 752 812 786 812 c 0,45,46
 876 814 876 814 960 798 c 0,47,48
 1210 754 1210 754 1330 600 c 0,49,50
 1404 506 1404 506 1402 414 c 0,51,52
 1398 264 1398 264 1188 174 c 2,53,54
 1188 174 1188 174 1010 98 c 25,55,-1
 1732 98 l 1,56,-1
 1732 764 l 2,57,58
 1732 786 1732 786 1754 796 c 128,-1,59
 1776 806 1776 806 1800 806 c 256,60,61
 1824 806 1824 806 1846 795 c 128,-1,62
 1868 784 1868 784 1868 762 c 2,63,-1
 1868 50 l 2,64,65
 1868 26 1868 26 1846 14 c 1,66,-1
 1802 0 l 1,67,-1
 826 0 l 1,68,69
 810 32 810 32 810 60 c 0,70,71
 810 78 810 78 816 94 c 0,0,1
228 186 m 0,72,73
 276 94 276 94 352 92 c 0,74,75
 358 94 358 94 362 94 c 0,76,77
 398 98 398 98 423 121 c 0,78,79
 448 142 448 142 456 182 c 0,80,81
 458 196 458 196 458 208 c 0,82,83
 458 288 458 288 364 344 c 0,84,85
 316 374 316 374 276 374 c 0,86,87
 252 374 252 374 230 362 c 0,88,89
 192 342 192 342 192 298 c 128,-1,90
 192 254 192 254 228 186 c 0,72,73
EndSplineSet
EndChar

StartChar: u11317
Encoding: 70423 70423 118
Width: 1140
Flags: MW
AnchorPoint: "high" 560 814 basechar 0
AnchorPoint: "low" 560 0 basechar 0
LayerCount: 2
Fore
SplineSet
796 670 m 0,0,1
 776 642 776 642 754 561 c 128,-1,2
 732 480 732 480 730 413 c 128,-1,3
 728 346 728 346 694 308 c 128,-1,4
 660 270 660 270 610 262 c 0,5,6
 596 260 596 260 582 258 c 0,7,8
 544 258 544 258 502 274 c 0,9,10
 444 298 444 298 396 358 c 0,11,12
 286 498 286 498 286 762 c 0,13,14
 286 770 286 770 286 778 c 1,15,-1
 288 778 l 1,16,17
 288 794 288 794 307 803 c 128,-1,18
 326 812 326 812 350 812 c 128,-1,19
 374 812 374 812 393 803 c 128,-1,20
 412 794 412 794 412 778 c 0,21,22
 412 592 412 592 442 493 c 128,-1,23
 472 394 472 394 508 358 c 0,24,25
 532 334 532 334 552 336 c 0,26,27
 562 336 562 336 572 342 c 0,28,29
 602 360 602 360 602 410 c 2,30,-1
 602 418 l 1,31,32
 637 725 637 725 760 790 c 0,33,34
 794 808 794 808 828 808 c 0,35,36
 848 808 848 808 868 802 c 0,37,38
 930 782 930 782 973 738 c 0,39,40
 1025 685 1025 685 1040 638 c 0,41,42
 1058 582 1058 582 1060 514 c 0,43,44
 1060 452 1060 452 1044 378 c 0,45,46
 1031 315 1031 315 972 218 c 0,47,48
 837 -3 837 -3 584 -2 c 6,49,-1
 110 0 l 2,50,51
 86 0 86 0 74 14 c 128,-1,52
 62 28 62 28 62 46 c 132,-1,53
 62 64 62 64 72 80 c 128,-1,54
 82 96 82 96 106 96 c 2,55,-1
 586 96 l 2,56,57
 734 96 734 96 820 230 c 0,58,59
 900 356 900 356 902 520 c 0,60,61
 902 630 902 630 868 674 c 0,62,63
 852 696 852 696 834 696 c 0,64,65
 814 696 814 696 796 670 c 0,0,1
EndSplineSet
EndChar

StartChar: u11318
Encoding: 70424 70424 119
Width: 1838
Flags: MW
AnchorPoint: "high" 910 812 basechar 0
AnchorPoint: "low" 912 0 basechar 0
LayerCount: 2
Fore
SplineSet
232 184 m 0,0,1
 276 94 276 94 340 94 c 0,2,3
 346 94 346 94 352 94 c 0,4,5
 384 98 384 98 406 122 c 128,-1,6
 428 146 428 146 434 190 c 0,7,8
 436 200 436 200 436 212 c 0,9,10
 436 290 436 290 346 342 c 0,11,12
 302 368 302 368 268 368 c 0,13,14
 248 370 248 370 232 358 c 0,15,16
 200 338 200 338 200 294 c 0,17,18
 200 252 200 252 232 184 c 0,0,1
790 88 m 1,19,-1
 1158 88 l 1,20,-1
 1158 766 l 2,21,22
 1158 788 1158 788 1178 799 c 128,-1,23
 1198 810 1198 810 1221 810 c 128,-1,24
 1244 810 1244 810 1265 799 c 128,-1,25
 1286 788 1286 788 1286 766 c 2,26,-1
 1286 88 l 1,27,28
 1428 88 1428 88 1568 88 c 1,29,-1
 1568 762 l 2,30,31
 1568 806 1568 806 1648 806 c 128,-1,32
 1728 806 1728 806 1728 766 c 2,33,-1
 1728 66 l 2,34,35
 1728 36 1728 36 1695 16 c 0,36,37
 1668 0 1668 0 1642 0 c 2,38,-1
 642 0 l 1,39,-1
 642 88 l 1,40,41
 738 92 738 92 768 298 c 0,42,43
 776 354 776 354 776 429 c 128,-1,44
 776 504 776 504 740 569 c 128,-1,45
 704 634 704 634 649 670 c 0,46,47
 614 692 614 692 528 710 c 0,48,49
 518 712 518 712 508 712 c 0,50,51
 452 710 452 710 396 686 c 0,52,53
 256 622 256 622 210 430 c 1,54,55
 240 442 240 442 280 442 c 0,56,57
 366 442 366 442 438 390 c 0,58,59
 530 322 530 322 530 222 c 0,60,61
 530 198 530 198 524 172 c 0,62,63
 510 106 510 106 467 63 c 0,64,65
 428 24 428 24 364 6 c 0,66,67
 342 0 342 0 320 0 c 0,68,69
 284 -2 284 -2 248 14 c 0,70,71
 192 38 192 38 146 108 c 0,72,73
 96 184 96 184 96 316 c 0,74,75
 96 322 96 322 96 328 c 0,76,77
 96 458 96 458 156 568 c 0,78,79
 218 682 218 682 311 740 c 0,80,81
 396 794 396 794 512 806 c 0,82,83
 530 808 530 808 548 808 c 0,84,85
 636 810 636 810 712 774 c 0,86,87
 804 730 804 730 871 635 c 128,-1,88
 938 540 938 540 938 428 c 0,89,90
 938 210 938 210 790 88 c 1,19,-1
EndSplineSet
EndChar

StartChar: u11319
Encoding: 70425 70425 120
Width: 1214
Flags: MW
AnchorPoint: "high" 614 802 basechar 0
AnchorPoint: "low" 614 -290 basechar 0
LayerCount: 2
Fore
SplineSet
1096 0 m 2,0,-1
 712 0 l 1,1,-1
 712 -258 l 1,2,3
 688 -290 688 -290 660 -290 c 0,4,5
 636 -290 636 -290 610 -268 c 1,6,-1
 610 0 l 1,7,-1
 432 0 l 2,8,9
 190 0 190 0 120 78 c 0,10,11
 102 98 102 98 102 134 c 128,-1,12
 102 170 102 170 147 209 c 0,13,14
 193 249 193 249 250 254 c 2,15,-1
 292 258 l 1,16,17
 498 280 498 280 584 292 c 0,18,19
 672 306 672 306 756 334 c 0,20,21
 936 394 936 394 936 524 c 0,22,23
 936 608 936 608 898 661 c 0,24,25
 858 718 858 718 812 718 c 0,26,27
 808 718 808 718 804 720 c 0,28,29
 760 722 760 722 724 674 c 0,30,31
 684 622 684 622 666 504 c 1,32,-1
 666 422 l 2,33,34
 666 366 666 366 592 366 c 0,35,36
 566 366 566 366 543 378 c 128,-1,37
 520 390 520 390 520 412 c 0,38,39
 520 528 520 528 484 600 c 0,40,41
 448 674 448 674 400 698 c 0,42,43
 376 710 376 710 352 710 c 128,-1,44
 328 710 328 710 302 696 c 0,45,46
 254 670 254 670 230 594 c 1,47,48
 248 596 248 596 264 596 c 0,49,50
 350 596 350 596 396 536 c 0,51,52
 420 506 420 506 420 470 c 0,53,54
 420 362 420 362 332 334 c 0,55,56
 300 324 300 324 270 324 c 0,57,58
 216 326 216 326 166 354 c 0,59,60
 88 400 88 400 88 468 c 0,61,62
 88 610 88 610 148 692 c 0,63,64
 204 766 204 766 282 790 c 0,65,66
 314 800 314 800 348 800 c 0,67,68
 396 802 396 802 448 782 c 0,69,70
 534 750 534 750 592 666 c 1,71,72
 636 770 636 770 768 794 c 0,73,74
 810 802 810 802 846 800 c 0,75,76
 1060 800 1060 800 1064 528 c 1,77,78
 1064 326 1064 326 842 254 c 0,79,80
 728 218 728 218 586 202 c 1,81,-1
 284 184 l 2,82,83
 248 182 248 182 223 163 c 128,-1,84
 198 144 198 144 204 122 c 0,85,86
 216 82 216 82 332 82 c 0,87,88
 376 82 376 82 434 88 c 9,89,90
 432 92 432 92 1096 92 c 0,91,92
 1116 92 1116 92 1127 78 c 128,-1,93
 1138 64 1138 64 1138 47 c 128,-1,94
 1138 30 1138 30 1127 15 c 128,-1,95
 1116 0 1116 0 1096 0 c 2,0,-1
229 506 m 0,96,97
 212 494 212 494 210 464 c 128,-1,98
 208 434 208 434 228 418 c 0,99,100
 250 398 250 398 272 396 c 0,101,102
 286 398 286 398 300 406 c 0,103,104
 318 418 318 418 318 460 c 0,105,106
 318 520 318 520 268 520 c 0,107,108
 268 518 268 518 264 518 c 0,109,110
 248 518 248 518 229 506 c 0,96,97
EndSplineSet
EndChar

StartChar: u1131A
Encoding: 70426 70426 121
Width: 1664
Flags: MW
AnchorPoint: "high" 830 804 basechar 0
AnchorPoint: "low" 830 0 basechar 0
LayerCount: 2
Fore
SplineSet
1562 0 m 1,0,1
 830 0 830 0 96 0 c 1,2,-1
 96 82 l 1,3,4
 192 78 192 78 274 78 c 0,5,6
 652 78 652 78 760 174 c 0,7,8
 834 240 834 240 834 314 c 0,9,10
 834 374 834 374 788 438 c 0,11,12
 754 486 754 486 684 514 c 0,13,14
 622 538 622 538 568 538 c 0,15,16
 490 538 490 538 430 488 c 1,17,18
 444 490 444 490 458 490 c 0,19,20
 542 490 542 490 608 446 c 0,21,22
 684 398 684 398 684 312 c 0,23,24
 684 218 684 218 612 168 c 0,25,26
 544 120 544 120 460 120 c 128,-1,27
 376 120 376 120 310 166 c 0,28,29
 246 212 246 212 242 304 c 1,30,-1
 242 322 l 1,31,32
 256 444 256 444 316 518 c 0,33,34
 376 594 376 594 456 626 c 0,35,36
 524 654 524 654 600 652 c 0,37,38
 614 652 614 652 628 652 c 0,39,40
 718 646 718 646 797 605 c 0,41,42
 876 566 876 566 924 490 c 0,43,44
 968 424 968 424 968 330 c 0,45,46
 968 318 968 318 968 306 c 0,47,48
 958 154 958 154 832 82 c 1,49,50
 1342 82 1342 82 1394 80 c 1,51,-1
 1394 704 l 2,52,53
 1394 760 1394 760 1420 781 c 128,-1,54
 1446 802 1446 802 1479 801 c 128,-1,55
 1512 800 1512 800 1537 776 c 128,-1,56
 1562 752 1562 752 1562 710 c 2,57,-1
 1562 0 l 1,0,1
358 308 m 1,58,-1
 356 308 l 1,59,60
 356 264 356 264 389 241 c 0,61,62
 420 218 420 218 460 218 c 0,63,64
 462 218 462 218 464 216 c 0,65,66
 500 216 500 216 532 238 c 128,-1,67
 564 260 564 260 566 308 c 1,68,-1
 564 308 l 1,69,70
 564 354 564 354 532 374 c 0,71,72
 504 392 504 392 468 390 c 0,73,74
 464 390 464 390 460 390 c 0,75,76
 420 388 420 388 389 366 c 128,-1,77
 358 344 358 344 358 308 c 1,58,-1
EndSplineSet
EndChar

StartChar: u1131B
Encoding: 70427 70427 122
Width: 1660
Flags: MW
AnchorPoint: "high" 822 810 basechar 0
AnchorPoint: "low" 822 0 basechar 0
LayerCount: 2
Fore
SplineSet
104 96 m 1,0,-1
 382 96 l 2,1,2
 624 96 624 96 706 133 c 128,-1,3
 788 170 788 170 824 212 c 0,4,5
 868 252 868 252 868 328 c 131,-1,6
 868 404 868 404 820 460 c 0,7,8
 776 516 776 516 712 544 c 0,9,10
 666 564 666 564 612 564 c 0,11,12
 596 564 596 564 580 562 c 0,13,14
 512 554 512 554 460 502 c 1,15,16
 476 504 476 504 490 504 c 0,17,18
 572 504 572 504 632 464 c 0,19,20
 668 440 668 440 692 404 c 0,21,22
 714 368 714 368 714 326 c 3,23,24
 714 228 714 228 644 180 c 0,25,26
 576 134 576 134 490 134 c 131,-1,27
 404 134 404 134 338 181 c 128,-1,28
 272 228 272 228 272 318 c 3,29,30
 272 436 272 436 348 510 c 0,31,32
 482 640 482 640 618 640 c 2,33,-1
 652 640 l 2,34,35
 844 636 844 636 944 496 c 0,36,37
 1002 418 1002 418 1002 346 c 2,38,-1
 1002 320 l 18,39,40
 1002 250 1002 250 964 191 c 128,-1,41
 926 132 926 132 862 96 c 1,42,-1
 1166 96 l 1,43,-1
 1166 632 l 2,44,45
 1166 810 1166 810 1362 810 c 3,46,47
 1542 810 1542 810 1542 660 c 2,48,-1
 1542 0 l 1,49,-1
 104 0 l 1,50,-1
 104 96 l 1,0,-1
1428 622 m 2,51,52
 1428 636 1428 636 1404 660 c 0,53,54
 1384 680 1384 680 1360 680 c 3,55,56
 1332 680 1332 680 1308 666 c 0,57,58
 1282 650 1282 650 1282 606 c 2,59,-1
 1282 96 l 1,60,-1
 1428 96 l 1,61,-1
 1428 622 l 2,51,52
420 380 m 0,62,63
 388 358 388 358 388 318 c 131,-1,64
 388 278 388 278 421 254 c 128,-1,65
 454 230 454 230 494 230 c 3,66,67
 532 230 532 230 562 252 c 0,68,69
 594 274 594 274 594 322 c 19,70,71
 594 368 594 368 562 388 c 0,72,73
 534 404 534 404 498 404 c 3,74,75
 454 404 454 404 420 380 c 0,62,63
EndSplineSet
EndChar

StartChar: u1131C
Encoding: 70428 70428 123
Width: 1444
Flags: MW
AnchorPoint: "high" 734 820 basechar 0
AnchorPoint: "low" 734 -216 basechar 0
LayerCount: 2
Fore
SplineSet
828 -34 m 2,0,-1
 682 -162 l 2,1,2
 620 -216 620 -216 482 -216 c 0,3,4
 464 -216 464 -216 444 -216 c 1,5,6
 270 -216 270 -216 174 -116 c 0,7,8
 136 -76 136 -76 124 -18 c 0,9,10
 122 -8 122 -8 122 2 c 0,11,12
 122 46 122 46 150 90 c 0,13,14
 264 272 264 272 530 276 c 0,15,16
 872 280 872 280 1027 337 c 128,-1,17
 1182 394 1182 394 1184 516 c 0,18,19
 1184 560 1184 560 1152 599 c 128,-1,20
 1120 638 1120 638 1076 660 c 0,21,22
 1026 684 1026 684 982 684 c 0,23,24
 936 684 936 684 892 658 c 0,25,26
 802 602 802 602 802 460 c 0,27,28
 802 446 802 446 802 430 c 0,29,30
 802 398 802 398 758 398 c 0,31,32
 748 398 748 398 738 400 c 0,33,34
 674 408 674 408 674 438 c 0,35,36
 674 544 674 544 632 615 c 0,37,38
 590 684 590 684 532 716 c 0,39,40
 488 740 488 740 440 740 c 0,41,42
 424 740 424 740 410 738 c 0,43,44
 346 728 346 728 304 676 c 1,45,46
 406 670 406 670 456 562 c 0,47,48
 472 528 472 528 472 504 c 0,49,50
 472 380 472 380 376 344 c 0,51,52
 342 332 342 332 308 332 c 0,53,54
 260 332 260 332 212 352 c 0,55,56
 172 368 172 368 135 409 c 128,-1,57
 98 450 98 450 98 492 c 0,58,59
 98 672 98 672 222 756 c 0,60,61
 308 816 308 816 410 816 c 0,62,63
 456 816 456 816 504 804 c 0,64,65
 660 768 660 768 746 642 c 1,66,67
 802 784 802 784 948 814 c 0,68,69
 978 820 978 820 1008 820 c 0,70,71
 1116 820 1116 820 1212 748 c 0,72,73
 1342 658 1342 658 1342 506 c 3,74,75
 1342 304 1342 304 960 220 c 0,76,77
 774 178 774 178 652 176 c 128,-1,78
 530 174 530 174 528 174 c 0,79,80
 400 148 400 148 330 100 c 0,81,82
 256 50 256 50 256 10 c 0,83,84
 256 -28 256 -28 304 -60 c 0,85,86
 354 -92 354 -92 444 -112 c 1,87,88
 610 -112 610 -112 722 0 c 1,89,90
 892 150 892 150 964 158 c 0,91,92
 1022 164 1022 164 1070 164 c 0,93,94
 1372 164 1372 164 1372 -24 c 0,95,96
 1372 -30 1372 -30 1372 -38 c 0,97,98
 1372 -216 1372 -216 990 -216 c 0,99,100
 964 -216 964 -216 948 -203 c 128,-1,101
 932 -190 932 -190 931 -176 c 128,-1,102
 930 -162 930 -162 941 -150 c 128,-1,103
 952 -138 952 -138 985 -138 c 128,-1,104
 1018 -138 1018 -138 1079 -133 c 128,-1,105
 1140 -128 1140 -128 1176 -95 c 128,-1,106
 1212 -62 1212 -62 1215 -33 c 128,-1,107
 1218 -4 1218 -4 1194 24 c 128,-1,108
 1170 52 1170 52 1126 68 c 0,109,110
 1090 80 1090 80 1050 80 c 0,111,112
 958 80 958 80 828 -34 c 2,0,-1
248 557 m 128,-1,114
 232 534 232 534 232 500 c 128,-1,115
 232 466 232 466 247 449 c 128,-1,116
 262 432 262 432 281 429 c 128,-1,117
 300 426 300 426 318 439 c 128,-1,118
 336 452 336 452 342 484 c 1,119,-1
 342 492 l 2,120,121
 342 530 342 530 325 553 c 128,-1,122
 308 576 308 576 286 578 c 128,-1,113
 264 580 264 580 248 557 c 128,-1,114
EndSplineSet
EndChar

StartChar: u1131D
Encoding: 70429 70429 124
Width: 1520
Flags: MW
AnchorPoint: "high" 782 824 basechar 0
AnchorPoint: "low" 782 0 basechar 0
LayerCount: 2
Fore
SplineSet
1092 128 m 3,0,1
 1176 128 1176 128 1232 178 c 0,2,3
 1288 226 1288 226 1308 298 c 0,4,5
 1318 332 1318 332 1320 370 c 0,6,7
 1320 410 1320 410 1308 454 c 0,8,9
 1284 538 1284 538 1210 622 c 1,10,-1
 1190 654 l 1,11,12
 1192 706 1192 706 1230 706 c 0,13,14
 1258 706 1258 706 1280 678 c 0,15,16
 1376 564 1376 564 1408 440 c 0,17,18
 1424 376 1424 376 1424 318 c 0,19,20
 1424 276 1424 276 1408 218 c 0,21,22
 1380 118 1380 118 1299 59 c 128,-1,23
 1218 0 1218 0 1081 0 c 128,-1,24
 944 0 944 0 869 92 c 128,-1,25
 794 184 794 184 790 324 c 1,26,-1
 716 324 l 1,27,-1
 716 70 l 2,28,29
 716 30 716 30 708 15 c 128,-1,30
 700 0 700 0 666 0 c 2,31,-1
 430 0 l 2,32,33
 384 0 384 0 373 15 c 128,-1,34
 362 30 362 30 362 70 c 2,35,-1
 362 366 l 2,36,37
 362 386 362 386 375 399 c 128,-1,38
 388 412 388 412 406 412 c 2,39,-1
 570 412 l 1,40,-1
 570 728 l 1,41,-1
 256 728 l 1,42,-1
 256 46 l 18,43,44
 256 24 256 24 239 12 c 128,-1,45
 222 0 222 0 204 0 c 0,46,47
 200 0 200 0 196 0 c 0,48,49
 140 0 140 0 140 50 c 2,50,-1
 140 764 l 2,51,52
 140 788 140 788 155 807 c 128,-1,53
 170 826 170 826 202 826 c 2,54,-1
 830 826 l 6,55,56
 856 826 856 826 871 810 c 132,-1,57
 886 794 886 794 886 776 c 260,58,59
 886 758 886 758 873 743 c 132,-1,60
 860 728 860 728 836 728 c 6,61,-1
 716 728 l 1,62,-1
 716 412 l 1,63,-1
 796 412 l 1,64,65
 818 574 818 574 908 660 c 2,66,-1
 950 700 l 2,67,68
 962 712 962 712 981 711 c 128,-1,69
 1000 710 1000 710 1014 702 c 0,70,71
 1048 678 1048 678 1026 656 c 0,72,73
 948 578 948 578 912 486 c 0,74,75
 884 412 884 412 882 346 c 0,76,77
 882 330 882 330 884 314 c 0,78,79
 892 234 892 234 949 181 c 128,-1,80
 1006 128 1006 128 1092 128 c 3,0,1
482 102 m 1,81,-1
 570 102 l 1,82,-1
 570 324 l 1,83,-1
 482 324 l 1,84,-1
 482 102 l 1,81,-1
EndSplineSet
EndChar

StartChar: u1131E
Encoding: 70430 70430 125
Width: 1524
Flags: MW
AnchorPoint: "high" 726 822 basechar 0
AnchorPoint: "low" 726 0 basechar 0
LayerCount: 2
Fore
SplineSet
862 0 m 2,0,-1
 856 0 l 2,1,2
 608 0 608 0 442 72 c 0,3,4
 354 110 354 110 292 176 c 0,5,6
 236 236 236 236 238 324 c 0,7,8
 238 330 238 330 238 336 c 0,9,10
 238 366 238 366 274 364 c 0,11,12
 312 362 312 362 312 332 c 0,13,14
 312 226 312 226 428 156 c 0,15,16
 452 142 452 142 860 74 c 0,17,18
 872 72 872 72 874 72 c 0,19,20
 1078 74 1078 74 1198 180 c 0,21,22
 1248 224 1248 224 1264 276 c 0,23,24
 1272 302 1272 302 1272 328 c 128,-1,25
 1272 354 1272 354 1264 378 c 0,26,27
 1248 426 1248 426 1195 463 c 128,-1,28
 1142 500 1142 500 1058 512 c 1,29,-1
 1058 428 l 2,30,31
 1058 336 1058 336 1028 284 c 0,32,33
 982 200 982 200 868 200 c 2,34,-1
 860 200 l 2,35,36
 704 200 704 200 622 251 c 0,37,38
 540 304 540 304 524 368 c 0,39,40
 520 386 520 386 518 404 c 0,41,42
 516 450 516 450 548 496 c 0,43,44
 592 560 592 560 684 588 c 1,45,46
 674 632 674 632 629 671 c 0,47,48
 584 712 584 712 520 736 c 0,49,50
 442 766 442 766 374 766 c 0,51,52
 308 766 308 766 250 738 c 1,53,54
 332 732 332 732 372 684 c 0,55,56
 410 638 410 638 410 586 c 0,57,58
 412 528 412 528 364 482 c 0,59,60
 320 438 320 438 222 438 c 128,-1,61
 124 438 124 438 72 506 c 0,62,63
 38 550 38 550 40 594 c 0,64,65
 40 636 40 636 72 674 c 0,66,67
 138 752 138 752 221 788 c 0,68,69
 314 828 314 828 388 828 c 0,70,71
 398 828 398 828 408 828 c 0,72,73
 564 828 564 828 686 738 c 1,74,-1
 686 824 l 1,75,-1
 1160 824 l 5,76,77
 1166 824 1166 824 1172 824 c 4,78,79
 1208 824 1208 824 1224 812 c 4,80,81
 1244 800 1244 800 1243 784 c 132,-1,82
 1242 768 1242 768 1218 755 c 132,-1,83
 1194 742 1194 742 1148 742 c 6,84,-1
 1058 742 l 1,85,-1
 1058 598 l 1,86,87
 1194 588 1194 588 1277 540 c 128,-1,88
 1360 492 1360 492 1392 424 c 0,89,90
 1414 380 1414 380 1414 334 c 0,91,92
 1414 308 1414 308 1408 284 c 0,93,94
 1390 208 1390 208 1324 145 c 128,-1,95
 1258 82 1258 82 1142 41 c 128,-1,96
 1026 0 1026 0 862 0 c 2,0,-1
746 528 m 2,97,98
 676 528 676 528 638 480 c 0,99,100
 608 442 608 442 608 410 c 0,101,102
 608 400 608 400 612 392 c 0,103,104
 624 354 624 354 685 323 c 128,-1,105
 746 292 746 292 862 292 c 2,106,-1
 868 292 l 2,107,108
 900 292 900 292 914 313 c 128,-1,109
 928 334 928 334 928 354 c 2,110,-1
 928 528 l 1,111,-1
 746 528 l 2,97,98
307 642 m 128,-1,113
 282 666 282 666 229 666 c 128,-1,114
 176 666 176 666 149 642 c 128,-1,115
 122 618 122 618 122 589 c 128,-1,116
 122 560 122 560 149 536 c 128,-1,117
 176 512 176 512 229 512 c 128,-1,118
 282 512 282 512 307 536 c 128,-1,119
 332 560 332 560 332 589 c 128,-1,112
 332 618 332 618 307 642 c 128,-1,113
930 744 m 1,120,121
 792 746 792 746 790 746 c 1,122,-1
 790 600 l 1,123,-1
 930 600 l 1,124,-1
 930 744 l 1,120,121
EndSplineSet
EndChar

StartChar: u1131F
Encoding: 70431 70431 126
Width: 1320
Flags: MW
AnchorPoint: "high" 644 818 basechar 0
AnchorPoint: "low" 644 -182 basechar 0
LayerCount: 2
Fore
SplineSet
1228 50 m 128,-1,1
 1228 0 1228 0 1190 0 c 2,2,-1
 726 0 l 1,3,-1
 726 -134 l 2,4,5
 726 -182 726 -182 656 -182 c 4,6,7
 630 -182 630 -182 610 -170 c 132,-1,8
 590 -158 590 -158 590 -134 c 2,9,-1
 590 0 l 1,10,-1
 128 0 l 2,11,12
 98 0 98 0 79 15 c 128,-1,13
 60 30 60 30 60 52 c 2,14,-1
 60 772 l 2,15,16
 60 794 60 794 80 806 c 128,-1,17
 100 818 100 818 126 818 c 128,-1,18
 152 818 152 818 172 806 c 128,-1,19
 192 794 192 794 192 772 c 2,20,-1
 192 100 l 1,21,-1
 1190 100 l 2,22,0
 1228 100 1228 100 1228 50 c 128,-1,1
EndSplineSet
Position2: "Single Position lookup 0-1" dx=0 dy=0 dh=-320 dv=0
EndChar

StartChar: u11320
Encoding: 70432 70432 127
Width: 1248
Flags: MW
AnchorPoint: "high" 612 804 basechar 0
AnchorPoint: "low" 614 0 basechar 0
LayerCount: 2
Fore
SplineSet
366 764 m 0,0,1
 468 804 468 804 608 804 c 3,2,3
 868 804 868 804 1012 685 c 128,-1,4
 1156 566 1156 566 1156 400 c 256,5,6
 1156 236 1156 236 1007 118 c 128,-1,7
 858 0 858 0 607 0 c 132,-1,8
 356 0 356 0 216 118 c 128,-1,9
 76 236 76 236 76 392 c 256,10,11
 76 652 76 652 366 764 c 0,0,1
614 678 m 0,12,13
 448 672 448 672 354 580 c 0,14,15
 262 488 262 488 262 388 c 128,-1,16
 262 288 262 288 351 213 c 128,-1,17
 440 138 440 138 594 138 c 2,18,-1
 600 138 l 2,19,20
 720 138 720 138 800 178 c 0,21,22
 968 260 968 260 970 404 c 0,23,24
 970 540 970 540 810 628 c 0,25,26
 724 678 724 678 614 678 c 0,12,13
EndSplineSet
EndChar

StartChar: u11321
Encoding: 70433 70433 128
Width: 1470
Flags: MW
AnchorPoint: "high" 758 822 basechar 0
AnchorPoint: "low" 758 0 basechar 0
LayerCount: 2
Fore
SplineSet
278 660 m 5,0,-1
 250 680 l 5,1,2
 226 648 226 648 226 602 c 0,3,4
 226 580 226 580 232 558 c 5,5,6
 240 556 240 556 246 556 c 0,7,8
 276 556 276 556 288 588 c 4,9,10
 294 604 294 604 296 618 c 0,11,12
 296 640 296 640 278 660 c 5,0,-1
686 352 m 6,13,-1
 710 352 l 6,14,15
 776 352 776 352 782 314 c 4,16,17
 794 238 794 238 843 190 c 4,18,19
 892 140 892 140 940 128 c 4,20,21
 960 122 960 122 982 124 c 0,22,23
 1012 124 1012 124 1048 134 c 4,24,25
 1108 152 1108 152 1165 202 c 4,26,27
 1220 252 1220 252 1224 296 c 4,28,29
 1232 406 1232 406 1234 454 c 0,30,31
 1234 470 1234 470 1232 480 c 4,32,33
 1226 574 1226 574 1164 643 c 132,-1,34
 1102 712 1102 712 970 736 c 4,35,36
 836 760 836 760 820 764 c 4,37,38
 808 764 808 764 806 779 c 132,-1,39
 804 794 804 794 824 806 c 4,40,41
 848 820 848 820 894 820 c 0,42,43
 948 820 948 820 1032 798 c 4,44,45
 1108 778 1108 778 1191 729 c 4,46,47
 1276 680 1276 680 1308 628 c 4,48,49
 1380 504 1380 504 1380 431 c 132,-1,50
 1380 358 1380 358 1349 278 c 4,51,52
 1320 198 1320 198 1268 136 c 4,53,54
 1158 2 1158 2 1004 2 c 0,55,56
 1002 2 1002 2 1000 2 c 4,57,58
 844 4 844 4 720 194 c 5,59,60
 648 52 648 52 496 16 c 4,61,62
 444 4 444 4 398 4 c 0,63,64
 308 4 308 4 236 50 c 4,65,66
 184 84 184 84 156 140 c 4,67,68
 136 180 136 180 134 228 c 0,69,70
 134 248 134 248 138 270 c 5,71,-1
 152 296 l 6,72,73
 176 340 176 340 235 382 c 132,-1,74
 294 424 294 424 381 476 c 132,-1,75
 468 528 468 528 480 544 c 20,76,77
 516 590 516 590 516 626 c 0,78,79
 516 684 516 684 432 724 c 4,80,81
 402 738 402 738 368 738 c 0,82,83
 364 738 364 738 360 738 c 4,84,85
 320 736 320 736 284 714 c 5,86,87
 344 716 344 716 356 616 c 4,88,89
 356 610 356 610 356 602 c 0,90,91
 356 560 356 560 324 520 c 4,92,93
 296 482 296 482 268 482 c 0,94,95
 260 482 260 482 254 484 c 4,96,97
 136 520 136 520 136 652 c 0,98,99
 136 664 136 664 138 678 c 4,100,101
 142 728 142 728 213 772 c 132,-1,102
 284 816 284 816 360 820 c 4,103,104
 372 820 372 820 380 822 c 0,105,106
 442 820 442 820 496 796 c 4,107,108
 558 768 558 768 590 704 c 4,109,110
 618 650 618 650 618 604 c 0,111,112
 618 562 618 562 594 528 c 4,113,114
 568 486 568 486 406 411 c 132,-1,115
 244 336 244 336 244 256 c 4,116,117
 244 140 244 140 348 116 c 4,118,119
 422 100 422 100 478 98 c 0,120,121
 564 100 564 100 604 140 c 4,122,-1
 660 332 l 5,123,124
 680 352 680 352 686 352 c 6,13,-1
EndSplineSet
EndChar

StartChar: u11322
Encoding: 70434 70434 129
Width: 1472
Flags: MW
AnchorPoint: "high" 726 818 basechar 0
AnchorPoint: "low" 726 0 basechar 0
LayerCount: 2
Fore
SplineSet
962 0 m 3,0,1
 798 0 798 0 690 126 c 1,2,3
 648 68 648 68 572 34 c 128,-1,4
 496 0 496 0 421 0 c 131,-1,5
 346 0 346 0 290 31 c 0,6,7
 224 68 224 68 192 144 c 0,8,9
 172 192 172 192 172 238 c 3,10,11
 172 310 172 310 228 344 c 0,12,13
 376 432 376 432 412 465 c 128,-1,14
 448 498 448 498 456 552 c 2,15,-1
 462 594 l 26,16,17
 466 620 466 620 437 666 c 128,-1,18
 408 712 408 712 392 718 c 128,-1,19
 376 724 376 724 357 724 c 131,-1,20
 338 724 338 724 308 716 c 1,21,22
 362 676 362 676 362 606 c 2,23,-1
 362 596 l 2,24,25
 362 560 362 560 324 521 c 0,26,27
 298 496 298 496 266 484 c 24,28,29
 242 474 242 474 206 484 c 0,30,31
 136 502 136 502 122 536 c 0,32,33
 104 582 104 582 104 605 c 3,34,35
 104 640 104 640 118 672 c 0,36,37
 146 744 146 744 205 780 c 128,-1,38
 264 816 264 816 328 816 c 3,39,40
 474 816 474 816 548 712 c 0,41,42
 580 668 580 668 578 596 c 0,43,44
 578 588 578 588 578 580 c 8,45,46
 574 496 574 496 521 436 c 128,-1,47
 468 376 468 376 332 310 c 0,48,49
 276 282 276 282 276 264 c 18,50,-1
 276 246 l 2,51,52
 276 172 276 172 331 120 c 0,53,54
 372 82 372 82 430 82 c 3,55,56
 486 82 486 82 552 144 c 0,57,58
 586 176 586 176 634 314 c 0,59,60
 648 354 648 354 688 354 c 3,61,62
 732 354 732 354 738 316 c 0,63,64
 764 162 764 162 854 114 c 0,65,66
 914 82 914 82 956 81 c 0,67,68
 982 80 982 80 1012 88 c 0,69,70
 1088 108 1088 108 1148 196 c 128,-1,71
 1208 284 1208 284 1208 472 c 3,72,73
 1208 724 1208 724 986 724 c 0,74,75
 950 724 950 724 912 714 c 1,76,77
 992 708 992 708 1016 673 c 128,-1,78
 1040 638 1040 638 1040 615 c 3,79,80
 1040 544 1040 544 995 501 c 0,81,82
 950 458 950 458 894 456 c 0,83,84
 850 456 850 456 814 478 c 2,85,-1
 778 500 l 2,86,87
 750 518 750 518 750 599 c 131,-1,88
 750 680 750 680 772 706 c 0,89,90
 868 818 868 818 986 818 c 19,91,92
 1232 818 1232 818 1320 612 c 0,93,94
 1342 560 1342 560 1342 519 c 128,-1,95
 1342 478 1342 478 1327 371 c 128,-1,96
 1312 264 1312 264 1304 244 c 0,97,98
 1234 72 1234 72 1084 24 c 0,99,100
 1010 0 1010 0 962 0 c 3,0,1
848 666 m 24,101,102
 818 647 818 647 818 616 c 0,103,104
 818 556 818 556 874 546 c 0,105,106
 905 539 905 539 920 552 c 0,107,108
 952 576 952 576 954 606 c 0,109,110
 954 620 954 620 946 636 c 0,111,112
 938 654 938 654 898 666 c 24,113,114
 864 676 864 676 848 666 c 24,101,102
204 540 m 1,115,116
 236 528 236 528 260 544 c 0,117,118
 292 564 292 564 292 600 c 0,119,120
 292 628 292 628 288 638 c 0,121,122
 270 684 270 684 231 684 c 131,-1,123
 192 684 192 684 178 630 c 0,124,125
 174 614 174 614 174 600 c 3,126,127
 174 566 174 566 204 540 c 1,115,116
EndSplineSet
EndChar

StartChar: u11323
Encoding: 70435 70435 130
Width: 1968
Flags: MW
AnchorPoint: "high" 960 824 basechar 0
AnchorPoint: "low" 962 0 basechar 0
LayerCount: 2
Fore
SplineSet
1244 614 m 1,0,1
 1166 504 1166 504 1166 340 c 0,2,3
 1166 228 1166 228 1193 162 c 128,-1,4
 1220 96 1220 96 1255 96 c 128,-1,5
 1290 96 1290 96 1319 160 c 128,-1,6
 1348 224 1348 224 1348 328 c 0,7,8
 1348 508 1348 508 1244 614 c 1,0,1
750 612 m 1,9,10
 720 560 720 560 686 498 c 0,11,12
 652 438 652 438 650 332 c 0,13,14
 650 216 650 216 682 144 c 0,15,16
 712 82 712 82 748 82 c 0,17,18
 750 82 750 82 752 82 c 0,19,20
 790 86 790 86 823 158 c 128,-1,21
 856 230 856 230 856 336 c 128,-1,22
 856 442 856 442 816 504 c 1,23,24
 788 566 788 566 750 612 c 1,9,10
216 306 m 128,-1,26
 192 282 192 282 192 221 c 128,-1,27
 192 160 192 160 216 123 c 128,-1,28
 240 86 240 86 270 80 c 128,-1,29
 300 74 300 74 323 97 c 128,-1,30
 346 120 346 120 346 182 c 128,-1,31
 346 244 346 244 323 287 c 128,-1,32
 300 330 300 330 270 330 c 128,-1,25
 240 330 240 330 216 306 c 128,-1,26
540 356 m 0,33,34
 540 560 540 560 660 688 c 1,35,36
 594 734 594 734 522 734 c 0,37,38
 448 734 448 734 384 698 c 0,39,40
 240 618 240 618 198 392 c 1,41,42
 226 400 226 400 254 400 c 0,43,44
 314 400 314 400 368 360 c 0,45,46
 454 296 454 296 454 170 c 0,47,48
 454 110 454 110 427 71 c 128,-1,49
 400 32 400 32 359 16 c 128,-1,50
 318 0 318 0 270 0 c 0,51,52
 220 0 220 0 180 28 c 0,53,54
 78 100 78 100 78 232 c 0,55,56
 78 440 78 440 145 570 c 128,-1,57
 212 700 212 700 313 761 c 128,-1,58
 414 822 414 822 531 822 c 128,-1,59
 648 822 648 822 748 758 c 1,60,61
 858 822 858 822 990 822 c 128,-1,62
 1122 822 1122 822 1240 760 c 1,63,64
 1346 820 1346 820 1452 820 c 26,65,-1
 1878 820 l 5,66,-1
 1878 718 l 5,67,-1
 1718 718 l 1,68,-1
 1718 0 l 1,69,70
 1652 0 1652 0 1586 0 c 1,71,-1
 1586 718 l 1,72,-1
 1450 718 l 2,73,74
 1394 718 1394 718 1338 692 c 1,75,76
 1412 626 1412 626 1443 550 c 128,-1,77
 1474 474 1474 474 1474 353 c 128,-1,78
 1474 232 1474 232 1444 152 c 128,-1,79
 1414 72 1414 72 1367 36 c 128,-1,80
 1320 0 1320 0 1268 0 c 0,81,82
 1162 0 1162 0 1084 168 c 0,83,84
 1048 246 1048 246 1048 356 c 0,85,86
 1048 558 1048 558 1150 684 c 1,87,88
 1072 724 1072 724 996 724 c 0,89,90
 988 724 988 724 980 724 c 0,91,92
 906 724 906 724 840 686 c 1,93,94
 892 636 892 636 935 554 c 128,-1,95
 978 472 978 472 978 361 c 128,-1,96
 978 250 978 250 946 168 c 128,-1,97
 914 86 914 86 866 43 c 128,-1,98
 818 0 818 0 760 0 c 128,-1,99
 702 0 702 0 654 39 c 128,-1,100
 606 78 606 78 573 157 c 128,-1,101
 540 236 540 236 540 356 c 0,33,34
EndSplineSet
EndChar

StartChar: u11324
Encoding: 70436 70436 131
Width: 1160
Flags: MW
AnchorPoint: "high" 578 816 basechar 0
AnchorPoint: "low" 580 -400 basechar 0
LayerCount: 2
Fore
SplineSet
296 770 m 2,0,1
 296 818 296 818 376 818 c 2,2,-1
 892 818 l 6,3,4
 926 818 926 818 935 800 c 132,-1,5
 944 782 944 782 944 762 c 132,-1,6
 944 742 944 742 931 726 c 132,-1,7
 918 710 918 710 890 710 c 6,8,-1
 720 710 l 1,9,-1
 720 538 l 1,10,11
 732 538 732 538 744 538 c 0,12,13
 876 540 876 540 976 406 c 0,14,15
 1022 344 1022 344 1050 268 c 0,16,17
 1074 200 1074 200 1074 154 c 0,18,19
 1074 146 1074 146 1074 142 c 0,20,21
 1066 22 1066 22 1010 -50 c 0,22,23
 914 -174 914 -174 710 -174 c 2,24,-1
 402 -174 l 2,25,26
 226 -174 226 -174 206 -202 c 0,27,28
 196 -216 196 -216 213 -241 c 128,-1,29
 230 -266 230 -266 250 -286 c 128,-1,30
 270 -306 270 -306 265 -330 c 128,-1,31
 260 -354 260 -354 242 -372 c 128,-1,32
 224 -390 224 -390 198 -396 c 128,-1,33
 172 -402 172 -402 153 -385 c 128,-1,34
 134 -368 134 -368 114 -338 c 128,-1,35
 94 -308 94 -308 87 -276 c 128,-1,36
 80 -244 80 -244 88 -210 c 0,37,38
 106 -136 106 -136 230 -102 c 0,39,40
 318 -78 318 -78 490 -78 c 2,41,42
 490 -78 490 -78 539 -78 c 2,43,44
 622 -78 622 -78 696 -71 c 128,-1,45
 770 -64 770 -64 828 -34 c 0,46,47
 954 26 954 26 954 170 c 2,48,-1
 954 196 l 2,49,50
 954 286 954 286 894 350 c 0,51,52
 822 426 822 426 732 426 c 0,53,54
 728 426 728 426 722 426 c 1,55,56
 730 310 730 310 730 296 c 0,57,58
 730 286 730 286 730 274 c 0,59,60
 730 212 730 212 714 158 c 0,61,62
 670 2 670 2 494 2 c 11,63,64
 322 2 322 2 220 65 c 128,-1,65
 118 128 118 128 90 214 c 0,66,67
 80 246 80 246 80 280 c 0,68,69
 80 336 80 336 112 392 c 0,70,71
 162 478 162 478 296 530 c 1,72,-1
 296 770 l 2,0,1
492 124 m 16,73,74
 578 124 578 124 578 286 c 0,75,76
 578 306 578 306 578 326 c 0,77,78
 574 378 574 378 572 434 c 1,79,-1
 352 434 l 1,80,81
 254 408 254 408 210 354 c 0,82,83
 176 314 176 314 176 272 c 0,84,85
 176 258 176 258 180 244 c 0,86,87
 216 124 216 124 492 124 c 16,73,74
412 710 m 1,88,-1
 412 544 l 1,89,-1
 572 544 l 1,90,-1
 572 710 l 1,91,-1
 412 710 l 1,88,-1
EndSplineSet
EndChar

StartChar: u11325
Encoding: 70437 70437 132
Width: 1536
Flags: MW
AnchorPoint: "high" 770 814 basechar 0
AnchorPoint: "low" 770 0 basechar 0
LayerCount: 2
Fore
SplineSet
1302 338 m 1,0,1
 1210 258 1210 258 1099 258 c 128,-1,2
 988 258 988 258 912 356 c 0,3,4
 856 428 856 428 857 529 c 128,-1,5
 858 630 858 630 904 696 c 0,6,7
 984 814 984 814 1150 814 c 0,8,9
 1350 814 1350 814 1428 662 c 4,10,11
 1470 578 1470 578 1470 488 c 0,12,13
 1470 236 1470 236 1298 104 c 0,14,15
 1160 0 1160 0 976 0 c 0,16,17
 860 0 860 0 756 44 c 128,-1,18
 652 88 652 88 584 158 c 1,19,20
 520 0 520 0 372 0 c 0,21,22
 194 0 194 0 102 196 c 0,23,24
 72 260 72 260 72 340 c 2,25,-1
 72 778 l 6,26,27
 72 814 72 814 132 814 c 128,-1,28
 192 814 192 814 192 778 c 2,29,-1
 192 340 l 2,30,31
 192 234 192 234 240 168 c 128,-1,32
 288 102 288 102 337 102 c 128,-1,33
 386 102 386 102 419 137 c 128,-1,34
 452 172 452 172 452 300 c 2,35,-1
 452 768 l 2,36,37
 452 790 452 790 475 802 c 128,-1,38
 498 814 498 814 529 814 c 128,-1,39
 560 814 560 814 584 802 c 128,-1,40
 608 790 608 790 608 768 c 2,41,-1
 608 350 l 1,42,43
 656 202 656 202 812 142 c 0,44,45
 880 116 880 116 954 116 c 128,-1,46
 1028 116 1028 116 1096 140 c 0,47,48
 1244 196 1244 196 1302 338 c 1,0,1
1020 420 m 0,49,50
 1060 354 1060 354 1153 354 c 128,-1,51
 1246 354 1246 354 1308 416 c 0,52,53
 1312 420 1312 420 1312 440 c 0,54,55
 1312 594 1312 594 1264 646 c 0,56,57
 1200 716 1200 716 1142 716 c 128,-1,58
 1084 716 1084 716 1036 673 c 128,-1,59
 988 630 988 630 988 549 c 128,-1,60
 988 468 988 468 1020 420 c 0,49,50
EndSplineSet
EndChar

StartChar: u11326
Encoding: 70438 70438 133
Width: 1024
Flags: MW
AnchorPoint: "high" 522 808 basechar 0
AnchorPoint: "low" 522 -212 basechar 0
LayerCount: 2
Fore
SplineSet
331 580 m 128,-1,1
 306 604 306 604 281 604 c 128,-1,2
 256 604 256 604 227 586 c 128,-1,3
 198 568 198 568 198 521 c 128,-1,4
 198 474 198 474 222 435 c 0,5,6
 244 396 244 396 276 396 c 0,7,-1
 278 394 l 0,8,9
 308 394 308 394 332 424 c 128,-1,10
 356 454 356 454 356 505 c 128,-1,0
 356 556 356 556 331 580 c 128,-1,1
686 -164 m 2,11,12
 686 -212 686 -212 620 -212 c 0,13,14
 596 -212 596 -212 576 -202 c 128,-1,15
 556 -192 556 -192 556 -172 c 2,16,-1
 556 0 l 1,17,-1
 436 0 l 2,18,19
 276 0 276 0 210 34 c 0,20,21
 146 66 146 66 146 106 c 0,22,23
 146 224 146 224 398 248 c 0,24,25
 484 256 484 256 533 280 c 128,-1,26
 582 304 582 304 627 341 c 128,-1,27
 672 378 672 378 680 398 c 0,28,29
 694 438 694 438 694 484 c 0,30,31
 692 532 692 532 676 592 c 0,32,33
 660 644 660 644 586 679 c 128,-1,34
 512 714 512 714 438 714 c 128,-1,35
 364 714 364 714 308 686 c 1,36,37
 368 678 368 678 415 634 c 128,-1,38
 462 590 462 590 462 516 c 128,-1,39
 462 442 462 442 436 401 c 128,-1,40
 410 360 410 360 369 339 c 128,-1,41
 328 318 328 318 280 318 c 128,-1,42
 232 318 232 318 191 336 c 128,-1,43
 150 354 150 354 124 400 c 128,-1,44
 98 446 98 446 98 536 c 128,-1,45
 98 626 98 626 158 695 c 128,-1,46
 218 764 218 764 302 788 c 0,47,48
 372 808 372 808 450 808 c 0,49,50
 466 808 466 808 484 808 c 0,51,52
 582 804 582 804 669 767 c 0,53,54
 756 728 756 728 812 652 c 0,55,56
 858 586 858 586 858 474 c 0,57,58
 858 454 858 454 856 432 c 0,59,60
 854 400 854 400 824 356 c 0,61,62
 754 252 754 252 600 196 c 0,63,64
 526 170 526 170 449 169 c 128,-1,65
 372 168 372 168 312 152 c 0,66,67
 246 134 246 134 246 117 c 128,-1,68
 246 100 246 100 440 100 c 10,69,-1
 888 100 l 2,70,71
 946 100 946 100 946 52 c 0,72,73
 946 34 946 34 932 17 c 128,-1,74
 918 0 918 0 888 0 c 2,75,-1
 686 0 l 1,76,-1
 686 -164 l 2,11,12
EndSplineSet
EndChar

StartChar: u11327
Encoding: 70439 70439 134
Width: 1536
Flags: MW
AnchorPoint: "high" 792 812 basechar 0
AnchorPoint: "low" 792 0 basechar 0
LayerCount: 2
Fore
SplineSet
134 332 m 2,0,-1
 134 756 l 2,1,2
 134 782 134 782 154 798 c 128,-1,3
 174 814 174 814 195 814 c 128,-1,4
 216 814 216 814 234 799 c 128,-1,5
 252 784 252 784 252 756 c 2,6,-1
 252 332 l 2,7,8
 252 242 252 242 302 174 c 128,-1,9
 352 106 352 106 400 106 c 0,10,11
 502 110 502 110 502 306 c 2,12,-1
 502 760 l 2,13,14
 502 786 502 786 524 800 c 128,-1,15
 546 814 546 814 573 814 c 132,-1,16
 600 814 600 814 624 800 c 128,-1,17
 648 786 648 786 648 760 c 2,18,-1
 648 344 l 2,19,20
 648 268 648 268 730 208 c 0,21,22
 814 148 814 148 860 136 c 0,23,24
 902 124 902 124 984 124 c 0,25,26
 988 124 988 124 996 124 c 0,27,28
 1164 126 1164 126 1266 276 c 0,29,30
 1320 356 1320 356 1320 432 c 0,31,32
 1320 574 1320 574 1202 666 c 1,33,34
 1140 726 1140 726 1046 726 c 16,35,36
 992 726 992 726 992 776 c 0,37,38
 992 814 992 814 1060 814 c 0,39,40
 1192 814 1192 814 1312 702 c 0,41,42
 1364 652 1364 652 1408 572 c 128,-1,43
 1452 492 1452 492 1452 450 c 0,44,45
 1452 340 1452 340 1406 248 c 0,46,47
 1316 66 1316 66 1130 20 c 0,48,49
 1048 0 1048 0 955 0 c 128,-1,50
 862 0 862 0 776 40 c 128,-1,51
 690 80 690 80 628 148 c 1,52,53
 606 90 606 90 557 45 c 128,-1,54
 508 0 508 0 416 0 c 128,-1,55
 324 0 324 0 236 76 c 0,56,57
 134 164 134 164 134 332 c 2,0,-1
EndSplineSet
EndChar

StartChar: u11328
Encoding: 70440 70440 135
Width: 1044
Flags: MW
AnchorPoint: "high" 526 816 basechar 0
AnchorPoint: "low" 528 -520 basechar 0
LayerCount: 2
Fore
SplineSet
150 0 m 0,0,1
 220 0 220 0 220 74 c 2,2,-1
 220 704 l 1,3,-1
 404 704 l 1,4,5
 404 704 404 704 404 248 c 2,6,7
 404 84 404 84 427 42 c 128,-1,8
 450 0 450 0 483 0 c 128,-1,9
 516 0 516 0 540 40 c 128,-1,10
 564 80 564 80 564 176 c 2,11,-1
 564 230 l 18,12,13
 564 312 564 312 716 312 c 0,14,15
 808 312 808 312 808 118 c 0,16,17
 808 12 808 12 757 -47 c 128,-1,18
 706 -106 706 -106 566 -106 c 2,19,-1
 242 -106 l 2,20,21
 162 -106 162 -106 112 -184 c 0,22,23
 80 -236 80 -236 80 -298 c 128,-1,24
 80 -360 80 -360 98 -426 c 128,-1,25
 116 -492 116 -492 128 -506 c 128,-1,26
 140 -520 140 -520 161 -520 c 128,-1,27
 182 -520 182 -520 198 -486 c 152,-1,28
 214 -452 214 -452 214 -430 c 128,-1,29
 214 -408 214 -408 203 -382 c 128,-1,30
 192 -356 192 -356 182 -326 c 0,31,32
 176 -310 176 -310 176 -298 c 0,33,34
 176 -256 176 -256 222 -236 c 0,35,36
 266 -216 266 -216 332 -216 c 2,37,-1
 566 -216 l 2,38,39
 760 -216 760 -216 868 -113 c 128,-1,40
 976 -10 976 -10 976 118 c 0,41,42
 976 292 976 292 836 380 c 0,43,44
 776 418 776 418 703 419 c 128,-1,45
 630 420 630 420 566 388 c 1,46,-1
 566 704 l 1,47,-1
 778 704 l 6,48,49
 802 704 802 704 814 722 c 132,-1,50
 826 740 826 740 826 761 c 132,-1,51
 826 782 826 782 814 799 c 132,-1,52
 802 816 802 816 778 816 c 6,53,-1
 156 816 l 2,54,55
 98 816 98 816 89 810 c 152,-1,56
 80 804 80 804 80 758 c 2,57,-1
 80 74 l 2,58,59
 80 46 80 46 101 23 c 128,-1,60
 122 0 122 0 150 0 c 0,0,1
EndSplineSet
EndChar

StartChar: u1132A
Encoding: 70442 70442 136
Width: 1728
Flags: MW
AnchorPoint: "high" 858 808 basechar 0
AnchorPoint: "low" 860 0 basechar 0
LayerCount: 2
Fore
SplineSet
1632 54 m 2,0,1
 1632 0 1632 0 1538 0 c 2,2,-1
 604 0 l 1,3,-1
 582 52 l 1,4,5
 588 72 588 72 600 84 c 24,6,7
 664 142 664 142 687 169 c 128,-1,8
 710 196 710 196 732 243 c 128,-1,9
 754 290 754 290 754 411 c 128,-1,10
 754 532 754 532 682 609 c 0,11,12
 604 690 604 690 524 690 c 3,13,14
 442 690 442 690 356 630 c 24,15,16
 278 581 278 581 222 428 c 1,17,18
 260 444 260 444 294 444 c 0,19,20
 318 444 318 444 340 436 c 0,21,22
 442 402 442 402 482 310 c 0,23,24
 504 258 504 258 504 208 c 0,25,26
 504 188 504 188 500 168 c 0,27,28
 488 100 488 100 438 50 c 128,-1,29
 388 0 388 0 336 0 c 0,30,31
 200 0 200 0 134 108 c 0,32,33
 90 180 90 180 90 312 c 0,34,35
 92 550 92 550 304 740 c 0,36,37
 380 808 380 808 487 808 c 3,38,39
 588 808 588 808 704 760 c 0,40,41
 790 724 790 724 862 629 c 0,42,43
 936 532 936 532 936 420 c 0,44,45
 936 206 936 206 798 86 c 1,46,-1
 1472 86 l 1,47,-1
 1472 764 l 2,48,49
 1472 784 1472 784 1497 796 c 128,-1,50
 1522 808 1522 808 1552 808 c 256,51,52
 1582 808 1582 808 1607 796 c 128,-1,53
 1632 784 1632 784 1632 764 c 2,54,-1
 1632 54 l 2,0,1
198 298 m 3,55,56
 198 151 198 151 280 108 c 0,57,58
 308 89 308 89 335 89 c 131,-1,59
 362 89 362 89 385 115 c 0,60,61
 408 140 408 140 414 182 c 0,62,63
 416 192 416 192 416 204 c 0,64,65
 416 236 416 236 400 268 c 8,66,67
 380 310 380 310 340 335 c 128,-1,68
 300 360 300 360 271 360 c 128,-1,69
 242 360 242 360 219 339 c 0,70,71
 198 318 198 318 198 298 c 3,55,56
EndSplineSet
EndChar

StartChar: u1132B
Encoding: 70443 70443 137
Width: 1732
Flags: MW
AnchorPoint: "high" 836 816 basechar 0
AnchorPoint: "low" 836 0 basechar 0
LayerCount: 2
Fore
SplineSet
1196 90 m 1,0,-1
 1196 568 l 2,1,2
 1196 728 1196 728 1304 788 c 0,3,4
 1354 816 1354 816 1414 816 c 131,-1,5
 1474 816 1474 816 1525 790 c 0,6,7
 1572 766 1572 766 1611 715 c 0,8,9
 1646 668 1646 668 1646 606 c 2,10,-1
 1646 58 l 2,11,12
 1646 30 1646 30 1610 15 c 128,-1,13
 1574 0 1574 0 1534 0 c 2,14,-1
 506 0 l 1,15,-1
 506 90 l 1,16,17
 588 90 588 90 652 200 c 128,-1,18
 716 310 716 310 716 410 c 0,19,20
 716 502 716 502 676 570 c 0,21,22
 596 706 596 706 464 708 c 0,23,24
 324 708 324 708 224 600 c 0,25,26
 172 544 172 544 148 456 c 1,27,28
 174 464 174 464 202 464 c 0,29,30
 248 464 248 464 296 444 c 0,31,32
 374 412 374 412 428 310 c 16,33,34
 450 268 450 268 450 224 c 0,35,36
 450 200 450 200 444 176 c 0,37,38
 428 104 428 104 387 61 c 0,39,40
 346 16 346 16 290 4 c 0,41,42
 270 0 270 0 248 0 c 0,43,44
 156 0 156 0 82 104 c 0,45,46
 28 178 28 178 28 282 c 0,47,48
 28 476 28 476 101 590 c 128,-1,49
 174 704 174 704 268 760 c 128,-1,50
 362 816 362 816 468 816 c 0,51,52
 704 816 704 816 812 642 c 0,53,54
 872 544 872 544 874 438 c 0,55,56
 874 228 874 228 702 90 c 1,57,-1
 1196 90 l 1,0,-1
1292 90 m 1,58,-1
 1492 90 l 1,59,-1
 1492 626 l 2,60,61
 1492 644 1492 644 1461 669 c 128,-1,62
 1430 694 1430 694 1392 694 c 128,-1,63
 1354 694 1354 694 1323 673 c 128,-1,64
 1292 652 1292 652 1292 630 c 2,65,-1
 1292 90 l 1,58,-1
264 364 m 0,66,67
 238 382 238 382 214 382 c 0,68,69
 184 382 184 382 156 348 c 0,70,71
 136 320 136 320 135 278 c 152,-1,72
 134 236 134 236 157 189 c 128,-1,73
 180 142 180 142 206 125 c 128,-1,74
 232 108 232 108 258 114 c 0,75,76
 316 128 316 128 336 200 c 0,77,78
 340 220 340 220 340 238 c 0,79,80
 340 312 340 312 264 364 c 0,66,67
EndSplineSet
EndChar

StartChar: u1132C
Encoding: 70444 70444 138
Width: 1718
Flags: MW
AnchorPoint: "high" 848 818 basechar 0
AnchorPoint: "low" 840 0 basechar 0
LayerCount: 2
Fore
SplineSet
188 310 m 0,0,1
 188 242 188 242 211 184 c 128,-1,2
 234 126 234 126 260 106 c 128,-1,3
 286 86 286 86 313 86 c 128,-1,4
 340 86 340 86 363 111 c 128,-1,5
 386 136 386 136 396 180 c 0,6,7
 400 198 400 198 400 212 c 0,8,9
 400 284 400 284 326 332 c 0,10,11
 286 358 286 358 256 360 c 0,12,13
 236 360 236 360 216 348 c 0,14,15
 188 330 188 330 188 310 c 0,0,1
654 686 m 1,16,17
 724 820 724 820 868 820 c 0,18,19
 990 820 990 820 1120 698 c 0,20,21
 1240 584 1240 584 1240 412 c 0,22,23
 1240 320 1240 320 1193 239 c 128,-1,24
 1146 158 1146 158 1078 98 c 1,25,-1
 1474 98 l 1,26,-1
 1474 774 l 2,27,28
 1474 796 1474 796 1492 808 c 128,-1,29
 1510 820 1510 820 1531 820 c 128,-1,30
 1552 820 1552 820 1571 808 c 128,-1,31
 1590 796 1590 796 1590 774 c 2,32,-1
 1590 50 l 2,33,34
 1590 28 1590 28 1572 14 c 128,-1,35
 1554 0 1554 0 1534 0 c 2,36,-1
 832 0 l 1,37,-1
 832 98 l 1,38,39
 948 98 948 98 1020 200 c 0,40,41
 1092 298 1092 298 1090 418 c 24,42,43
 1088 568 1088 568 1000 656 c 0,44,45
 956 700 956 700 916 714 c 0,46,47
 888 724 888 724 860 724 c 0,48,49
 840 724 840 724 822 720 c 0,50,51
 782 710 782 710 752 664 c 0,52,53
 714 604 714 604 714 412 c 2,54,-1
 714 50 l 2,55,56
 714 28 714 28 696 14 c 128,-1,57
 678 0 678 0 657 0 c 128,-1,58
 636 0 636 0 617 13 c 128,-1,59
 598 26 598 26 598 50 c 2,60,-1
 598 414 l 2,61,62
 598 564 598 564 567 636 c 0,63,64
 536 706 536 706 508 718 c 0,65,66
 478 730 478 730 425 730 c 128,-1,67
 372 730 372 730 324 697 c 128,-1,68
 276 664 276 664 239 596 c 128,-1,69
 202 528 202 528 192 420 c 1,70,71
 218 432 218 432 262 434 c 0,72,73
 296 436 296 436 336 424 c 0,74,75
 420 400 420 400 460 324 c 16,76,77
 484 280 484 280 494 200 c 0,78,79
 496 184 496 184 492 168 c 0,80,81
 480 90 480 90 437 45 c 128,-1,82
 394 0 394 0 330 0 c 128,-1,83
 266 0 266 0 215 29 c 128,-1,84
 164 58 164 58 127 135 c 128,-1,85
 90 212 90 212 90 339 c 128,-1,86
 90 466 90 466 121 554 c 0,87,88
 158 656 158 656 200 706 c 0,89,90
 300 820 300 820 432 820 c 0,91,92
 560 820 560 820 654 686 c 1,16,17
EndSplineSet
EndChar

StartChar: u1132D
Encoding: 70445 70445 139
Width: 1508
Flags: MW
AnchorPoint: "high" 722 816 basechar 0
AnchorPoint: "low" 724 0 basechar 0
LayerCount: 2
Fore
SplineSet
108 329 m 128,-1,1
 86 374 86 374 86 449 c 128,-1,2
 86 524 86 524 104 596 c 0,3,4
 144 740 144 740 264 796 c 0,5,6
 314 818 314 818 370 818 c 0,7,8
 538 816 538 816 622 732 c 0,9,10
 678 676 678 676 730 456 c 0,11,12
 748 380 748 380 782 360 c 128,-1,13
 816 340 816 340 844 340 c 128,-1,14
 872 340 872 340 895 376 c 128,-1,15
 918 412 918 412 918 454 c 0,16,17
 918 572 918 572 967 666 c 128,-1,18
 1016 760 1016 760 1065 789 c 128,-1,19
 1114 818 1114 818 1168 818 c 3,20,21
 1261 818 1261 818 1364 664 c 0,22,23
 1414 588 1414 588 1414 499 c 0,24,25
 1414 412 1414 412 1390 316 c 0,26,27
 1340 116 1340 116 1170 40 c 0,28,29
 1080 0 1080 0 954 0 c 2,30,-1
 90 0 l 2,31,32
 60 0 60 0 52 10 c 0,33,34
 38 32 38 32 38 44 c 128,-1,35
 38 56 38 56 55 71 c 128,-1,36
 72 86 72 86 102 86 c 2,37,-1
 992 86 l 2,38,39
 1136 86 1136 86 1228 264 c 0,40,41
 1272 350 1272 350 1272 510 c 0,42,43
 1272 544 1272 544 1252 580 c 0,44,45
 1208 660 1208 660 1149 659 c 128,-1,46
 1090 658 1090 658 1055 582 c 128,-1,47
 1020 506 1020 506 1020 448 c 128,-1,48
 1020 390 1020 390 1000 341 c 128,-1,49
 980 292 980 292 962 266 c 0,50,51
 920 204 920 204 866 204 c 3,52,53
 770 204 770 204 700 275 c 128,-1,54
 630 346 630 346 618 447 c 24,55,56
 608 548 608 548 588 592 c 0,57,58
 548 684 548 684 474 712 c 0,59,60
 428 730 428 730 406 730 c 2,61,-1
 346 730 l 2,62,63
 318 730 318 730 280 686 c 0,64,65
 206 602 206 602 186 520 c 1,66,67
 224 544 224 544 268 544 c 0,68,69
 352 544 352 544 402 436 c 0,70,71
 430 374 430 374 430 323 c 128,-1,72
 430 272 430 272 403 245 c 0,73,74
 372 218 372 218 332 212 c 0,75,76
 316 210 316 210 302 208 c 0,77,78
 276 208 276 208 248 216 c 0,79,80
 206 228 206 228 168 256 c 128,-1,0
 130 284 130 284 108 329 c 128,-1,1
316 326 m 0,81,82
 316 374 316 374 297 405 c 128,-1,83
 278 436 278 436 255 447 c 128,-1,84
 232 458 232 458 209 448 c 0,85,86
 181 436 181 436 180 406 c 24,87,88
 180 374 180 374 205 346 c 0,89,90
 226 324 226 324 248 316 c 128,-1,91
 270 308 270 308 291 311 c 128,-1,92
 312 314 312 314 316 326 c 0,81,82
EndSplineSet
EndChar

StartChar: u1132E
Encoding: 70446 70446 140
Width: 1016
Flags: MW
AnchorPoint: "high" 486 814 basechar 0
AnchorPoint: "low" 488 0 basechar 0
LayerCount: 2
Fore
SplineSet
676 212 m 0,0,1
 728 212 728 212 728 178 c 0,2,3
 728 86 728 86 620 26 c 0,4,5
 572 0 572 0 516 0 c 128,-1,6
 460 0 460 0 408 8 c 0,7,8
 294 28 294 28 260 130 c 0,9,10
 254 148 254 148 254 184 c 128,-1,11
 254 220 254 220 302 268 c 0,12,13
 384 348 384 348 517 421 c 128,-1,14
 650 494 650 494 695 529 c 128,-1,15
 740 564 740 564 740 588 c 0,16,17
 740 640 740 640 656 676 c 128,-1,18
 572 712 572 712 516 722 c 0,19,20
 484 728 484 728 450 728 c 0,21,22
 422 728 422 728 390 724 c 0,23,24
 320 716 320 716 270 690 c 1,25,26
 362 688 362 688 418 647 c 128,-1,27
 474 606 474 606 474 557 c 128,-1,28
 474 508 474 508 436 468 c 128,-1,29
 398 428 398 428 306 428 c 0,30,31
 220 428 220 428 152 470 c 0,32,33
 132 482 132 482 103 511 c 128,-1,34
 74 540 74 540 74 570 c 0,35,36
 74 644 74 644 136 700 c 128,-1,37
 198 756 198 756 284 784 c 128,-1,38
 370 812 370 812 472 812 c 128,-1,39
 574 812 574 812 673 787 c 0,40,41
 772 764 772 764 816 720 c 0,42,43
 904 632 904 632 905 580 c 128,-1,44
 906 528 906 528 871 489 c 128,-1,45
 836 450 836 450 783 422 c 128,-1,46
 730 394 730 394 665 370 c 128,-1,47
 600 346 600 346 566 330 c 128,-1,48
 532 314 532 314 440 260 c 0,49,50
 380 224 380 224 380 172 c 128,-1,51
 380 120 380 120 418 93 c 128,-1,52
 456 66 456 66 503 66 c 128,-1,53
 550 66 550 66 587 93 c 128,-1,54
 624 120 624 120 624 174 c 0,55,56
 624 192 624 192 641 202 c 128,-1,57
 658 212 658 212 676 212 c 0,0,1
204 596 m 0,58,59
 204 566 204 566 235 546 c 128,-1,60
 266 526 266 526 302 526 c 128,-1,61
 338 526 338 526 347 543 c 128,-1,62
 356 560 356 560 349 581 c 128,-1,63
 342 602 342 602 324 621 c 128,-1,64
 306 640 306 640 284 640 c 0,65,66
 208 640 208 640 204 596 c 0,58,59
EndSplineSet
EndChar

StartChar: u1132F
Encoding: 70447 70447 141
Width: 1330
Flags: MW
AnchorPoint: "high" 652 804 basechar 0
AnchorPoint: "low" 654 0 basechar 0
LayerCount: 2
Fore
SplineSet
184 804 m 0,0,1
 242 804 242 804 242 770 c 2,2,-1
 242 284 l 2,3,4
 242 182 242 182 277 137 c 128,-1,5
 312 92 312 92 357 92 c 128,-1,6
 402 92 402 92 444 119 c 128,-1,7
 486 146 486 146 500 188 c 1,8,-1
 500 762 l 2,9,10
 500 806 500 806 558 806 c 0,11,12
 578 806 578 806 603 793 c 4,13,14
 624 782 624 782 624 764 c 6,15,-1
 624 96 l 1,16,-1
 1028 96 l 1,17,-1
 1028 750 l 2,18,19
 1028 772 1028 772 1053 783 c 128,-1,20
 1078 794 1078 794 1108 794 c 256,21,22
 1138 794 1138 794 1163 783 c 128,-1,23
 1188 772 1188 772 1188 750 c 2,24,-1
 1188 50 l 2,25,26
 1188 30 1188 30 1174 21 c 128,-1,27
 1160 12 1160 12 1134 6 c 128,-1,28
 1108 0 1108 0 1106 0 c 2,29,-1
 576 0 l 2,30,31
 544 0 544 0 516 24 c 1,32,33
 470 0 470 0 392 0 c 128,-1,34
 314 0 314 0 259 26 c 128,-1,35
 204 52 204 52 162 119 c 128,-1,36
 120 186 120 186 120 280 c 2,37,-1
 120 762 l 2,38,39
 120 778 120 778 138 791 c 128,-1,40
 156 804 156 804 184 804 c 0,0,1
EndSplineSet
Substitution2: "Single substitution 4-1" u11347
EndChar

StartChar: u11330
Encoding: 70448 70448 142
Width: 1040
Flags: MW
AnchorPoint: "high" 526 806 basechar 0
AnchorPoint: "low" 528 0 basechar 0
LayerCount: 2
Fore
SplineSet
102 760 m 1,0,1
 106 808 106 808 164 808 c 2,2,-1
 910 808 l 2,3,4
 930 808 930 808 941 792 c 128,-1,5
 952 776 952 776 952 758 c 128,-1,6
 952 740 952 740 941 724 c 128,-1,7
 930 708 930 708 910 708 c 2,8,-1
 762 708 l 1,9,-1
 762 120 l 1,10,11
 760 64 760 64 704 32 c 128,-1,12
 648 0 648 0 586 0 c 128,-1,13
 524 0 524 0 468 24 c 128,-1,14
 412 48 412 48 410 98 c 1,15,-1
 410 708 l 1,16,-1
 204 708 l 1,17,-1
 204 34 l 2,18,19
 204 0 204 0 164 0 c 0,20,21
 102 0 102 0 102 34 c 2,22,-1
 102 760 l 1,0,1
498 100 m 2,23,24
 498 78 498 78 514 66 c 128,-1,25
 530 54 530 54 549 54 c 128,-1,26
 568 54 568 54 587 67 c 128,-1,27
 606 80 606 80 606 106 c 2,28,-1
 606 708 l 1,29,-1
 498 708 l 1,30,-1
 498 100 l 2,23,24
EndSplineSet
EndChar

StartChar: u11332
Encoding: 70450 70450 143
Width: 1330
Flags: MW
AnchorPoint: "high" 666 820 basechar 0
AnchorPoint: "low" 668 0 basechar 0
LayerCount: 2
Fore
SplineSet
486 524 m 0,0,1
 486 552 486 552 440 552 c 0,2,3
 424 552 424 552 410 543 c 128,-1,4
 396 534 396 534 396 526 c 0,5,6
 396 306 396 306 500 256 c 0,7,8
 524 244 524 244 548 244 c 128,-1,9
 572 244 572 244 596 256 c 0,10,11
 646 278 646 278 678 346 c 1,12,13
 712 278 712 278 766 262 c 0,14,15
 786 256 786 256 806 256 c 0,16,17
 840 256 840 256 872 272 c 0,18,19
 924 300 924 300 957 366 c 128,-1,20
 990 432 990 432 990 517 c 128,-1,21
 990 602 990 602 954 656 c 128,-1,22
 918 710 918 710 855 748 c 128,-1,23
 792 786 792 786 712 803 c 128,-1,24
 632 820 632 820 550 820 c 128,-1,25
 468 820 468 820 388 788 c 0,26,27
 220 724 220 724 152 564 c 0,28,29
 116 484 116 484 116 374 c 128,-1,30
 116 264 116 264 185 187 c 128,-1,31
 254 110 254 110 336 70 c 0,32,33
 480 0 480 0 626 0 c 0,34,35
 902 0 902 0 1070 144 c 0,36,37
 1160 224 1160 224 1190 299 c 128,-1,38
 1220 374 1220 374 1220 478 c 0,39,40
 1220 514 1220 514 1184 514 c 128,-1,41
 1148 514 1148 514 1148 478 c 26,42,-1
 1148 460 l 2,43,44
 1148 328 1148 328 1004 216 c 0,45,46
 920 152 920 152 848 130 c 0,47,48
 712 94 712 94 656 94 c 24,49,50
 416 94 416 94 332 204 c 16,51,52
 268 288 268 288 268 388 c 0,53,54
 268 464 268 464 306 548 c 0,55,56
 346 640 346 640 406 668 c 0,57,58
 504 718 504 718 598 718 c 0,59,60
 644 718 644 718 692 704 c 0,61,62
 760 684 760 684 808 636 c 128,-1,63
 856 588 856 588 864 506 c 16,64,65
 866 482 866 482 866 460 c 0,66,67
 866 412 866 412 854 384 c 0,68,69
 838 344 838 344 808 344 c 128,-1,70
 778 344 778 344 751 392 c 128,-1,71
 724 440 724 440 724 526 c 1,72,-1
 620 526 l 1,73,74
 620 440 620 440 593 390 c 0,75,76
 568 340 568 340 544 340 c 128,-1,77
 520 340 520 340 503 385 c 128,-1,78
 486 430 486 430 486 524 c 0,0,1
EndSplineSet
Substitution2: "Single substitution 4-1" u11347
Position2: "Single Position lookup 0-1" dx=0 dy=0 dh=-160 dv=0
EndChar

StartChar: u11333
Encoding: 70451 70451 144
Width: 1816
Flags: MW
AnchorPoint: "high" 890 812 basechar 0
AnchorPoint: "low" 892 0 basechar 0
LayerCount: 2
Fore
SplineSet
216 304 m 0,0,1
 216 246 216 246 244 182 c 24,2,3
 262 142 262 142 298 116 c 24,4,5
 326 96 326 96 363 96 c 0,6,7
 396 96 396 96 420 120 c 0,8,9
 448 142 448 142 448 176 c 0,10,11
 448 264 448 264 360 328 c 0,12,13
 324 352 324 352 298 352 c 128,-1,14
 272 352 272 352 244 340 c 128,-1,15
 216 328 216 328 216 304 c 0,0,1
1640 94 m 2,16,17
 1658 94 1658 94 1669 82 c 128,-1,18
 1680 70 1680 70 1680 55 c 131,-1,19
 1680 40 1680 40 1670 20 c 128,-1,20
 1660 0 1660 0 1638 0 c 2,21,-1
 956 0 l 6,22,23
 906 0 906 0 884 40 c 0,24,25
 870 68 870 68 870 92 c 3,26,27
 870 150 870 150 952 192 c 0,28,29
 976 204 976 204 1018 216 c 128,-1,30
 1060 228 1060 228 1100 248 c 0,31,32
 1180 288 1180 288 1196 330 c 0,33,34
 1214 378 1214 378 1214 398 c 3,35,36
 1214 556 1214 556 1116 650 c 0,37,38
 1072 692 1072 692 1020 710 c 0,39,40
 994 718 994 718 968 718 c 3,41,42
 938 718 938 718 910 708 c 0,43,44
 852 688 852 688 832 646 c 0,45,46
 782 528 782 528 782 406 c 2,47,-1
 782 46 l 2,48,49
 782 24 782 24 763 12 c 128,-1,50
 744 0 744 0 720 0 c 0,51,52
 660 0 660 0 660 46 c 2,53,-1
 660 410 l 2,54,55
 660 604 660 604 572 672 c 0,56,57
 526 708 526 708 470 708 c 3,58,59
 412 708 412 708 360 678 c 0,60,61
 244 612 244 612 218 412 c 1,62,63
 248 428 248 428 285 428 c 128,-1,64
 322 428 322 428 362 416 c 0,65,66
 448 392 448 392 512 302 c 1,67,68
 540 224 540 224 540 159 c 131,-1,69
 540 94 540 94 487 47 c 128,-1,70
 434 0 434 0 369 0 c 131,-1,71
 304 0 304 0 246 28 c 0,72,73
 104 96 104 96 104 342 c 3,74,75
 104 570 104 570 224 702 c 0,76,77
 322 812 322 812 476 812 c 3,78,79
 544 812 544 812 605 776 c 128,-1,80
 666 740 666 740 708 676 c 1,81,82
 780 812 780 812 952 812 c 3,83,84
 1020 812 1020 812 1094 781 c 128,-1,85
 1168 750 1168 750 1223 697 c 128,-1,86
 1278 644 1278 644 1314 568 c 0,87,88
 1350 494 1350 494 1350 416 c 3,89,90
 1350 336 1350 336 1316 292 c 0,91,92
 1270 232 1270 232 1137 182 c 0,93,94
 1116 174 1116 174 1001 146 c 0,95,96
 984 142 984 142 970 132 c 24,97,98
 950 116 950 116 956 106 c 0,99,100
 966 94 966 94 994 94 c 2,101,-1
 1640 94 l 2,16,17
EndSplineSet
EndChar

StartChar: u11335
Encoding: 70453 70453 145
Width: 1330
Flags: MW
AnchorPoint: "high" 636 806 basechar 0
AnchorPoint: "low" 636 0 basechar 0
LayerCount: 2
Fore
SplineSet
170 318 m 0,0,1
 170 224 170 224 200 170 c 0,2,3
 240 82 240 82 316 82 c 0,4,5
 348 82 348 82 372 110 c 128,-1,6
 396 138 396 138 406 188 c 0,7,8
 408 202 408 202 408 214 c 0,9,10
 408 292 408 292 320 348 c 0,11,12
 280 372 280 372 250 373 c 128,-1,13
 220 374 220 374 195 359 c 128,-1,14
 170 344 170 344 170 318 c 0,0,1
562 0 m 1,15,-1
 562 94 l 1,16,17
 622 94 622 94 653 137 c 128,-1,18
 684 180 684 180 696 221 c 128,-1,19
 708 262 708 262 708 370 c 128,-1,20
 708 478 708 478 672 562 c 0,21,22
 646 618 646 618 593 657 c 128,-1,23
 540 696 540 696 479 696 c 128,-1,24
 418 696 418 696 361 673 c 128,-1,25
 304 650 304 650 255 592 c 128,-1,26
 206 534 206 534 184 442 c 1,27,28
 216 454 216 454 255 454 c 0,29,30
 292 452 292 452 332 440 c 0,31,32
 436 408 436 408 486 318 c 16,33,34
 510 276 510 276 508 222 c 0,35,36
 508 200 508 200 504 180 c 0,37,38
 492 100 492 100 442 50 c 128,-1,39
 392 0 392 0 329 0 c 128,-1,40
 266 0 266 0 212 21 c 128,-1,41
 158 42 158 42 110 113 c 128,-1,42
 62 184 62 184 62 324 c 128,-1,43
 62 464 62 464 119 572 c 128,-1,44
 176 680 176 680 266 743 c 128,-1,45
 356 806 356 806 461 806 c 128,-1,46
 566 806 566 806 654 770 c 128,-1,47
 742 734 742 734 811 644 c 128,-1,48
 880 554 880 554 880 420 c 0,49,50
 880 350 880 350 855 252 c 128,-1,51
 830 154 830 154 772 94 c 1,52,-1
 1080 94 l 1,53,-1
 1080 766 l 2,54,55
 1080 788 1080 788 1100 800 c 128,-1,56
 1120 812 1120 812 1143 812 c 128,-1,57
 1166 812 1166 812 1187 799 c 128,-1,58
 1208 786 1208 786 1208 764 c 2,59,-1
 1208 56 l 2,60,61
 1208 10 1208 10 1174 0 c 1,62,-1
 562 0 l 1,15,-1
EndSplineSet
Substitution2: "Single substitution 4-1" u11347
EndChar

StartChar: u11336
Encoding: 70454 70454 146
Width: 1526
Flags: MW
AnchorPoint: "high" 744 818 basechar 0
AnchorPoint: "low" 744 0 basechar 0
LayerCount: 2
Fore
SplineSet
906 226 m 2,0,1
 906 166 906 166 944 136 c 0,2,3
 974 106 974 106 1010 106 c 0,4,5
 1044 106 1044 106 1076 128 c 0,6,7
 1112 160 1112 160 1114 202 c 2,8,-1
 1114 714 l 1,9,-1
 906 714 l 1,10,-1
 906 226 l 2,0,1
1372 818 m 2,11,12
 1412 818 1412 818 1412 766 c 128,-1,13
 1412 714 1412 714 1372 714 c 2,14,-1
 1252 714 l 1,15,-1
 1252 200 l 2,16,17
 1252 128 1252 128 1203 81 c 128,-1,18
 1154 34 1154 34 1107 17 c 128,-1,19
 1060 0 1060 0 1001 0 c 0,20,21
 940 0 940 0 892 40 c 0,22,23
 796 116 796 116 798 264 c 2,24,-1
 798 714 l 1,25,-1
 714 714 l 2,26,27
 646 714 646 714 617 693 c 128,-1,28
 588 672 588 672 588 622 c 2,29,-1
 588 268 l 2,30,31
 588 190 588 190 545 126 c 128,-1,32
 502 62 502 62 446 31 c 128,-1,33
 390 0 390 0 325 0 c 128,-1,34
 260 0 260 0 204 28 c 0,35,36
 74 96 74 96 74 260 c 2,37,-1
 74 774 l 2,38,39
 74 790 74 790 88 799 c 128,-1,40
 102 808 102 808 121 808 c 128,-1,41
 140 808 140 808 157 799 c 128,-1,42
 174 790 174 790 174 774 c 2,43,-1
 174 268 l 2,44,45
 174 182 174 182 220 141 c 128,-1,46
 266 100 266 100 322 100 c 128,-1,47
 378 100 378 100 417 140 c 128,-1,48
 456 180 456 180 456 268 c 2,49,-1
 456 504 l 2,50,51
 456 612 456 612 476 678 c 0,52,53
 518 818 518 818 720 818 c 2,54,-1
 1372 818 l 2,11,12
EndSplineSet
EndChar

StartChar: u11337
Encoding: 70455 70455 147
Width: 1998
Flags: MW
AnchorPoint: "high" 974 818 basechar 0
AnchorPoint: "low" 974 -206 basechar 0
LayerCount: 2
Fore
SplineSet
1714 392 m 1,0,1
 1622 342 1622 342 1520 326 c 1,2,-1
 1520 104 l 1,3,-1
 1714 104 l 1,4,-1
 1714 392 l 1,0,1
1382 484 m 2,5,6
 1382 692 1382 692 1324 720 c 0,7,8
 1296 732 1296 732 1268 700 c 0,9,10
 1232 668 1232 668 1232 591 c 128,-1,11
 1232 514 1232 514 1275 471 c 128,-1,12
 1318 428 1318 428 1382 418 c 1,13,-1
 1382 484 l 2,5,6
190 302 m 0,14,15
 192 168 192 168 272 118 c 0,16,17
 304 98 304 98 339 98 c 128,-1,18
 374 98 374 98 403 117 c 128,-1,19
 432 136 432 136 432 178 c 0,20,21
 432 274 432 274 356 332 c 0,22,23
 306 370 306 370 266 370 c 0,24,25
 240 368 240 368 218 352 c 0,26,27
 190 332 190 332 190 302 c 0,14,15
1448 -206 m 0,28,29
 1384 -206 1384 -206 1384 -172 c 0,30,31
 1384 -86 1384 -86 1384 0 c 1,32,33
 1000 0 1000 0 616 0 c 1,34,-1
 616 104 l 1,35,-1
 666 104 l 2,36,37
 736 104 736 104 764 172 c 0,38,39
 796 244 796 244 794 422 c 0,40,41
 794 506 794 506 759 568 c 128,-1,42
 724 630 724 630 669 666 c 128,-1,43
 614 702 614 702 546 702 c 128,-1,44
 478 702 478 702 413 678 c 128,-1,45
 348 654 348 654 294 595 c 128,-1,46
 240 536 240 536 210 442 c 1,47,48
 236 448 236 448 262 448 c 0,49,50
 320 448 320 448 380 422 c 0,51,52
 476 380 476 380 526 278 c 0,53,54
 550 230 550 230 550 186 c 0,55,56
 552 108 552 108 476 44 c 0,57,58
 424 0 424 0 350 0 c 128,-1,59
 276 0 276 0 218 23 c 128,-1,60
 160 46 160 46 116 119 c 128,-1,61
 72 192 72 192 72 336 c 128,-1,62
 72 480 72 480 140 588 c 0,63,64
 206 696 206 696 304 757 c 128,-1,65
 402 818 402 818 514 818 c 0,66,67
 764 818 764 818 892 648 c 0,68,69
 966 554 966 554 966 428 c 0,70,71
 966 244 966 244 928 178 c 128,-1,72
 890 112 890 112 880 104 c 1,73,-1
 1384 104 l 1,74,-1
 1384 324 l 1,75,76
 1274 336 1274 336 1197 403 c 128,-1,77
 1120 470 1120 470 1120 606 c 0,78,79
 1120 676 1120 676 1154 725 c 0,80,81
 1188 772 1188 772 1236 792 c 0,82,83
 1270 806 1270 806 1308 806 c 0,84,85
 1324 806 1324 806 1340 804 c 0,86,87
 1456 788 1456 788 1508 652 c 0,88,89
 1520 620 1520 620 1522 430 c 1,90,91
 1608 432 1608 432 1744 568 c 0,92,93
 1768 592 1768 592 1790 591 c 0,94,95
 1812 592 1812 592 1828 584 c 0,96,97
 1872 566 1872 566 1874 544 c 2,98,-1
 1874 0 l 1,99,-1
 1520 0 l 1,100,-1
 1520 -172 l 2,101,102
 1520 -190 1520 -190 1495 -198 c 128,-1,103
 1470 -206 1470 -206 1448 -206 c 0,28,29
EndSplineSet
Position2: "Single Position lookup 0-1" dx=0 dy=0 dh=-100 dv=0
EndChar

StartChar: u11338
Encoding: 70456 70456 148
Width: 1750
Flags: MW
AnchorPoint: "high" 850 816 basechar 0
AnchorPoint: "low" 850 0 basechar 0
LayerCount: 2
Fore
SplineSet
328 700 m 0,0,1
 228 590 228 590 194 496 c 16,2,3
 170 426 170 426 170 386 c 0,4,5
 170 374 170 374 172 364 c 1,6,7
 192 372 192 372 218 372 c 0,8,9
 236 372 236 372 256 368 c 0,10,11
 344 350 344 350 394 270 c 0,12,13
 420 230 420 230 422 176 c 0,14,15
 424 128 424 128 396 76 c 0,16,17
 358 4 358 4 282 -2 c 0,18,19
 260 -4 260 -4 236 4 c 0,20,21
 192 16 192 16 152 64 c 0,22,23
 68 164 68 164 68 376 c 0,24,25
 68 512 68 512 168 648 c 0,26,27
 234 740 234 740 302 770 c 0,28,29
 378 806 378 806 440 806 c 0,30,31
 514 806 514 806 570 754 c 0,32,33
 716 618 716 618 730 422 c 0,34,35
 736 334 736 334 738 288 c 0,36,37
 740 262 740 262 736 250 c 0,38,39
 716 162 716 162 634 110 c 1,40,-1
 902 110 l 1,41,-1
 902 546 l 2,42,43
 902 670 902 670 964 748 c 0,44,45
 1018 816 1018 816 1094 816 c 0,46,47
 1164 816 1164 816 1232 740 c 0,48,49
 1264 704 1264 704 1286 647 c 128,-1,50
 1308 590 1308 590 1308 532 c 2,51,-1
 1308 182 l 2,52,53
 1308 92 1308 92 1380 92 c 0,54,55
 1494 92 1494 92 1524 396 c 0,56,57
 1528 436 1528 436 1528 474 c 0,58,59
 1528 532 1528 532 1518 580 c 0,60,61
 1486 732 1486 732 1428 744 c 0,62,63
 1388 752 1388 752 1392 778 c 0,64,65
 1396 812 1396 812 1428 812 c 0,66,67
 1546 812 1546 812 1610 614 c 0,68,69
 1634 538 1634 538 1634 430 c 0,70,71
 1634 414 1634 414 1634 398 c 0,72,73
 1622 0 1622 0 1386 0 c 0,74,75
 1202 0 1202 0 1202 178 c 2,76,-1
 1202 546 l 2,77,78
 1202 636 1202 636 1173 682 c 128,-1,79
 1144 728 1144 728 1110 730 c 0,80,-1
 1108 728 l 0,81,82
 1074 728 1074 728 1047 684 c 128,-1,83
 1020 640 1020 640 1020 546 c 2,84,-1
 1020 50 l 2,85,86
 1020 22 1020 22 962 0 c 5,87,-1
 508 0 l 5,88,-1
 508 106 l 1,89,90
 580 128 580 128 600 200 c 0,91,92
 624 286 624 286 618 352 c 0,93,94
 616 374 616 374 616 398 c 0,95,96
 612 522 612 522 586 584 c 128,-1,97
 560 646 560 646 518 681 c 0,98,99
 464 726 464 726 416 724 c 0,100,101
 406 724 406 724 396 724 c 0,102,103
 354 726 354 726 328 700 c 0,0,1
252 308 m 0,104,105
 242 310 242 310 234 310 c 0,106,107
 194 310 194 310 182 256 c 0,108,109
 178 238 178 238 178 222 c 0,110,111
 178 176 178 176 210 132 c 0,112,113
 238 90 238 90 266 92 c 0,114,115
 284 92 284 92 304 110 c 0,116,117
 330 138 330 138 330 182 c 0,118,119
 330 212 330 212 316 252 c 0,120,121
 306 280 306 280 289 292 c 128,-1,122
 272 304 272 304 252 308 c 0,104,105
EndSplineSet
EndChar

StartChar: u11339
Encoding: 70457 70457 149
Width: 1992
Flags: MW
AnchorPoint: "high" 982 798 basechar 0
AnchorPoint: "low" 982 -162 basechar 0
LayerCount: 2
Fore
SplineSet
1350 708 m 1,0,1
 1432 798 1432 798 1560 798 c 4,2,3
 1772 798 1772 798 1848 592 c 0,4,5
 1876 516 1876 516 1876 432 c 128,-1,6
 1876 348 1876 348 1848 278 c 128,-1,7
 1820 208 1820 208 1746 144 c 0,8,9
 1578 0 1578 0 1186 0 c 2,10,-1
 278 0 l 2,11,12
 242 0 242 0 219 -10 c 128,-1,13
 196 -20 196 -20 196 -32 c 128,-1,14
 196 -44 196 -44 214 -55 c 128,-1,15
 232 -66 232 -66 266 -66 c 128,-1,16
 300 -66 300 -66 314 -84 c 128,-1,17
 328 -102 328 -102 328 -114 c 128,-1,18
 328 -126 328 -126 314 -144 c 128,-1,19
 300 -162 300 -162 274 -162 c 0,20,21
 198 -162 198 -162 157 -142 c 128,-1,22
 116 -122 116 -122 105 -101 c 128,-1,23
 94 -80 94 -80 94 -43 c 0,24,25
 94 -8 94 -8 124 24 c 0,26,27
 192 96 192 96 278 96 c 26,28,-1
 1186 96 l 2,29,30
 1308 96 1308 96 1404 128 c 0,31,32
 1580 188 1580 188 1648 300 c 0,33,34
 1692 372 1692 372 1692 408 c 0,35,36
 1692 544 1692 544 1652 615 c 0,37,38
 1614 684 1614 684 1560 704 c 0,39,40
 1544 710 1544 710 1528 708 c 0,41,42
 1492 708 1492 708 1452 682 c 0,43,44
 1398 646 1398 646 1398 548 c 2,45,-1
 1398 224 l 2,46,47
 1398 202 1398 202 1376 189 c 128,-1,48
 1354 176 1354 176 1329 176 c 128,-1,49
 1304 176 1304 176 1281 189 c 128,-1,50
 1258 202 1258 202 1258 224 c 2,51,-1
 1258 510 l 2,52,53
 1258 568 1258 568 1235 609 c 128,-1,54
 1212 650 1212 650 1187 654 c 128,-1,55
 1162 658 1162 658 1140 639 c 128,-1,56
 1118 620 1118 620 1118 574 c 2,57,-1
 1118 220 l 2,58,59
 1118 202 1118 202 1095 189 c 128,-1,60
 1072 176 1072 176 1044 176 c 2,61,-1
 480 176 l 2,62,63
 446 176 446 176 446 202 c 2,64,-1
 446 244 l 2,65,66
 446 272 446 272 492 272 c 0,67,68
 508 272 508 272 534 284 c 128,-1,69
 560 296 560 296 580 316 c 0,70,71
 624 364 624 364 623 458 c 128,-1,72
 622 552 622 552 575 608 c 128,-1,73
 528 664 528 664 464 676 c 0,74,75
 444 680 444 680 424 682 c 0,76,77
 380 684 380 684 336 664 c 0,78,79
 270 636 270 636 234 562 c 1,80,81
 260 568 260 568 286 568 c 0,82,83
 344 568 344 568 396 538 c 0,84,85
 480 490 480 490 479 409 c 128,-1,86
 478 328 478 328 449 285 c 128,-1,87
 420 242 420 242 378 226 c 128,-1,88
 336 210 336 210 286 210 c 0,89,90
 184 212 184 212 120 304 c 0,91,92
 88 348 88 348 89 438 c 128,-1,93
 90 528 90 528 119 597 c 128,-1,94
 148 666 148 666 196 711 c 128,-1,95
 244 756 244 756 304 779 c 128,-1,96
 364 802 364 802 428 802 c 128,-1,97
 492 802 492 802 553 779 c 128,-1,98
 614 756 614 756 662 712 c 0,99,100
 776 610 776 610 776 458 c 0,101,102
 776 344 776 344 700 272 c 1,103,-1
 1008 272 l 1,104,-1
 1008 578 l 2,105,106
 1008 660 1008 660 1047 714 c 128,-1,107
 1086 768 1086 768 1140 788 c 0,108,109
 1168 798 1168 798 1196 798 c 0,110,111
 1224 796 1224 796 1252 788 c 0,112,113
 1310 768 1310 768 1350 708 c 1,0,1
226 469 m 128,-1,115
 200 446 200 446 200 396 c 128,-1,116
 200 346 200 346 226 315 c 128,-1,117
 252 284 252 284 284 284 c 128,-1,118
 316 284 316 284 341 309 c 128,-1,119
 366 334 366 334 366 390 c 128,-1,120
 366 446 366 446 341 469 c 128,-1,121
 316 492 316 492 284 492 c 128,-1,114
 252 492 252 492 226 469 c 128,-1,115
EndSplineSet
EndChar

StartChar: u1133D
Encoding: 70461 70461 150
Width: 818
Flags: MW
AnchorPoint: "high" 416 820 basechar 0
LayerCount: 2
Fore
SplineSet
652 818 m 0,0,1
 708 818 708 818 708 768 c 0,2,3
 708 752 708 752 675 750 c 0,4,5
 644 748 644 748 564 748 c 2,6,-1
 402 748 l 2,7,8
 320 748 320 748 271 742 c 128,-1,9
 222 736 222 736 203 715 c 128,-1,10
 184 694 184 694 184 649 c 128,-1,11
 184 604 184 604 239 573 c 128,-1,12
 294 542 294 542 362 513 c 128,-1,13
 430 484 430 484 504 451 c 0,14,15
 576 418 576 418 640 376 c 0,16,17
 784 280 784 280 784 158 c 0,18,19
 784 102 784 102 734 66 c 128,-1,20
 684 30 684 30 607 15 c 128,-1,21
 530 0 530 0 440 0 c 0,22,23
 256 0 256 0 124 94 c 0,24,25
 48 150 48 150 48 206 c 0,26,27
 48 230 48 230 55 238 c 128,-1,28
 62 246 62 246 86 246 c 128,-1,29
 110 246 110 246 112 232 c 0,30,31
 124 144 124 144 252 104 c 0,32,33
 328 80 328 80 410 80 c 0,34,35
 448 80 448 80 488 84 c 0,36,37
 542 92 542 92 578 112 c 128,-1,38
 614 132 614 132 616 160 c 5,39,40
 616 206 616 206 576 242 c 128,-1,41
 536 278 536 278 476 311 c 128,-1,42
 416 344 416 344 346 377 c 0,43,44
 276 412 276 412 216 448 c 0,45,46
 70 540 70 540 70 652 c 0,47,48
 72 708 72 708 108 752 c 0,49,50
 168 820 168 820 372 820 c 0,51,52
 480 816 480 816 652 818 c 0,0,1
EndSplineSet
EndChar

StartChar: u1133E
Encoding: 70462 70462 151
Width: 892
Flags: MW
LayerCount: 2
Fore
SplineSet
48 754 m 2,0,1
 48 798 48 798 120 798 c 2,2,-1
 780 798 l 2,3,4
 806 798 806 798 818 784 c 128,-1,5
 830 770 830 770 830 753 c 128,-1,6
 830 736 830 736 818 721 c 128,-1,7
 806 706 806 706 780 706 c 2,8,-1
 642 706 l 1,9,-1
 642 50 l 2,10,11
 642 28 642 28 614 14 c 128,-1,12
 586 0 586 0 552 0 c 128,-1,13
 518 0 518 0 490 13 c 128,-1,14
 462 26 462 26 462 50 c 2,15,-1
 462 706 l 1,16,-1
 160 706 l 1,17,-1
 160 46 l 2,18,19
 160 0 160 0 104 0 c 0,20,21
 84 0 84 0 66 12 c 128,-1,22
 48 24 48 24 48 50 c 2,23,-1
 48 754 l 2,0,1
EndSplineSet
Substitution2: "Single substitution combining pa-1" u11374
Substitution2: "Single substitution combining vi-1" u11373
Substitution2: "Single substitution combining na-1" u11372
Substitution2: "Single substitution combining ka-1" u11371
Substitution2: "Single substitution combining a-1" u11370
Substitution2: "Single substitution combining six-1" u1136C
Substitution2: "Single substitution combining five-1" u1136B
Substitution2: "Single substitution combining four-1" u1136A
Substitution2: "Single substitution combining three-1" u11369
Substitution2: "Single substitution combining two-1" u11368
Substitution2: "Single substitution combining one-1" u11367
Substitution2: "Single substitution combining zero-1" u11366
Substitution2: "Single substitution combining asterisk-1" u20F0
Substitution2: "Single substitution prenkha-1" u1CD2
Substitution2: "Single substitution karsana-1" u1CD0
Substitution2: "Single substitution dirghasvarita-1" u0951
Substitution2: "Single substitution svarita-1" u1CF4
Substitution2: "Single substitution anudatta-1" u0952
Substitution2: "Single substitution anunasika-1" u11301
EndChar

